<?xml version="1.0" encoding="UTF-8" standalone="no"?>
<!DOCTYPE svg PUBLIC "-//W3C//DTD SVG 1.1//EN" "http://www.w3.org/Graphics/SVG/1.1/DTD/svg11.dtd">
<svg xmlns="http://www.w3.org/2000/svg" version="1.1" viewBox="0.00 0.00 1050.00 1050.00">
<path fill="#c3c3c3" d="
  M 1050.00 0.00
  L 1050.00 1050.00
  L 0.00 1050.00
  L 0.00 0.00
  L 1050.00 0.00
  Z"
/>
<path fill="#f5efe3" d="
  M 1006.91 40.61
  L 1006.91 1009.65
  A 0.48 0.48 0.0 0 1 1006.43 1010.13
  L 41.38 1010.13
  A 0.48 0.48 0.0 0 1 40.90 1009.65
  L 40.90 40.61
  A 0.48 0.48 0.0 0 1 41.38 40.13
  L 1006.43 40.13
  A 0.48 0.48 0.0 0 1 1006.91 40.61
  Z"
/>
<g stroke-width="2.00" fill="none" stroke-linecap="butt">
<path stroke="#8e7363" vector-effect="non-scaling-stroke" d="
  M 632.57 268.18
  L 632.60 308.96
  A 0.69 0.67 29.1 0 0 632.71 309.33
  Q 632.85 309.55 633.04 309.63"
/>
<path stroke="#625654" vector-effect="non-scaling-stroke" d="
  M 633.04 309.63
  Q 632.55 310.25 632.56 311.01
  Q 632.66 332.61 632.57 336.37
  A 0.99 0.98 0.6 0 1 631.58 337.33
  L 605.41 337.33
  A 0.57 0.56 90.0 0 0 604.85 337.90
  L 604.85 350.60
  A 0.65 0.64 -0.0 0 1 604.20 351.24
  L 591.82 351.24
  A 0.66 0.65 90.0 0 0 591.17 351.90
  L 591.17 364.42
  A 0.65 0.65 0.0 0 1 590.52 365.07
  L 577.81 365.07
  A 0.58 0.58 0.0 0 0 577.23 365.65
  L 577.20 434.46"
/>
<path stroke="#685f5b" vector-effect="non-scaling-stroke" d="
  M 577.20 434.46
  L 564.16 434.33
  A 0.72 0.71 -89.6 0 0 563.44 435.05
  L 563.44 530.21
  A 0.94 0.94 0.0 0 0 564.38 531.15
  L 576.48 531.15
  A 0.81 0.81 0.0 0 1 577.29 531.96
  L 577.29 557.52
  A 1.20 1.20 0.0 0 0 578.49 558.72
  L 590.10 558.72
  A 0.91 0.90 88.3 0 1 591.00 559.58
  L 591.60 571.59
  A 1.03 1.03 0.0 0 0 592.63 572.57
  L 604.11 572.57
  A 0.88 0.88 0.0 0 1 604.99 573.45
  L 604.99 585.38
  A 1.08 1.07 0.0 0 0 606.07 586.45
  L 617.60 586.45
  A 0.93 0.93 0.0 0 1 618.53 587.33
  L 619.13 599.33
  A 1.05 1.05 0.0 0 0 620.18 600.33
  L 631.38 600.33
  A 0.98 0.98 0.0 0 1 632.36 601.26
  L 632.94 612.86
  A 1.30 1.29 -1.4 0 0 634.24 614.09
  L 645.44 614.09
  A 1.08 1.08 0.0 0 1 646.52 615.17
  L 646.52 626.24
  A 1.35 1.35 0.0 0 0 647.86 627.59
  L 715.69 628.21"
/>
<path stroke="#514541" vector-effect="non-scaling-stroke" d="
  M 715.69 628.21
  L 715.66 655.08
  A 0.53 0.52 90.0 0 1 715.14 655.61
  L 702.29 655.61
  A 0.44 0.44 0.0 0 0 701.85 656.05
  L 701.85 710.27
  A 0.70 0.70 0.0 0 0 702.55 710.97
  L 715.31 710.97
  A 0.42 0.42 0.0 0 1 715.73 711.39
  L 715.73 724.34
  A 0.44 0.43 90.0 0 0 716.16 724.78
  L 728.91 724.78
  A 0.67 0.67 0.0 0 1 729.57 725.33
  Q 729.72 726.17 729.41 727.50"
/>
<path stroke="#484a66" vector-effect="non-scaling-stroke" d="
  M 729.41 727.50
  L 722.68 727.33
  A 0.77 0.76 -77.0 0 0 721.95 727.79
  L 704.73 766.99"
/>
<path stroke="#685f5b" vector-effect="non-scaling-stroke" d="
  M 704.73 766.99
  C 696.57 765.89 687.96 766.38 679.66 766.19"
/>
<path stroke="#b88842" vector-effect="non-scaling-stroke" d="
  M 679.66 766.19
  C 684.81 753.40 679.81 739.88 667.28 733.97
  Q 656.74 729.01 644.99 728.87
  Q 638.49 728.79 631.96 728.62"
/>
<path stroke="#484a66" vector-effect="non-scaling-stroke" d="
  M 631.96 728.62
  L 633.31 728.13
  A 0.53 0.53 0.0 0 0 633.13 727.11
  L 591.23 727.00"
/>
<path stroke="#9a918a" vector-effect="non-scaling-stroke" d="
  M 591.23 727.00
  Q 591.56 725.22 590.47 724.86"
/>
<path stroke="#685f5b" vector-effect="non-scaling-stroke" d="
  M 590.47 724.86
  C 591.91 716.39 591.32 707.11 591.28 697.95
  A 0.79 0.79 0.0 0 0 590.49 697.16
  L 578.81 697.16
  A 1.43 1.43 0.0 0 1 577.38 695.73
  L 577.38 670.68
  A 1.17 1.16 0.0 0 0 576.21 669.52
  L 565.70 669.52
  A 2.18 2.18 0.0 0 1 563.52 667.34
  L 563.52 656.49
  A 0.57 0.57 0.0 0 1 564.06 655.92
  L 576.15 655.32
  A 1.19 1.19 0.0 0 0 577.28 654.13
  L 577.28 643.10
  A 1.38 1.37 -0.0 0 0 575.90 641.73
  L 564.41 641.73
  A 0.83 0.82 90.0 0 1 563.59 640.90
  L 563.59 629.17
  A 0.97 0.97 0.0 0 1 564.51 628.20
  L 576.50 627.60
  A 0.80 0.80 0.0 0 0 577.26 626.80
  L 577.26 615.18
  A 1.05 1.05 0.0 0 0 576.21 614.13
  L 564.81 614.13
  A 1.13 1.13 0.0 0 1 563.68 613.06
  L 563.11 601.60
  A 1.19 1.19 0.0 0 0 561.92 600.47
  L 551.39 600.47
  A 1.48 1.47 -1.4 0 1 549.91 599.07
  L 549.31 587.18
  A 0.65 0.65 0.0 0 0 548.66 586.56
  L 536.81 586.56
  A 1.08 1.08 0.0 0 0 535.73 587.64
  L 535.73 599.38
  A 0.71 0.71 0.0 0 1 535.06 600.09
  L 522.75 600.71
  A 0.91 0.91 0.0 0 0 521.88 601.62
  L 521.88 612.91
  A 1.25 1.25 0.0 0 1 520.63 614.16
  L 509.20 614.16
  A 1.04 1.03 -90.0 0 1 508.17 613.12
  L 508.17 601.42
  A 0.96 0.96 0.0 0 0 507.21 600.46
  L 495.53 600.46
  A 1.25 1.25 0.0 0 0 494.28 601.71
  L 494.28 612.93
  A 1.16 1.16 0.0 0 1 493.12 614.09
  L 481.64 614.09
  A 1.14 1.14 0.0 0 1 480.50 612.95
  L 480.50 601.25
  A 0.75 0.75 0.0 0 0 479.75 600.50
  L 467.39 600.50
  A 0.87 0.87 0.0 0 0 466.52 601.37
  L 466.52 612.95
  A 1.20 1.19 -90.0 0 1 465.33 614.15
  L 453.95 614.15
  A 1.21 1.20 90.0 0 1 452.75 612.94
  L 452.75 601.33
  A 0.87 0.86 90.0 0 0 451.89 600.46
  L 439.82 600.46
  A 1.04 1.03 90.0 0 0 438.79 601.50
  L 438.79 613.07
  A 1.11 1.11 0.0 0 1 437.68 614.18
  L 426.35 614.18
  A 1.13 1.13 0.0 0 1 425.22 613.05
  L 425.22 601.32
  A 0.89 0.89 0.0 0 0 424.33 600.43
  L 412.46 600.43
  A 1.23 1.23 0.0 0 0 411.23 601.66
  L 411.23 613.30
  A 0.66 0.66 0.0 0 1 410.57 613.96
  L 398.60 613.96
  A 1.18 1.17 -90.0 0 1 397.43 612.78
  L 397.43 601.24
  A 0.76 0.76 0.0 0 0 396.67 600.48
  L 384.71 600.48
  A 1.19 1.19 0.0 0 0 383.52 601.67
  L 383.52 612.88
  A 1.31 1.31 0.0 0 1 382.21 614.19
  L 370.44 614.19
  A 0.74 0.73 -90.0 0 1 369.71 613.45
  L 369.71 601.24
  A 0.78 0.78 0.0 0 0 368.93 600.46
  L 356.84 600.46
  A 0.68 0.68 0.0 0 1 356.16 599.81
  L 355.53 587.18
  A 0.68 0.67 88.2 0 0 354.86 586.54
  L 343.16 586.54
  A 0.99 0.99 0.0 0 1 342.17 585.55
  L 342.17 573.59
  A 0.91 0.91 0.0 0 0 341.26 572.68
  L 315.41 572.68
  A 1.00 1.00 0.0 0 1 314.41 571.68
  L 314.41 559.61
  A 0.83 0.83 0.0 0 0 313.58 558.78
  L 301.53 558.78
  A 0.94 0.94 0.0 0 1 300.59 557.84
  L 300.59 546.01
  A 0.82 0.82 0.0 0 0 299.77 545.19
  L 287.61 545.19
  A 0.82 0.81 0.0 0 0 286.79 546.00
  L 286.70 572.76"
/>
<path stroke="#514541" vector-effect="non-scaling-stroke" d="
  M 286.70 572.76
  L 286.81 585.94
  A 0.53 0.52 89.4 0 0 287.33 586.46
  L 299.45 586.53"
/>
<path stroke="#685f5b" vector-effect="non-scaling-stroke" d="
  M 299.45 586.53
  L 300.55 586.95"
/>
<path stroke="#514541" vector-effect="non-scaling-stroke" d="
  M 300.55 586.95
  L 300.56 613.62
  A 0.67 0.66 -90.0 0 0 301.22 614.29
  L 313.86 614.29
  A 0.54 0.54 0.0 0 1 314.40 614.83
  L 314.40 627.81
  A 0.34 0.33 -0.0 0 0 314.74 628.14
  L 327.86 628.14
  A 0.41 0.40 -90.0 0 1 328.26 628.55
  L 328.26 641.30
  A 0.56 0.56 0.0 0 0 328.82 641.86
  L 341.71 641.86
  A 0.39 0.39 0.0 0 1 342.10 642.24
  L 342.13 726.20"
/>
<path stroke="#484a66" vector-effect="non-scaling-stroke" d="
  M 342.13 726.20
  Q 316.77 731.34 303.77 752.97"
/>
<path stroke="#685f5b" vector-effect="non-scaling-stroke" d="
  M 303.77 752.97
  L 299.06 752.03"
/>
<path stroke="#b88842" vector-effect="non-scaling-stroke" d="
  M 299.06 752.03
  L 306.45 728.93
  A 0.32 0.32 0.0 0 0 306.12 728.51
  Q 300.22 728.95 295.26 727.82"
/>
<path stroke="#484a66" vector-effect="non-scaling-stroke" d="
  M 295.26 727.82
  Q 278.57 726.49 261.96 727.27
  A 0.71 0.71 0.0 0 0 261.31 727.77
  L 253.21 752.97"
/>
<path stroke="#685f5b" vector-effect="non-scaling-stroke" d="
  M 253.21 752.97
  L 242.66 752.73"
/>
<path stroke="#b88842" vector-effect="non-scaling-stroke" d="
  M 242.66 752.73
  L 235.48 729.09
  A 0.72 0.72 0.0 0 0 234.82 728.58
  L 231.54 728.46"
/>
<path stroke="#685f5b" vector-effect="non-scaling-stroke" d="
  M 231.54 728.46
  L 231.42 726.16
  A 0.62 0.62 0.0 0 0 230.86 725.58
  L 218.29 724.56
  A 0.80 0.80 0.0 0 1 217.56 723.76
  L 217.56 629.06
  A 0.82 0.82 0.0 0 0 216.74 628.24
  L 204.53 628.24
  A 0.92 0.91 0.0 0 1 203.61 627.33
  L 203.61 601.36
  A 0.85 0.85 0.0 0 0 202.76 600.51
  L 190.38 600.51
  A 0.64 0.64 0.0 0 1 189.74 599.87
  L 189.74 587.29
  A 0.69 0.69 0.0 0 0 189.05 586.60
  L 176.60 586.60
  A 0.74 0.74 0.0 0 1 175.86 585.86
  L 175.86 573.36
  A 0.65 0.65 0.0 0 0 175.21 572.71
  L 162.82 572.71
  A 0.63 0.63 0.0 0 1 162.19 572.08
  L 162.19 531.93
  A 0.68 0.68 0.0 0 0 161.51 531.25
  L 149.26 531.25
  A 0.91 0.90 -0.0 0 1 148.35 530.35
  L 148.35 518.11
  A 0.69 0.69 0.0 0 0 147.65 517.42
  L 134.45 517.55"
/>
<path stroke="#685f5b" vector-effect="non-scaling-stroke" d="
  M 244.86 309.78
  L 245.11 322.47
  A 1.11 1.11 0.0 0 0 246.22 323.56
  L 258.47 323.56
  A 0.43 0.43 0.0 0 0 258.90 323.13
  L 258.90 310.34
  A 0.70 0.69 -0.0 0 0 258.20 309.65
  L 245.13 309.74"
/>
<path stroke="#af843e" vector-effect="non-scaling-stroke" d="
  M 679.66 766.19
  Q 675.81 774.23 667.73 778.23
  A 0.28 0.28 0.0 0 0 667.75 778.74
  L 671.54 780.28"
/>
<path stroke="#e2b66e" vector-effect="non-scaling-stroke" d="
  M 671.54 780.28
  Q 673.72 781.81 675.92 783.36
  Q 681.79 787.46 684.58 793.99"
/>
<path stroke="#face84" vector-effect="non-scaling-stroke" d="
  M 684.58 793.99
  Q 686.11 797.75 686.44 801.77
  Q 686.69 804.88 686.41 808.62"
/>
<path stroke="#8f7049" vector-effect="non-scaling-stroke" d="
  M 631.96 728.62
  L 583.69 728.45
  A 0.52 0.52 0.0 0 0 583.17 728.97
  L 583.17 831.53
  A 0.79 0.72 -28.4 0 1 583.01 831.99
  Q 582.77 832.29 582.56 832.24"
/>
<path stroke="#8f7049" vector-effect="non-scaling-stroke" d="
  M 295.26 727.82
  Q 284.14 729.09 273.50 728.49
  A 0.65 0.65 0.0 0 0 272.84 728.95
  L 253.86 788.24
  A 0.28 0.27 -44.5 0 1 253.33 788.24
  L 247.76 769.36"
/>
<path stroke="#727992" vector-effect="non-scaling-stroke" d="
  M 247.76 769.36
  Q 248.60 768.06 248.82 766.69"
/>
<path stroke="#3f4762" vector-effect="non-scaling-stroke" d="
  M 248.82 766.69
  L 253.21 752.97"
/>
<path stroke="#928d87" vector-effect="non-scaling-stroke" d="
  M 248.82 766.69
  Q 248.58 766.01 246.90 766.67"
/>
<path stroke="#af843e" vector-effect="non-scaling-stroke" d="
  M 231.54 728.46
  L 224.77 728.41"
/>
<path stroke="#3f4762" vector-effect="non-scaling-stroke" d="
  M 224.77 728.41
  Q 223.36 726.47 217.42 726.81"
/>
<path stroke="#928d87" vector-effect="non-scaling-stroke" d="
  M 217.42 726.81
  Q 218.08 725.07 216.51 725.05
  Q 210.37 724.99 204.25 725.13
  Q 203.89 725.14 203.96 725.50"
/>
<path stroke="#928d87" vector-effect="non-scaling-stroke" d="
  M 203.66 655.90
  L 203.52 642.52
  A 0.53 0.52 89.4 0 0 203.00 642.00
  L 189.79 641.97"
/>
<path stroke="#928d87" vector-effect="non-scaling-stroke" d="
  M 189.74 628.07
  L 189.74 614.93
  A 0.60 0.59 -90.0 0 0 189.15 614.33
  L 176.45 614.33
  A 0.48 0.48 0.0 0 1 175.97 613.85
  L 175.97 601.11
  A 0.58 0.58 0.0 0 0 175.40 600.53
  L 162.15 600.46"
/>
<path stroke="#928d87" vector-effect="non-scaling-stroke" d="
  M 162.15 600.46
  L 162.11 587.14
  A 0.51 0.51 0.0 0 0 161.60 586.63
  L 148.34 586.61"
/>
<path stroke="#928d87" vector-effect="non-scaling-stroke" d="
  M 148.30 545.08
  L 148.23 531.95
  A 0.52 0.52 0.0 0 0 147.71 531.43
  L 134.48 531.39"
/>
<path stroke="#48423d" vector-effect="non-scaling-stroke" d="
  M 715.74 614.22
  L 715.69 628.21"
/>
<path stroke="#7b746d" vector-effect="non-scaling-stroke" d="
  M 784.92 655.63
  L 771.74 655.67
  A 0.51 0.51 0.0 0 0 771.23 656.18
  L 771.18 669.37"
/>
<path stroke="#282d48" vector-effect="non-scaling-stroke" d="
  M 795.28 738.63
  L 795.18 752.44"
/>
<path stroke="#514541" vector-effect="non-scaling-stroke" d="
  M 795.18 752.44
  L 785.53 752.54
  A 0.53 0.53 0.0 0 0 785.01 753.06
  Q 784.93 758.98 785.06 764.74
  Q 785.08 765.50 784.56 765.54"
/>
<path stroke="#986b24" vector-effect="non-scaling-stroke" d="
  M 784.56 765.54
  L 768.60 729.11
  A 0.79 0.77 78.9 0 0 767.92 728.64
  L 756.80 727.98"
/>
<path stroke="#282d48" vector-effect="non-scaling-stroke" d="
  M 756.80 727.98
  Q 743.25 726.27 729.41 727.50"
/>
<path stroke="#8f7049" vector-effect="non-scaling-stroke" d="
  M 756.80 727.98
  Q 745.17 728.96 734.25 728.51
  A 0.88 0.88 0.0 0 0 733.40 729.04
  Q 710.99 780.26 688.62 831.42
  Q 688.45 831.80 688.22 831.95
  Q 687.93 832.14 687.58 832.17"
/>
<path stroke="#8f7049" vector-effect="non-scaling-stroke" d="
  M 681.03 821.01
  Q 685.35 815.27 686.41 808.62"
/>
<path stroke="#8a91a8" vector-effect="non-scaling-stroke" d="
  M 686.41 808.62
  L 692.77 794.27"
/>
<path stroke="#727992" vector-effect="non-scaling-stroke" d="
  M 692.77 794.27
  L 698.87 780.26"
/>
<path stroke="#3f4762" vector-effect="non-scaling-stroke" d="
  M 698.87 780.26
  L 704.73 766.99"
/>
<path stroke="#928d87" vector-effect="non-scaling-stroke" d="
  M 590.47 724.86
  L 577.43 724.88"
/>
<path stroke="#928d87" vector-effect="non-scaling-stroke" d="
  M 577.38 710.97
  L 577.35 697.81
  A 0.59 0.59 0.0 0 0 576.76 697.22
  L 564.34 697.22
  A 0.82 0.81 -0.7 0 1 563.52 696.43
  L 563.20 683.36"
/>
<path stroke="#48423d" vector-effect="non-scaling-stroke" d="
  M 563.20 683.36
  L 563.41 669.97
  A 0.49 0.49 0.0 0 0 562.92 669.47
  L 550.20 669.47
  A 0.63 0.62 0.0 0 1 549.57 668.85
  L 549.57 615.26
  A 1.06 1.05 90.0 0 0 548.52 614.20
  L 536.50 614.20
  A 0.69 0.68 90.0 0 0 535.82 614.89
  L 535.82 627.56
  A 0.48 0.48 0.0 0 1 535.34 628.04
  L 522.69 628.04
  A 0.72 0.72 0.0 0 0 521.97 628.76
  L 521.97 641.29
  A 0.51 0.50 -0.0 0 1 521.46 641.79
  L 494.93 641.79
  A 0.61 0.60 90.0 0 0 494.33 642.40
  L 494.33 655.30
  A 0.38 0.38 0.0 0 1 493.95 655.68
  L 397.95 655.68
  A 0.52 0.52 0.0 0 1 397.43 655.16
  L 397.43 642.35
  A 0.53 0.53 0.0 0 0 396.90 641.82
  L 384.16 641.82
  A 0.60 0.60 0.0 0 1 383.56 641.22
  L 383.56 628.86
  A 0.75 0.75 0.0 0 0 382.81 628.11
  L 356.28 628.11
  A 0.44 0.44 0.0 0 1 355.84 627.67
  L 355.84 614.85
  A 0.58 0.57 90.0 0 0 355.27 614.27
  L 342.60 614.27
  A 0.49 0.48 0.0 0 1 342.11 613.79
  L 342.11 600.97
  A 0.58 0.58 0.0 0 0 341.53 600.39
  L 328.75 600.39
  A 0.49 0.48 90.0 0 1 328.27 599.90
  L 328.27 587.12
  A 0.54 0.54 0.0 0 0 327.73 586.58
  L 301.21 586.58
  A 0.67 0.65 -65.3 0 0 300.77 586.75
  L 300.55 586.95"
/>
<path stroke="#48423d" vector-effect="non-scaling-stroke" d="
  M 299.45 586.53
  Q 299.94 586.62 300.23 586.50
  Q 300.53 586.37 300.53 585.83
  Q 300.53 579.52 300.53 573.16
  A 0.45 0.45 0.0 0 0 300.08 572.71
  L 286.70 572.76"
/>
<path stroke="#727992" vector-effect="non-scaling-stroke" d="
  M 591.23 727.00
  L 577.24 727.22"
/>
<path stroke="#af843e" vector-effect="non-scaling-stroke" d="
  M 242.66 752.73
  L 246.90 766.67"
/>
<path stroke="#e2b66e" vector-effect="non-scaling-stroke" d="
  M 246.90 766.67
  Q 247.74 767.72 247.76 769.36"
/>
<path stroke="#af843e" vector-effect="non-scaling-stroke" d="
  M 299.06 752.03
  L 290.04 780.20"
/>
<path stroke="#e2b66e" vector-effect="non-scaling-stroke" d="
  M 290.04 780.20
  L 285.52 794.28"
/>
<path stroke="#8f7049" vector-effect="non-scaling-stroke" d="
  M 234.29 832.23
  L 218.25 777.87
  A 0.18 0.18 0.0 0 0 217.91 777.86
  L 212.39 795.55"
/>
<path stroke="#928d87" vector-effect="non-scaling-stroke" d="
  M 297.13 780.24
  L 290.04 780.20"
/>
<path stroke="#7b746d" vector-effect="non-scaling-stroke" d="
  M 563.20 683.36
  L 467.04 683.40
  A 0.43 0.43 0.0 0 0 466.61 683.83
  L 466.61 696.49
  A 0.78 0.78 0.0 0 1 465.83 697.27
  L 453.38 697.27
  A 0.60 0.59 -90.0 0 0 452.79 697.87
  L 452.79 711.07"
/>
<path stroke="#282d48" vector-effect="non-scaling-stroke" d="
  M 452.76 727.25
  L 429.04 727.30
  A 0.47 0.46 -90.0 0 0 428.58 727.77
  L 428.61 752.54"
/>
<path stroke="#514541" vector-effect="non-scaling-stroke" d="
  M 428.61 752.54
  L 425.66 752.58
  A 0.49 0.49 0.0 0 0 425.18 753.05
  L 424.80 764.43"
/>
<path stroke="#986b24" vector-effect="non-scaling-stroke" d="
  M 424.80 764.43
  Q 416.88 741.24 395.37 731.65
  Q 381.94 725.66 366.35 725.91"
/>
<path stroke="#282d48" vector-effect="non-scaling-stroke" d="
  M 366.35 725.91
  Q 354.49 723.50 342.13 726.20"
/>
<path stroke="#8f7049" vector-effect="non-scaling-stroke" d="
  M 366.35 725.91
  Q 353.57 726.34 342.68 730.68
  C 315.06 741.69 302.22 771.20 311.67 799.23
  C 318.13 818.40 335.16 831.00 354.51 834.62"
/>
<path stroke="#727992" vector-effect="non-scaling-stroke" d="
  M 298.90 794.00
  L 297.13 780.24"
/>
<path stroke="#3f4762" vector-effect="non-scaling-stroke" d="
  M 297.13 780.24
  Q 296.90 765.93 303.77 752.97"
/>
<path stroke="#8c8480" vector-effect="non-scaling-stroke" d="
  M 895.52 295.74
  L 882.26 295.78
  A 0.52 0.52 0.0 0 0 881.74 296.30
  L 881.71 309.50"
/>
<path stroke="#4f4742" vector-effect="non-scaling-stroke" d="
  M 923.35 420.31
  Q 923.54 420.31 923.23 420.96"
/>
<path stroke="#625654" vector-effect="non-scaling-stroke" d="
  M 923.23 420.96
  Q 923.01 420.70 922.70 420.51
  Q 922.41 420.32 922.05 420.33
  Q 914.57 420.37 910.01 420.27
  A 0.68 0.67 -89.6 0 1 909.35 419.59
  L 909.35 393.16
  A 0.65 0.64 0.0 0 0 908.70 392.52
  L 896.53 392.52
  A 0.93 0.92 -90.0 0 1 895.61 391.59
  L 895.61 379.51
  A 0.73 0.73 0.0 0 0 894.88 378.78
  L 882.62 378.78
  A 0.92 0.92 0.0 0 1 881.70 377.86
  L 881.70 351.69
  A 0.52 0.51 0.0 0 0 881.18 351.18
  L 868.35 351.18
  A 0.55 0.55 0.0 0 1 867.80 350.63
  L 867.80 310.05
  A 0.49 0.49 0.0 0 0 867.31 309.56
  L 854.88 309.56
  A 0.88 0.87 -90.0 0 1 854.01 308.68
  L 854.01 281.77"
/>
<path stroke="#4f4742" vector-effect="non-scaling-stroke" d="
  M 854.01 281.77
  L 853.82 268.75
  A 0.53 0.53 0.0 0 0 853.29 268.23
  L 840.32 268.17"
/>
<path stroke="#625654" vector-effect="non-scaling-stroke" d="
  M 840.32 268.17
  L 688.73 268.25
  A 0.86 0.86 0.0 0 0 687.87 269.11
  L 687.87 281.19
  A 0.74 0.73 -0.0 0 1 687.13 281.92
  L 675.02 281.92
  A 0.89 0.88 -90.0 0 0 674.14 282.81
  L 674.14 309.13
  A 0.54 0.53 -0.0 0 1 673.60 309.66
  L 661.22 309.66
  A 0.96 0.95 -0.0 0 0 660.26 310.61
  L 660.26 336.97
  A 0.43 0.43 0.0 0 1 659.83 337.40
  L 647.64 337.40
  A 1.17 1.17 0.0 0 0 646.47 338.57
  L 646.47 350.63
  A 0.61 0.60 -90.0 0 1 645.87 351.24
  L 633.47 351.24
  A 0.87 0.87 0.0 0 0 632.60 352.11
  L 632.60 378.40
  A 0.41 0.41 0.0 0 1 632.19 378.81
  L 606.12 378.81
  A 1.27 1.27 0.0 0 0 604.85 380.08
  L 604.85 392.34
  A 0.39 0.39 0.0 0 1 604.46 392.73
  L 591.96 392.73
  A 0.76 0.76 0.0 0 0 591.20 393.49
  L 591.20 502.56
  A 0.90 0.90 0.0 0 0 592.10 503.46
  L 604.26 503.46
  A 0.71 0.71 0.0 0 1 604.97 504.17
  L 604.97 516.28
  A 1.01 1.01 0.0 0 0 605.98 517.29
  L 617.96 517.29
  A 0.83 0.82 -0.0 0 1 618.79 518.11
  L 618.79 543.96
  A 0.87 0.87 0.0 0 0 619.66 544.83
  L 632.05 544.83
  A 0.61 0.61 0.0 0 1 632.66 545.44
  L 632.66 557.93
  A 0.80 0.79 -90.0 0 0 633.45 558.73
  L 645.48 558.73
  A 1.02 1.02 0.0 0 1 646.50 559.75
  L 646.50 571.42
  A 1.23 1.22 -90.0 0 0 647.72 572.65
  L 659.24 572.65
  A 1.10 1.09 0.0 0 1 660.34 573.74
  L 660.34 585.25
  A 1.16 1.16 0.0 0 0 661.50 586.41
  L 673.12 586.41
  A 1.09 1.08 -0.0 0 1 674.21 587.49
  L 674.21 599.41
  A 0.91 0.90 -90.0 0 0 675.11 600.32
  L 770.67 600.32
  A 0.50 0.49 -90.0 0 0 771.16 599.82
  L 771.16 587.14
  A 0.61 0.61 0.0 0 0 770.55 586.53
  L 730.49 586.53
  A 0.95 0.95 0.0 0 1 729.54 585.58
  L 729.54 573.11
  A 0.54 0.53 -0.0 0 0 729.00 572.58
  L 716.34 572.58
  A 0.67 0.67 0.0 0 1 715.67 571.91
  L 715.67 559.54
  A 0.90 0.90 0.0 0 1 716.57 558.64
  L 729.55 558.62"
/>
<path stroke="#7f6759" vector-effect="non-scaling-stroke" d="
  M 729.55 558.62
  L 742.71 558.65
  A 0.71 0.70 -0.0 0 1 743.42 559.35
  L 743.42 572.13
  A 0.44 0.44 0.0 0 0 743.86 572.57
  L 770.51 572.57
  A 0.64 0.63 0.0 0 1 771.15 573.20
  L 771.15 585.81
  A 0.55 0.55 0.0 0 0 771.70 586.36
  L 784.82 586.39"
/>
<path stroke="#625654" vector-effect="non-scaling-stroke" d="
  M 784.82 586.39
  L 784.82 599.61
  A 0.69 0.69 0.0 0 0 785.51 600.29
  L 825.83 600.29
  A 0.62 0.62 0.0 0 0 826.45 599.67
  L 826.45 587.33
  A 0.91 0.90 -0.0 0 1 827.36 586.43
  Q 840.62 586.44 852.88 586.36
  Q 854.10 586.36 854.17 585.22"
/>
<path stroke="#4f4742" vector-effect="non-scaling-stroke" d="
  M 854.17 585.22
  L 854.17 585.69
  A 0.63 0.63 0.0 0 0 854.75 586.32
  L 855.29 586.37"
/>
<path stroke="#8c8480" vector-effect="non-scaling-stroke" d="
  M 855.29 586.37
  L 854.84 586.39
  A 0.68 0.68 0.0 0 0 854.18 587.07
  L 854.18 599.68
  A 0.59 0.58 0.0 0 1 853.59 600.26
  L 840.90 600.26
  A 0.58 0.57 -90.0 0 0 840.33 600.84
  L 840.33 613.60
  A 0.55 0.55 0.0 0 1 839.78 614.15
  L 784.96 614.18"
/>
<path stroke="#423937" vector-effect="non-scaling-stroke" d="
  M 784.96 614.18
  L 715.74 614.22"
/>
<path stroke="#595251" vector-effect="non-scaling-stroke" d="
  M 715.74 614.22
  Q 711.56 614.41 707.24 614.38
  Q 674.10 614.15 669.39 614.12
  Q 665.47 614.10 661.52 613.67
  A 1.00 1.00 0.0 0 1 660.63 612.72
  L 660.08 601.83
  A 1.58 1.58 0.0 0 0 658.50 600.33
  L 648.77 600.33
  A 1.87 1.87 0.0 0 1 646.90 598.55
  L 646.38 588.26
  A 1.48 1.47 -89.3 0 0 645.03 586.87
  L 633.95 585.96
  A 1.06 1.06 0.0 0 1 632.98 584.96
  L 632.42 573.83
  A 1.23 1.22 88.5 0 0 631.20 572.66
  L 620.59 572.66
  A 1.48 1.47 -1.4 0 1 619.11 571.26
  L 618.52 559.60
  A 0.85 0.84 -1.4 0 0 617.67 558.80
  L 606.45 558.80
  A 1.18 1.18 0.0 0 1 605.27 557.67
  L 604.67 545.77
  A 0.85 0.84 -1.4 0 0 603.82 544.97
  L 592.58 544.97
  A 1.41 1.40 90.0 0 1 591.18 543.56
  L 591.18 518.50
  A 1.19 1.18 0.0 0 0 589.99 517.32
  L 578.61 517.32
  A 1.13 1.12 89.7 0 1 577.49 516.20
  L 577.20 434.46"
/>
<path stroke="#7f6759" vector-effect="non-scaling-stroke" d="
  M 633.04 309.63
  L 645.97 309.63
  A 0.54 0.54 0.0 0 0 646.51 309.09
  L 646.51 282.37
  A 0.46 0.46 0.0 0 1 646.97 281.91
  L 659.71 281.91
  A 0.59 0.59 0.0 0 0 660.30 281.32
  L 660.30 254.88
  A 0.56 0.56 0.0 0 0 659.74 254.32
  L 647.02 254.32
  A 0.59 0.59 0.0 0 1 646.43 253.73
  L 646.43 241.08
  A 0.55 0.55 0.0 0 0 645.87 240.53
  L 632.62 240.89"
/>
<path stroke="#928d87" vector-effect="non-scaling-stroke" d="
  M 698.87 780.26
  L 671.54 780.28"
/>
<path stroke="#ddd7cd" vector-effect="non-scaling-stroke" d="
  M 692.77 794.27
  L 684.58 793.99"
/>
<path stroke="#8f7049" vector-effect="non-scaling-stroke" d="
  M 224.77 728.41
  L 203.14 728.50
  A 0.72 0.71 9.0 0 0 202.46 728.99
  L 183.79 787.33
  A 0.29 0.29 0.0 0 1 183.23 787.33
  L 177.66 768.96"
/>
<path stroke="#727992" vector-effect="non-scaling-stroke" d="
  M 217.42 726.81
  Q 218.24 726.00 217.35 726.73
  A 1.46 1.41 24.1 0 1 216.47 727.05
  L 204.19 727.10"
/>
<path stroke="#9a918a" vector-effect="non-scaling-stroke" d="
  M 798.71 766.30
  L 784.96 766.29"
/>
<path stroke="#7b746d" vector-effect="non-scaling-stroke" d="
  M 784.94 627.80
  L 784.96 614.18"
/>
<path stroke="#b88842" vector-effect="non-scaling-stroke" d="
  M 784.56 765.54
  L 784.96 766.29"
/>
<path stroke="#e2b66e" vector-effect="non-scaling-stroke" d="
  M 784.96 766.29
  L 791.03 780.21"
/>
<path stroke="#8f7049" vector-effect="non-scaling-stroke" d="
  M 777.11 832.18
  L 770.85 815.79
  A 0.73 0.73 0.0 0 0 770.17 815.32
  L 759.72 815.32"
/>
<path stroke="#8f7049" vector-effect="non-scaling-stroke" d="
  M 807.14 728.58
  Q 807.20 728.39 807.01 728.57
  A 0.41 0.38 -24.2 0 0 806.89 728.85
  L 806.77 755.55"
/>
<path stroke="#484a66" vector-effect="non-scaling-stroke" d="
  M 798.76 754.92
  Q 797.46 754.60 795.93 754.78
  A 0.50 0.50 0.0 0 1 795.37 754.34
  L 795.18 752.44"
/>
<path stroke="#af843e" vector-effect="non-scaling-stroke" d="
  M 154.34 728.06
  Q 141.60 729.14 129.25 728.40"
/>
<path stroke="#3f4762" vector-effect="non-scaling-stroke" d="
  M 129.25 728.40
  L 128.50 727.38"
/>
<path stroke="#8f7049" vector-effect="non-scaling-stroke" d="
  M 129.25 728.40
  Q 128.70 728.57 128.84 728.99
  Q 145.34 780.61 161.84 832.23"
/>
<path stroke="#8f7049" vector-effect="non-scaling-stroke" d="
  M 458.45 728.54
  L 440.58 728.47
  A 0.49 0.49 0.0 0 0 440.09 728.96
  L 439.77 832.22"
/>
<path stroke="#727992" vector-effect="non-scaling-stroke" d="
  M 428.55 780.21
  L 428.55 766.46"
/>
<path stroke="#484a66" vector-effect="non-scaling-stroke" d="
  M 428.55 766.46
  L 428.61 752.54"
/>
<path stroke="#9a918a" vector-effect="non-scaling-stroke" d="
  M 428.55 766.46
  L 425.26 766.49"
/>
<path stroke="#b88842" vector-effect="non-scaling-stroke" d="
  M 424.80 764.43
  Q 424.71 765.13 425.26 766.49"
/>
<path stroke="#e2b66e" vector-effect="non-scaling-stroke" d="
  M 425.26 766.49
  Q 426.93 773.31 427.14 780.26"
/>
<path stroke="#5d544c" vector-effect="non-scaling-stroke" d="
  M 840.32 268.17
  L 840.35 281.21
  A 0.53 0.52 89.4 0 0 840.87 281.73
  L 854.01 281.77"
/>
<path stroke="#5d544c" vector-effect="non-scaling-stroke" d="
  M 923.23 420.96
  L 923.30 434.21"
/>
<path stroke="#685f5b" vector-effect="non-scaling-stroke" d="
  M 923.30 434.21
  L 910.44 434.40
  A 0.75 0.75 0.0 0 0 909.70 435.08
  Q 909.15 441.16 910.56 446.92
  A 0.88 0.88 0.0 0 0 911.40 447.59
  L 923.28 447.75"
/>
<path stroke="#5d544c" vector-effect="non-scaling-stroke" d="
  M 923.28 447.75
  L 935.85 447.91
  A 1.35 1.35 0.0 0 1 937.19 449.26
  L 937.19 475.04
  A 0.59 0.58 0.0 0 1 936.60 475.62
  L 923.89 475.62
  A 0.56 0.56 0.0 0 0 923.33 476.18
  L 923.33 516.86
  A 0.35 0.35 0.0 0 1 922.98 517.21
  L 910.03 517.21
  A 0.54 0.54 0.0 0 0 909.49 517.75
  L 909.49 530.41
  A 0.55 0.55 0.0 0 1 908.94 530.96
  L 896.34 530.96
  A 0.74 0.73 90.0 0 0 895.61 531.70
  L 895.61 544.22
  A 0.57 0.57 0.0 0 1 895.04 544.79
  L 868.49 544.79
  A 0.59 0.58 -0.0 0 0 867.90 545.37
  L 867.90 571.68
  A 0.85 0.85 0.0 0 1 867.05 572.53
  L 854.82 572.53
  A 0.57 0.56 -89.5 0 0 854.26 573.09
  L 854.17 585.22"
/>
<path stroke="#8e7363" vector-effect="non-scaling-stroke" d="
  M 784.82 586.39
  Q 784.47 586.53 784.90 586.15"
/>
<path stroke="#625654" vector-effect="non-scaling-stroke" d="
  M 784.90 586.15
  L 812.27 586.38
  A 0.34 0.34 0.0 0 0 812.61 586.04
  L 812.61 573.13
  A 0.57 0.56 0.0 0 1 813.18 572.57
  L 839.82 572.57
  A 0.52 0.51 90.0 0 0 840.33 572.05
  L 840.33 559.27
  A 0.60 0.60 0.0 0 1 840.93 558.67
  L 853.57 558.67
  A 0.62 0.62 0.0 0 0 854.19 558.05
  L 854.19 545.50
  A 0.70 0.69 89.6 0 0 853.49 544.80
  L 826.45 545.10"
/>
<path stroke="#8e7363" vector-effect="non-scaling-stroke" d="
  M 826.45 545.10
  L 812.58 544.88"
/>
<path stroke="#5d544c" vector-effect="non-scaling-stroke" d="
  M 812.58 544.88
  L 812.27 531.10"
/>
<path stroke="#9a918a" vector-effect="non-scaling-stroke" d="
  M 812.27 531.10
  L 812.56 503.96
  A 0.58 0.58 0.0 0 0 811.98 503.37
  L 799.28 503.37
  A 0.58 0.57 0.0 0 1 798.70 502.80
  L 798.70 490.12
  A 0.60 0.59 0.0 0 0 798.10 489.53
  L 757.86 489.53
  A 0.59 0.59 0.0 0 0 757.27 490.12
  L 757.27 502.80
  A 0.59 0.59 0.0 0 1 756.68 503.39
  L 744.06 503.39
  A 0.60 0.59 90.0 0 0 743.47 503.99
  L 743.45 531.03"
/>
<path stroke="#5d544c" vector-effect="non-scaling-stroke" d="
  M 743.45 531.03
  L 743.43 544.94"
/>
<path stroke="#8e7363" vector-effect="non-scaling-stroke" d="
  M 743.43 544.94
  L 729.91 544.86
  A 0.35 0.35 0.0 0 0 729.55 545.22
  L 729.55 558.62"
/>
<path stroke="#878278" vector-effect="non-scaling-stroke" d="
  M 950.92 489.53
  L 937.79 489.61
  A 0.52 0.51 0.0 0 0 937.27 490.12
  L 937.22 503.22"
/>
<path stroke="#878278" vector-effect="non-scaling-stroke" d="
  M 937.19 531.11
  L 923.89 531.11
  A 0.56 0.56 0.0 0 0 923.33 531.67
  L 923.33 544.15
  A 0.64 0.64 0.0 0 1 922.69 544.79
  L 910.05 544.79
  A 0.59 0.59 0.0 0 0 909.46 545.38
  L 909.46 558.03
  A 0.64 0.63 -0.0 0 1 908.82 558.66
  L 882.34 558.66
  A 0.59 0.58 -90.0 0 0 881.76 559.25
  L 881.76 571.63
  A 0.89 0.89 0.0 0 1 880.87 572.52
  L 868.48 572.52
  A 0.53 0.53 0.0 0 0 867.95 573.05
  L 867.95 585.65
  A 0.61 0.61 0.0 0 1 867.34 586.26
  L 855.29 586.37"
/>
<path stroke="#555049" vector-effect="non-scaling-stroke" d="
  M 923.28 447.75
  L 923.30 434.21"
/>
<path stroke="#564234" vector-effect="non-scaling-stroke" d="
  M 757.28 558.63
  L 771.05 558.67"
/>
<path stroke="#564234" vector-effect="non-scaling-stroke" d="
  M 784.90 558.67
  L 798.71 558.66"
/>
<path stroke="#7f6759" vector-effect="non-scaling-stroke" d="
  M 826.45 545.10
  L 826.44 558.10
  A 0.58 0.58 0.0 0 1 825.86 558.68
  L 813.20 558.68
  A 0.61 0.61 0.0 0 0 812.59 559.29
  L 812.59 572.14
  A 0.42 0.42 0.0 0 1 812.17 572.56
  L 785.51 572.56
  A 0.58 0.58 0.0 0 0 784.93 573.14
  L 784.90 586.15"
/>
<path stroke="#8f7049" vector-effect="non-scaling-stroke" d="
  M 837.07 832.23
  Q 837.32 832.23 837.48 832.06
  A 0.32 0.31 68.1 0 0 837.57 831.84
  L 837.57 756.63
  A 0.53 0.52 -89.4 0 0 837.06 756.10
  L 826.07 755.95"
/>
<path stroke="#af843e" vector-effect="non-scaling-stroke" d="
  M 892.22 728.21
  L 807.14 728.58"
/>
<path stroke="#3f4762" vector-effect="non-scaling-stroke" d="
  M 807.14 728.58
  L 806.77 727.11"
/>
<path stroke="#8f7049" vector-effect="non-scaling-stroke" d="
  M 533.76 832.21
  L 533.55 786.55
  A 0.24 0.23 59.9 0 0 533.11 786.43
  L 522.15 805.53"
/>
<path stroke="#8f7049" vector-effect="non-scaling-stroke" d="
  M 494.61 823.31
  L 472.68 787.88
  A 0.17 0.17 0.0 0 0 472.36 787.97
  L 472.39 804.77"
/>
<path stroke="#7b6551" vector-effect="non-scaling-stroke" d="
  M 812.58 544.88
  L 812.59 558.22
  A 0.44 0.43 90.0 0 1 812.16 558.66
  L 798.71 558.66"
/>
<path stroke="#25231d" vector-effect="non-scaling-stroke" d="
  M 798.71 558.66
  L 798.70 544.87"
/>
<path stroke="#878278" vector-effect="non-scaling-stroke" d="
  M 812.27 531.10
  L 799.32 531.20
  A 0.52 0.52 0.0 0 0 798.80 531.71
  L 798.70 544.87"
/>
<path stroke="#62605b" vector-effect="non-scaling-stroke" d="
  M 798.70 544.87
  L 784.92 544.85"
/>
<path stroke="#878278" vector-effect="non-scaling-stroke" d="
  M 784.92 544.85
  L 784.86 531.50
  A 0.43 0.42 0.0 0 1 785.29 531.08
  L 798.05 531.08
  A 0.66 0.65 0.0 0 0 798.71 530.43
  L 798.71 504.00
  A 0.62 0.62 0.0 0 0 798.09 503.38
  L 757.88 503.38
  A 0.61 0.60 -90.0 0 0 757.28 503.99
  L 757.28 530.49
  A 0.53 0.53 0.0 0 1 756.75 531.02
  L 743.45 531.03"
/>
<path stroke="#25231d" vector-effect="non-scaling-stroke" d="
  M 784.92 544.85
  L 784.90 558.67"
/>
<path stroke="#7b6551" vector-effect="non-scaling-stroke" d="
  M 784.90 558.67
  L 771.05 558.67"
/>
<path stroke="#25231d" vector-effect="non-scaling-stroke" d="
  M 771.05 558.67
  L 771.02 544.84"
/>
<path stroke="#878278" vector-effect="non-scaling-stroke" d="
  M 771.02 544.84
  L 771.08 531.46
  A 0.39 0.39 0.0 0 0 770.69 531.07
  L 757.98 531.07
  A 0.61 0.61 0.0 0 0 757.37 531.68
  L 757.36 544.85"
/>
<path stroke="#25231d" vector-effect="non-scaling-stroke" d="
  M 757.36 544.85
  L 757.28 558.63"
/>
<path stroke="#7b6551" vector-effect="non-scaling-stroke" d="
  M 757.28 558.63
  L 744.02 558.64
  A 0.52 0.52 0.0 0 1 743.50 558.12
  L 743.43 544.94"
/>
<path stroke="#8f7049" vector-effect="non-scaling-stroke" d="
  M 554.43 728.45
  L 537.31 728.46
  A 1.10 1.08 -74.2 0 0 536.38 728.99
  L 503.63 784.06
  A 0.25 0.24 -45.7 0 1 503.21 784.07
  L 497.16 774.28"
/>
<path stroke="#62605b" vector-effect="non-scaling-stroke" d="
  M 771.02 544.84
  L 757.36 544.85"
/>
</g>
<path fill="#70625e" d="
  M 632.57 268.18
  L 632.60 308.96
  A 0.69 0.67 29.1 0 0 632.71 309.33
  Q 632.85 309.55 633.04 309.63
  Q 632.55 310.25 632.56 311.01
  Q 632.66 332.61 632.57 336.37
  A 0.99 0.98 0.6 0 1 631.58 337.33
  L 605.41 337.33
  A 0.57 0.56 90.0 0 0 604.85 337.90
  L 604.85 350.60
  A 0.65 0.64 -0.0 0 1 604.20 351.24
  L 591.82 351.24
  A 0.66 0.65 90.0 0 0 591.17 351.90
  L 591.17 364.42
  A 0.65 0.65 0.0 0 1 590.52 365.07
  L 577.81 365.07
  A 0.58 0.58 0.0 0 0 577.23 365.65
  L 577.20 434.46
  L 564.16 434.33
  A 0.72 0.71 -89.6 0 0 563.44 435.05
  L 563.44 530.21
  A 0.94 0.94 0.0 0 0 564.38 531.15
  L 576.48 531.15
  A 0.81 0.81 0.0 0 1 577.29 531.96
  L 577.29 557.52
  A 1.20 1.20 0.0 0 0 578.49 558.72
  L 590.10 558.72
  A 0.91 0.90 88.3 0 1 591.00 559.58
  L 591.60 571.59
  A 1.03 1.03 0.0 0 0 592.63 572.57
  L 604.11 572.57
  A 0.88 0.88 0.0 0 1 604.99 573.45
  L 604.99 585.38
  A 1.08 1.07 0.0 0 0 606.07 586.45
  L 617.60 586.45
  A 0.93 0.93 0.0 0 1 618.53 587.33
  L 619.13 599.33
  A 1.05 1.05 0.0 0 0 620.18 600.33
  L 631.38 600.33
  A 0.98 0.98 0.0 0 1 632.36 601.26
  L 632.94 612.86
  A 1.30 1.29 -1.4 0 0 634.24 614.09
  L 645.44 614.09
  A 1.08 1.08 0.0 0 1 646.52 615.17
  L 646.52 626.24
  A 1.35 1.35 0.0 0 0 647.86 627.59
  L 715.69 628.21
  L 715.66 655.08
  A 0.53 0.52 90.0 0 1 715.14 655.61
  L 702.29 655.61
  A 0.44 0.44 0.0 0 0 701.85 656.05
  L 701.85 710.27
  A 0.70 0.70 0.0 0 0 702.55 710.97
  L 715.31 710.97
  A 0.42 0.42 0.0 0 1 715.73 711.39
  L 715.73 724.34
  A 0.44 0.43 90.0 0 0 716.16 724.78
  L 728.91 724.78
  A 0.67 0.67 0.0 0 1 729.57 725.33
  Q 729.72 726.17 729.41 727.50
  L 722.68 727.33
  A 0.77 0.76 -77.0 0 0 721.95 727.79
  L 704.73 766.99
  C 696.57 765.89 687.96 766.38 679.66 766.19
  C 684.81 753.40 679.81 739.88 667.28 733.97
  Q 656.74 729.01 644.99 728.87
  Q 638.49 728.79 631.96 728.62
  L 633.31 728.13
  A 0.53 0.53 0.0 0 0 633.13 727.11
  L 591.23 727.00
  Q 591.56 725.22 590.47 724.86
  C 591.91 716.39 591.32 707.11 591.28 697.95
  A 0.79 0.79 0.0 0 0 590.49 697.16
  L 578.81 697.16
  A 1.43 1.43 0.0 0 1 577.38 695.73
  L 577.38 670.68
  A 1.17 1.16 0.0 0 0 576.21 669.52
  L 565.70 669.52
  A 2.18 2.18 0.0 0 1 563.52 667.34
  L 563.52 656.49
  A 0.57 0.57 0.0 0 1 564.06 655.92
  L 576.15 655.32
  A 1.19 1.19 0.0 0 0 577.28 654.13
  L 577.28 643.10
  A 1.38 1.37 -0.0 0 0 575.90 641.73
  L 564.41 641.73
  A 0.83 0.82 90.0 0 1 563.59 640.90
  L 563.59 629.17
  A 0.97 0.97 0.0 0 1 564.51 628.20
  L 576.50 627.60
  A 0.80 0.80 0.0 0 0 577.26 626.80
  L 577.26 615.18
  A 1.05 1.05 0.0 0 0 576.21 614.13
  L 564.81 614.13
  A 1.13 1.13 0.0 0 1 563.68 613.06
  L 563.11 601.60
  A 1.19 1.19 0.0 0 0 561.92 600.47
  L 551.39 600.47
  A 1.48 1.47 -1.4 0 1 549.91 599.07
  L 549.31 587.18
  A 0.65 0.65 0.0 0 0 548.66 586.56
  L 536.81 586.56
  A 1.08 1.08 0.0 0 0 535.73 587.64
  L 535.73 599.38
  A 0.71 0.71 0.0 0 1 535.06 600.09
  L 522.75 600.71
  A 0.91 0.91 0.0 0 0 521.88 601.62
  L 521.88 612.91
  A 1.25 1.25 0.0 0 1 520.63 614.16
  L 509.20 614.16
  A 1.04 1.03 -90.0 0 1 508.17 613.12
  L 508.17 601.42
  A 0.96 0.96 0.0 0 0 507.21 600.46
  L 495.53 600.46
  A 1.25 1.25 0.0 0 0 494.28 601.71
  L 494.28 612.93
  A 1.16 1.16 0.0 0 1 493.12 614.09
  L 481.64 614.09
  A 1.14 1.14 0.0 0 1 480.50 612.95
  L 480.50 601.25
  A 0.75 0.75 0.0 0 0 479.75 600.50
  L 467.39 600.50
  A 0.87 0.87 0.0 0 0 466.52 601.37
  L 466.52 612.95
  A 1.20 1.19 -90.0 0 1 465.33 614.15
  L 453.95 614.15
  A 1.21 1.20 90.0 0 1 452.75 612.94
  L 452.75 601.33
  A 0.87 0.86 90.0 0 0 451.89 600.46
  L 439.82 600.46
  A 1.04 1.03 90.0 0 0 438.79 601.50
  L 438.79 613.07
  A 1.11 1.11 0.0 0 1 437.68 614.18
  L 426.35 614.18
  A 1.13 1.13 0.0 0 1 425.22 613.05
  L 425.22 601.32
  A 0.89 0.89 0.0 0 0 424.33 600.43
  L 412.46 600.43
  A 1.23 1.23 0.0 0 0 411.23 601.66
  L 411.23 613.30
  A 0.66 0.66 0.0 0 1 410.57 613.96
  L 398.60 613.96
  A 1.18 1.17 -90.0 0 1 397.43 612.78
  L 397.43 601.24
  A 0.76 0.76 0.0 0 0 396.67 600.48
  L 384.71 600.48
  A 1.19 1.19 0.0 0 0 383.52 601.67
  L 383.52 612.88
  A 1.31 1.31 0.0 0 1 382.21 614.19
  L 370.44 614.19
  A 0.74 0.73 -90.0 0 1 369.71 613.45
  L 369.71 601.24
  A 0.78 0.78 0.0 0 0 368.93 600.46
  L 356.84 600.46
  A 0.68 0.68 0.0 0 1 356.16 599.81
  L 355.53 587.18
  A 0.68 0.67 88.2 0 0 354.86 586.54
  L 343.16 586.54
  A 0.99 0.99 0.0 0 1 342.17 585.55
  L 342.17 573.59
  A 0.91 0.91 0.0 0 0 341.26 572.68
  L 315.41 572.68
  A 1.00 1.00 0.0 0 1 314.41 571.68
  L 314.41 559.61
  A 0.83 0.83 0.0 0 0 313.58 558.78
  L 301.53 558.78
  A 0.94 0.94 0.0 0 1 300.59 557.84
  L 300.59 546.01
  A 0.82 0.82 0.0 0 0 299.77 545.19
  L 287.61 545.19
  A 0.82 0.81 0.0 0 0 286.79 546.00
  L 286.70 572.76
  L 286.81 585.94
  A 0.53 0.52 89.4 0 0 287.33 586.46
  L 299.45 586.53
  L 300.55 586.95
  L 300.56 613.62
  A 0.67 0.66 -90.0 0 0 301.22 614.29
  L 313.86 614.29
  A 0.54 0.54 0.0 0 1 314.40 614.83
  L 314.40 627.81
  A 0.34 0.33 -0.0 0 0 314.74 628.14
  L 327.86 628.14
  A 0.41 0.40 -90.0 0 1 328.26 628.55
  L 328.26 641.30
  A 0.56 0.56 0.0 0 0 328.82 641.86
  L 341.71 641.86
  A 0.39 0.39 0.0 0 1 342.10 642.24
  L 342.13 726.20
  Q 316.77 731.34 303.77 752.97
  L 299.06 752.03
  L 306.45 728.93
  A 0.32 0.32 0.0 0 0 306.12 728.51
  Q 300.22 728.95 295.26 727.82
  Q 278.57 726.49 261.96 727.27
  A 0.71 0.71 0.0 0 0 261.31 727.77
  L 253.21 752.97
  L 242.66 752.73
  L 235.48 729.09
  A 0.72 0.72 0.0 0 0 234.82 728.58
  L 231.54 728.46
  L 231.42 726.16
  A 0.62 0.62 0.0 0 0 230.86 725.58
  L 218.29 724.56
  A 0.80 0.80 0.0 0 1 217.56 723.76
  L 217.56 629.06
  A 0.82 0.82 0.0 0 0 216.74 628.24
  L 204.53 628.24
  A 0.92 0.91 0.0 0 1 203.61 627.33
  L 203.61 601.36
  A 0.85 0.85 0.0 0 0 202.76 600.51
  L 190.38 600.51
  A 0.64 0.64 0.0 0 1 189.74 599.87
  L 189.74 587.29
  A 0.69 0.69 0.0 0 0 189.05 586.60
  L 176.60 586.60
  A 0.74 0.74 0.0 0 1 175.86 585.86
  L 175.86 573.36
  A 0.65 0.65 0.0 0 0 175.21 572.71
  L 162.82 572.71
  A 0.63 0.63 0.0 0 1 162.19 572.08
  L 162.19 531.93
  A 0.68 0.68 0.0 0 0 161.51 531.25
  L 149.26 531.25
  A 0.91 0.90 -0.0 0 1 148.35 530.35
  L 148.35 518.11
  A 0.69 0.69 0.0 0 0 147.65 517.42
  L 134.45 517.55
  L 134.44 448.80
  A 0.55 0.55 0.0 0 1 134.99 448.25
  L 147.70 448.25
  A 0.58 0.58 0.0 0 0 148.28 447.67
  L 148.28 407.09
  A 0.43 0.43 0.0 0 1 148.71 406.66
  L 161.76 406.66
  A 0.36 0.35 0.0 0 0 162.12 406.31
  L 162.12 379.47
  A 0.48 0.48 0.0 0 1 162.60 378.99
  L 175.47 378.99
  A 0.37 0.36 0.0 0 0 175.84 378.63
  L 175.84 365.59
  A 0.39 0.38 0.0 0 1 176.23 365.21
  L 189.16 365.21
  A 0.54 0.54 0.0 0 0 189.70 364.67
  L 189.70 351.90
  A 0.55 0.54 90.0 0 1 190.24 351.35
  L 203.12 351.35
  A 0.47 0.47 0.0 0 0 203.59 350.88
  L 203.59 337.88
  A 0.38 0.38 0.0 0 1 203.97 337.50
  L 216.80 337.50
  A 0.63 0.63 0.0 0 0 217.43 336.87
  L 217.43 323.99
  A 0.36 0.36 0.0 0 1 217.79 323.63
  L 230.87 323.63
  A 0.42 0.42 0.0 0 0 231.29 323.21
  L 231.29 310.38
  A 0.57 0.57 0.0 0 1 231.86 309.81
  L 244.86 309.78
  L 245.11 322.47
  A 1.11 1.11 0.0 0 0 246.22 323.56
  L 258.47 323.56
  A 0.43 0.43 0.0 0 0 258.90 323.13
  L 258.90 310.34
  A 0.70 0.69 -0.0 0 0 258.20 309.65
  L 245.13 309.74
  L 245.14 296.43
  A 0.55 0.54 0.0 0 1 245.69 295.89
  L 258.26 295.89
  A 0.60 0.59 -90.0 0 0 258.85 295.29
  L 258.85 282.75
  A 0.61 0.60 -0.0 0 1 259.46 282.15
  L 286.00 282.15
  A 0.59 0.59 0.0 0 0 286.59 281.56
  L 286.59 268.82
  A 0.53 0.53 0.0 0 1 287.12 268.29
  L 299.88 268.29
  A 0.57 0.57 0.0 0 0 300.45 267.72
  L 300.45 254.83
  A 0.42 0.41 -90.0 0 1 300.86 254.41
  L 327.78 254.41
  A 0.37 0.37 0.0 0 0 328.15 254.04
  L 328.15 241.08
  A 0.53 0.53 0.0 0 1 328.68 240.55
  L 355.15 240.55
  A 0.59 0.59 0.0 0 0 355.74 239.96
  L 355.74 227.23
  A 0.57 0.57 0.0 0 1 356.31 226.66
  L 535.24 226.66
  A 0.43 0.43 0.0 0 1 535.67 227.09
  L 535.67 240.03
  A 0.46 0.46 0.0 0 0 536.13 240.49
  L 562.92 240.49
  A 0.46 0.46 0.0 0 1 563.38 240.95
  L 563.38 253.61
  A 0.72 0.72 0.0 0 0 564.10 254.33
  L 618.12 254.33
  A 0.58 0.58 0.0 0 1 618.70 254.91
  L 618.70 267.55
  A 0.61 0.61 0.0 0 0 619.31 268.16
  L 632.57 268.18
  Z"
/>
<path fill="#53494a" d="
  M 895.52 295.74
  L 882.26 295.78
  A 0.52 0.52 0.0 0 0 881.74 296.30
  L 881.71 309.50
  L 881.73 336.74
  A 0.55 0.55 0.0 0 0 882.28 337.29
  L 895.00 337.29
  A 0.57 0.57 0.0 0 1 895.57 337.86
  L 895.57 364.21
  A 0.65 0.65 0.0 0 0 896.22 364.86
  L 908.89 364.86
  A 0.55 0.54 90.0 0 1 909.43 365.41
  L 909.43 378.14
  A 0.59 0.58 0.0 0 0 910.02 378.72
  L 922.86 378.72
  A 0.48 0.48 0.0 0 1 923.34 379.20
  L 923.35 420.31
  Q 923.54 420.31 923.23 420.96
  Q 923.01 420.70 922.70 420.51
  Q 922.41 420.32 922.05 420.33
  Q 914.57 420.37 910.01 420.27
  A 0.68 0.67 -89.6 0 1 909.35 419.59
  L 909.35 393.16
  A 0.65 0.64 0.0 0 0 908.70 392.52
  L 896.53 392.52
  A 0.93 0.92 -90.0 0 1 895.61 391.59
  L 895.61 379.51
  A 0.73 0.73 0.0 0 0 894.88 378.78
  L 882.62 378.78
  A 0.92 0.92 0.0 0 1 881.70 377.86
  L 881.70 351.69
  A 0.52 0.51 0.0 0 0 881.18 351.18
  L 868.35 351.18
  A 0.55 0.55 0.0 0 1 867.80 350.63
  L 867.80 310.05
  A 0.49 0.49 0.0 0 0 867.31 309.56
  L 854.88 309.56
  A 0.88 0.87 -90.0 0 1 854.01 308.68
  L 854.01 281.77
  L 853.82 268.75
  A 0.53 0.53 0.0 0 0 853.29 268.23
  L 840.32 268.17
  L 688.73 268.25
  A 0.86 0.86 0.0 0 0 687.87 269.11
  L 687.87 281.19
  A 0.74 0.73 -0.0 0 1 687.13 281.92
  L 675.02 281.92
  A 0.89 0.88 -90.0 0 0 674.14 282.81
  L 674.14 309.13
  A 0.54 0.53 -0.0 0 1 673.60 309.66
  L 661.22 309.66
  A 0.96 0.95 -0.0 0 0 660.26 310.61
  L 660.26 336.97
  A 0.43 0.43 0.0 0 1 659.83 337.40
  L 647.64 337.40
  A 1.17 1.17 0.0 0 0 646.47 338.57
  L 646.47 350.63
  A 0.61 0.60 -90.0 0 1 645.87 351.24
  L 633.47 351.24
  A 0.87 0.87 0.0 0 0 632.60 352.11
  L 632.60 378.40
  A 0.41 0.41 0.0 0 1 632.19 378.81
  L 606.12 378.81
  A 1.27 1.27 0.0 0 0 604.85 380.08
  L 604.85 392.34
  A 0.39 0.39 0.0 0 1 604.46 392.73
  L 591.96 392.73
  A 0.76 0.76 0.0 0 0 591.20 393.49
  L 591.20 502.56
  A 0.90 0.90 0.0 0 0 592.10 503.46
  L 604.26 503.46
  A 0.71 0.71 0.0 0 1 604.97 504.17
  L 604.97 516.28
  A 1.01 1.01 0.0 0 0 605.98 517.29
  L 617.96 517.29
  A 0.83 0.82 -0.0 0 1 618.79 518.11
  L 618.79 543.96
  A 0.87 0.87 0.0 0 0 619.66 544.83
  L 632.05 544.83
  A 0.61 0.61 0.0 0 1 632.66 545.44
  L 632.66 557.93
  A 0.80 0.79 -90.0 0 0 633.45 558.73
  L 645.48 558.73
  A 1.02 1.02 0.0 0 1 646.50 559.75
  L 646.50 571.42
  A 1.23 1.22 -90.0 0 0 647.72 572.65
  L 659.24 572.65
  A 1.10 1.09 0.0 0 1 660.34 573.74
  L 660.34 585.25
  A 1.16 1.16 0.0 0 0 661.50 586.41
  L 673.12 586.41
  A 1.09 1.08 -0.0 0 1 674.21 587.49
  L 674.21 599.41
  A 0.91 0.90 -90.0 0 0 675.11 600.32
  L 770.67 600.32
  A 0.50 0.49 -90.0 0 0 771.16 599.82
  L 771.16 587.14
  A 0.61 0.61 0.0 0 0 770.55 586.53
  L 730.49 586.53
  A 0.95 0.95 0.0 0 1 729.54 585.58
  L 729.54 573.11
  A 0.54 0.53 -0.0 0 0 729.00 572.58
  L 716.34 572.58
  A 0.67 0.67 0.0 0 1 715.67 571.91
  L 715.67 559.54
  A 0.90 0.90 0.0 0 1 716.57 558.64
  L 729.55 558.62
  L 742.71 558.65
  A 0.71 0.70 -0.0 0 1 743.42 559.35
  L 743.42 572.13
  A 0.44 0.44 0.0 0 0 743.86 572.57
  L 770.51 572.57
  A 0.64 0.63 0.0 0 1 771.15 573.20
  L 771.15 585.81
  A 0.55 0.55 0.0 0 0 771.70 586.36
  L 784.82 586.39
  L 784.82 599.61
  A 0.69 0.69 0.0 0 0 785.51 600.29
  L 825.83 600.29
  A 0.62 0.62 0.0 0 0 826.45 599.67
  L 826.45 587.33
  A 0.91 0.90 -0.0 0 1 827.36 586.43
  Q 840.62 586.44 852.88 586.36
  Q 854.10 586.36 854.17 585.22
  L 854.17 585.69
  A 0.63 0.63 0.0 0 0 854.75 586.32
  L 855.29 586.37
  L 854.84 586.39
  A 0.68 0.68 0.0 0 0 854.18 587.07
  L 854.18 599.68
  A 0.59 0.58 0.0 0 1 853.59 600.26
  L 840.90 600.26
  A 0.58 0.57 -90.0 0 0 840.33 600.84
  L 840.33 613.60
  A 0.55 0.55 0.0 0 1 839.78 614.15
  L 784.96 614.18
  L 715.74 614.22
  Q 711.56 614.41 707.24 614.38
  Q 674.10 614.15 669.39 614.12
  Q 665.47 614.10 661.52 613.67
  A 1.00 1.00 0.0 0 1 660.63 612.72
  L 660.08 601.83
  A 1.58 1.58 0.0 0 0 658.50 600.33
  L 648.77 600.33
  A 1.87 1.87 0.0 0 1 646.90 598.55
  L 646.38 588.26
  A 1.48 1.47 -89.3 0 0 645.03 586.87
  L 633.95 585.96
  A 1.06 1.06 0.0 0 1 632.98 584.96
  L 632.42 573.83
  A 1.23 1.22 88.5 0 0 631.20 572.66
  L 620.59 572.66
  A 1.48 1.47 -1.4 0 1 619.11 571.26
  L 618.52 559.60
  A 0.85 0.84 -1.4 0 0 617.67 558.80
  L 606.45 558.80
  A 1.18 1.18 0.0 0 1 605.27 557.67
  L 604.67 545.77
  A 0.85 0.84 -1.4 0 0 603.82 544.97
  L 592.58 544.97
  A 1.41 1.40 90.0 0 1 591.18 543.56
  L 591.18 518.50
  A 1.19 1.18 0.0 0 0 589.99 517.32
  L 578.61 517.32
  A 1.13 1.12 89.7 0 1 577.49 516.20
  L 577.20 434.46
  L 577.23 365.65
  A 0.58 0.58 0.0 0 1 577.81 365.07
  L 590.52 365.07
  A 0.65 0.65 0.0 0 0 591.17 364.42
  L 591.17 351.90
  A 0.66 0.65 -90.0 0 1 591.82 351.24
  L 604.20 351.24
  A 0.65 0.64 -0.0 0 0 604.85 350.60
  L 604.85 337.90
  A 0.57 0.56 -90.0 0 1 605.41 337.33
  L 631.58 337.33
  A 0.99 0.98 0.6 0 0 632.57 336.37
  Q 632.66 332.61 632.56 311.01
  Q 632.55 310.25 633.04 309.63
  L 645.97 309.63
  A 0.54 0.54 0.0 0 0 646.51 309.09
  L 646.51 282.37
  A 0.46 0.46 0.0 0 1 646.97 281.91
  L 659.71 281.91
  A 0.59 0.59 0.0 0 0 660.30 281.32
  L 660.30 254.88
  A 0.56 0.56 0.0 0 0 659.74 254.32
  L 647.02 254.32
  A 0.59 0.59 0.0 0 1 646.43 253.73
  L 646.43 241.08
  A 0.55 0.55 0.0 0 0 645.87 240.53
  L 632.62 240.89
  L 632.61 226.91
  A 0.31 0.31 0.0 0 1 632.92 226.60
  L 673.81 226.60
  A 0.34 0.33 -0.0 0 1 674.15 226.93
  L 674.15 239.84
  A 0.60 0.59 90.0 0 0 674.74 240.44
  L 701.16 240.44
  A 0.57 0.57 0.0 0 1 701.73 241.01
  L 701.73 253.72
  A 0.57 0.57 0.0 0 0 702.30 254.29
  L 839.64 254.29
  A 0.59 0.58 -90.0 0 0 840.22 253.70
  L 840.22 240.82
  A 0.43 0.43 0.0 0 1 840.65 240.39
  L 881.16 240.39
  A 0.51 0.51 0.0 0 1 881.67 240.90
  L 881.67 253.72
  A 0.52 0.52 0.0 0 0 882.19 254.24
  L 895.18 254.24
  A 0.33 0.32 90.0 0 1 895.50 254.57
  L 895.52 295.74
  Z"
/>
<path fill="#ab8468" d="
  M 633.04 309.63
  Q 632.85 309.55 632.71 309.33
  A 0.69 0.67 29.1 0 1 632.60 308.96
  L 632.57 268.18
  L 632.62 240.89
  L 645.87 240.53
  A 0.55 0.55 0.0 0 1 646.43 241.08
  L 646.43 253.73
  A 0.59 0.59 0.0 0 0 647.02 254.32
  L 659.74 254.32
  A 0.56 0.56 0.0 0 1 660.30 254.88
  L 660.30 281.32
  A 0.59 0.59 0.0 0 1 659.71 281.91
  L 646.97 281.91
  A 0.46 0.46 0.0 0 0 646.51 282.37
  L 646.51 309.09
  A 0.54 0.54 0.0 0 1 645.97 309.63
  L 633.04 309.63
  Z"
/>
<rect fill="#5f5b57" x="-6.86" y="-6.87" transform="translate(514.88,261.34) rotate(-0.1)" width="13.72" height="13.74" rx="1.77"/>
<path fill="#70625e" d="
  M 840.32 268.17
  L 840.35 281.21
  A 0.53 0.52 89.4 0 0 840.87 281.73
  L 854.01 281.77
  L 854.01 308.68
  A 0.88 0.87 90.0 0 0 854.88 309.56
  L 867.31 309.56
  A 0.49 0.49 0.0 0 1 867.80 310.05
  L 867.80 350.63
  A 0.55 0.55 0.0 0 0 868.35 351.18
  L 881.18 351.18
  A 0.52 0.51 -0.0 0 1 881.70 351.69
  L 881.70 377.86
  A 0.92 0.92 0.0 0 0 882.62 378.78
  L 894.88 378.78
  A 0.73 0.73 0.0 0 1 895.61 379.51
  L 895.61 391.59
  A 0.93 0.92 90.0 0 0 896.53 392.52
  L 908.70 392.52
  A 0.65 0.64 -0.0 0 1 909.35 393.16
  L 909.35 419.59
  A 0.68 0.67 -89.6 0 0 910.01 420.27
  Q 914.57 420.37 922.05 420.33
  Q 922.41 420.32 922.70 420.51
  Q 923.01 420.70 923.23 420.96
  L 923.30 434.21
  L 910.44 434.40
  A 0.75 0.75 0.0 0 0 909.70 435.08
  Q 909.15 441.16 910.56 446.92
  A 0.88 0.88 0.0 0 0 911.40 447.59
  L 923.28 447.75
  L 935.85 447.91
  A 1.35 1.35 0.0 0 1 937.19 449.26
  L 937.19 475.04
  A 0.59 0.58 0.0 0 1 936.60 475.62
  L 923.89 475.62
  A 0.56 0.56 0.0 0 0 923.33 476.18
  L 923.33 516.86
  A 0.35 0.35 0.0 0 1 922.98 517.21
  L 910.03 517.21
  A 0.54 0.54 0.0 0 0 909.49 517.75
  L 909.49 530.41
  A 0.55 0.55 0.0 0 1 908.94 530.96
  L 896.34 530.96
  A 0.74 0.73 90.0 0 0 895.61 531.70
  L 895.61 544.22
  A 0.57 0.57 0.0 0 1 895.04 544.79
  L 868.49 544.79
  A 0.59 0.58 -0.0 0 0 867.90 545.37
  L 867.90 571.68
  A 0.85 0.85 0.0 0 1 867.05 572.53
  L 854.82 572.53
  A 0.57 0.56 -89.5 0 0 854.26 573.09
  L 854.17 585.22
  Q 854.10 586.36 852.88 586.36
  Q 840.62 586.44 827.36 586.43
  A 0.91 0.90 -0.0 0 0 826.45 587.33
  L 826.45 599.67
  A 0.62 0.62 0.0 0 1 825.83 600.29
  L 785.51 600.29
  A 0.69 0.69 0.0 0 1 784.82 599.61
  L 784.82 586.39
  Q 784.47 586.53 784.90 586.15
  L 812.27 586.38
  A 0.34 0.34 0.0 0 0 812.61 586.04
  L 812.61 573.13
  A 0.57 0.56 0.0 0 1 813.18 572.57
  L 839.82 572.57
  A 0.52 0.51 90.0 0 0 840.33 572.05
  L 840.33 559.27
  A 0.60 0.60 0.0 0 1 840.93 558.67
  L 853.57 558.67
  A 0.62 0.62 0.0 0 0 854.19 558.05
  L 854.19 545.50
  A 0.70 0.69 89.6 0 0 853.49 544.80
  L 826.45 545.10
  L 812.58 544.88
  L 812.27 531.10
  L 812.56 503.96
  A 0.58 0.58 0.0 0 0 811.98 503.37
  L 799.28 503.37
  A 0.58 0.57 0.0 0 1 798.70 502.80
  L 798.70 490.12
  A 0.60 0.59 0.0 0 0 798.10 489.53
  L 757.86 489.53
  A 0.59 0.59 0.0 0 0 757.27 490.12
  L 757.27 502.80
  A 0.59 0.59 0.0 0 1 756.68 503.39
  L 744.06 503.39
  A 0.60 0.59 90.0 0 0 743.47 503.99
  L 743.45 531.03
  L 743.43 544.94
  L 729.91 544.86
  A 0.35 0.35 0.0 0 0 729.55 545.22
  L 729.55 558.62
  L 716.57 558.64
  A 0.90 0.90 0.0 0 0 715.67 559.54
  L 715.67 571.91
  A 0.67 0.67 0.0 0 0 716.34 572.58
  L 729.00 572.58
  A 0.54 0.53 0.0 0 1 729.54 573.11
  L 729.54 585.58
  A 0.95 0.95 0.0 0 0 730.49 586.53
  L 770.55 586.53
  A 0.61 0.61 0.0 0 1 771.16 587.14
  L 771.16 599.82
  A 0.50 0.49 -90.0 0 1 770.67 600.32
  L 675.11 600.32
  A 0.91 0.90 90.0 0 1 674.21 599.41
  L 674.21 587.49
  A 1.09 1.08 -0.0 0 0 673.12 586.41
  L 661.50 586.41
  A 1.16 1.16 0.0 0 1 660.34 585.25
  L 660.34 573.74
  A 1.10 1.09 -0.0 0 0 659.24 572.65
  L 647.72 572.65
  A 1.23 1.22 -90.0 0 1 646.50 571.42
  L 646.50 559.75
  A 1.02 1.02 0.0 0 0 645.48 558.73
  L 633.45 558.73
  A 0.80 0.79 -90.0 0 1 632.66 557.93
  L 632.66 545.44
  A 0.61 0.61 0.0 0 0 632.05 544.83
  L 619.66 544.83
  A 0.87 0.87 0.0 0 1 618.79 543.96
  L 618.79 518.11
  A 0.83 0.82 -0.0 0 0 617.96 517.29
  L 605.98 517.29
  A 1.01 1.01 0.0 0 1 604.97 516.28
  L 604.97 504.17
  A 0.71 0.71 0.0 0 0 604.26 503.46
  L 592.10 503.46
  A 0.90 0.90 0.0 0 1 591.20 502.56
  L 591.20 393.49
  A 0.76 0.76 0.0 0 1 591.96 392.73
  L 604.46 392.73
  A 0.39 0.39 0.0 0 0 604.85 392.34
  L 604.85 380.08
  A 1.27 1.27 0.0 0 1 606.12 378.81
  L 632.19 378.81
  A 0.41 0.41 0.0 0 0 632.60 378.40
  L 632.60 352.11
  A 0.87 0.87 0.0 0 1 633.47 351.24
  L 645.87 351.24
  A 0.61 0.60 -90.0 0 0 646.47 350.63
  L 646.47 338.57
  A 1.17 1.17 0.0 0 1 647.64 337.40
  L 659.83 337.40
  A 0.43 0.43 0.0 0 0 660.26 336.97
  L 660.26 310.61
  A 0.96 0.95 0.0 0 1 661.22 309.66
  L 673.60 309.66
  A 0.54 0.53 0.0 0 0 674.14 309.13
  L 674.14 282.81
  A 0.89 0.88 -90.0 0 1 675.02 281.92
  L 687.13 281.92
  A 0.74 0.73 0.0 0 0 687.87 281.19
  L 687.87 269.11
  A 0.86 0.86 0.0 0 1 688.73 268.25
  L 840.32 268.17
  Z"
/>
<path fill="#4a453a" d="
  M 854.01 281.77
  L 840.87 281.73
  A 0.53 0.52 89.4 0 1 840.35 281.21
  L 840.32 268.17
  L 853.29 268.23
  A 0.53 0.53 0.0 0 1 853.82 268.75
  L 854.01 281.77
  Z"
/>
<rect fill="#5f5b57" x="-6.86" y="-6.85" transform="translate(501.09,275.13) rotate(-0.1)" width="13.72" height="13.70" rx="1.88"/>
<rect fill="#5f5b57" x="-6.59" y="-6.58" transform="translate(584.04,288.85) rotate(-0.2)" width="13.18" height="13.16" rx="1.55"/>
<path fill="#5f5b57" d="
  M 826.36 309.52
  Q 826.33 309.55 826.31 309.57
  A 0.25 0.15 16.3 0 1 826.18 309.60
  L 813.84 309.52
  A 1.22 1.22 0.0 0 1 812.63 308.33
  Q 812.49 303.18 812.64 296.99
  Q 812.65 296.40 812.98 296.08
  Q 813.28 295.78 813.86 295.77
  Q 820.05 295.66 825.20 295.82
  A 1.22 1.22 0.0 0 1 826.39 297.04
  L 826.40 309.38
  A 0.25 0.15 74.0 0 1 826.37 309.51
  Q 826.35 309.53 826.36 309.52
  Z"
/>
<rect fill="#5f5b57" x="-6.90" y="-6.90" transform="translate(362.70,302.75) rotate(0.1)" width="13.80" height="13.80" rx="1.44"/>
<rect fill="#5f5b57" x="-6.82" y="-6.81" transform="translate(570.31,302.74) rotate(0.2)" width="13.64" height="13.62" rx="1.71"/>
<rect fill="#5f5b57" x="-6.73" y="-6.74" transform="translate(736.26,302.65) rotate(-0.8)" width="13.46" height="13.48" rx="1.73"/>
<path fill="#c4bfb6" d="
  M 895.52 295.74
  L 895.48 308.93
  A 0.53 0.52 -0.6 0 1 894.96 309.45
  L 881.71 309.50
  L 881.74 296.30
  A 0.52 0.52 0.0 0 1 882.26 295.78
  L 895.52 295.74
  Z"
/>
<path fill="#5f5b57" d="
  M 244.86 309.78
  Q 245.00 309.76 245.13 309.74
  L 258.20 309.65
  A 0.70 0.69 -0.0 0 1 258.90 310.34
  L 258.90 323.13
  A 0.43 0.43 0.0 0 1 258.47 323.56
  L 246.22 323.56
  A 1.11 1.11 0.0 0 1 245.11 322.47
  L 244.86 309.78
  Z"
/>
<rect fill="#5f5b57" x="452.60" y="309.69" width="13.82" height="13.82" rx="1.34"/>
<path fill="#5f5b57" d="
  M 728.19 309.77
  A 1.11 1.11 0.0 0 1 729.29 310.89
  L 729.22 320.57
  A 2.81 2.58 -89.6 0 1 726.62 323.36
  L 718.18 323.30
  A 2.81 2.58 -89.6 0 1 715.62 320.47
  L 715.69 310.79
  A 1.11 1.11 0.0 0 1 716.81 309.69
  L 728.19 309.77
  Z"
/>
<rect fill="#5f5b57" x="-6.82" y="-6.81" transform="translate(833.27,316.41) rotate(-1.1)" width="13.64" height="13.62" rx="1.39"/>
<rect fill="#5f5b57" x="-6.76" y="-6.76" transform="translate(376.40,316.51) rotate(0.1)" width="13.52" height="13.52" rx="1.23"/>
<rect fill="#5f5b57" x="-6.92" y="-6.92" transform="translate(265.81,330.51) rotate(0.1)" width="13.84" height="13.84" rx="1.08"/>
<rect fill="#5f5b57" x="-6.84" y="-6.83" transform="translate(445.77,330.42) rotate(0.1)" width="13.68" height="13.66" rx="1.33"/>
<rect fill="#5f5b57" x="-6.87" y="-6.87" transform="translate(279.64,344.31) rotate(-0.2)" width="13.74" height="13.74" rx="1.41"/>
<rect fill="#5f5b57" x="-6.85" y="-6.85" transform="translate(777.85,358.02) rotate(-0.2)" width="13.70" height="13.70" rx="1.17"/>
<rect fill="#5f5b57" x="-6.89" y="-6.89" transform="translate(764.06,371.78) rotate(-0.3)" width="13.78" height="13.78" rx="1.48"/>
<rect fill="#5f5b57" x="-6.84" y="-6.85" transform="translate(459.64,385.68) rotate(-0.8)" width="13.68" height="13.70" rx="1.23"/>
<rect fill="#5f5b57" x="-6.70" y="-6.73" transform="translate(224.24,385.81) rotate(-0.8)" width="13.40" height="13.46" rx="1.56"/>
<rect fill="#5f5b57" x="-6.72" y="-6.72" transform="translate(445.75,399.66) rotate(-0.5)" width="13.44" height="13.44" rx="1.40"/>
<path fill="#5f5b57" d="
  M 217.12 394.75
  L 217.12 404.44
  A 1.67 1.67 0.0 0 1 215.53 406.11
  L 205.45 406.62
  A 1.67 1.67 0.0 0 1 203.70 404.95
  L 203.70 394.75
  A 1.67 1.67 0.0 0 1 205.37 393.08
  L 215.45 393.08
  A 1.67 1.67 0.0 0 1 217.12 394.75
  Z"
/>
<path fill="#5f5b57" d="
  M 300.28 393.98
  L 300.28 404.90
  A 1.29 1.29 0.0 0 1 299.05 406.19
  L 288.13 406.73
  A 1.29 1.29 0.0 0 1 286.78 405.44
  L 286.78 394.53
  A 1.29 1.29 0.0 0 1 288.01 393.24
  L 298.93 392.69
  A 1.29 1.29 0.0 0 1 300.28 393.98
  Z"
/>
<path fill="#000000" d="
  M 743.39 420.79
  L 743.39 461.35
  A 0.47 0.47 0.0 0 1 742.92 461.82
  L 716.13 461.82
  A 0.47 0.47 0.0 0 1 715.66 461.35
  L 715.66 448.50
  A 0.47 0.47 0.0 0 0 715.19 448.03
  L 702.26 448.03
  A 0.47 0.47 0.0 0 1 701.79 447.56
  L 701.79 420.85
  A 0.47 0.47 0.0 0 0 701.32 420.38
  L 688.46 420.38
  A 0.47 0.47 0.0 0 1 687.99 419.91
  L 687.99 406.97
  A 0.47 0.47 0.0 0 1 688.46 406.50
  L 729.04 406.50
  A 0.47 0.47 0.0 0 1 729.51 406.97
  L 729.51 419.85
  A 0.47 0.47 0.0 0 0 729.98 420.32
  L 742.92 420.32
  A 0.47 0.47 0.0 0 1 743.39 420.79
  Z"
/>
<path fill="#000000" d="
  M 826.41 419.57
  L 826.37 407.10
  A 0.63 0.62 -0.1 0 1 827.00 406.48
  L 867.24 406.46
  A 0.65 0.64 -0.1 0 1 867.89 407.10
  L 867.86 419.72
  A 0.58 0.58 0.0 0 1 867.29 420.30
  L 854.48 420.34
  A 0.37 0.37 0.0 0 0 854.11 420.71
  L 854.14 447.54
  A 0.44 0.44 0.0 0 1 853.70 447.98
  L 840.85 447.96
  A 0.57 0.57 0.0 0 0 840.28 448.53
  L 840.31 461.14
  A 0.64 0.63 -0.1 0 1 839.67 461.77
  L 813.20 461.79
  A 0.62 0.62 0.0 0 1 812.58 461.16
  L 812.55 420.84
  A 0.52 0.52 0.0 0 1 813.07 420.32
  L 825.66 420.32
  A 0.75 0.75 0.0 0 0 826.41 419.57
  Z"
/>
<rect fill="#5f5b57" x="-6.81" y="-6.81" transform="translate(196.59,413.63) rotate(0.2)" width="13.62" height="13.62" rx="1.32"/>
<rect fill="#5f5b57" x="-6.68" y="-6.69" transform="translate(279.68,413.53) rotate(-0.1)" width="13.36" height="13.38" rx="1.17"/>
<rect fill="#f5efe3" x="-6.93" y="-6.93" transform="translate(722.59,427.29) rotate(-0.1)" width="13.86" height="13.86" rx="0.32"/>
<rect fill="#f5efe3" x="-6.93" y="-6.93" transform="translate(833.35,427.26) rotate(0.1)" width="13.86" height="13.86" rx="0.34"/>
<path fill="#4a453a" d="
  M 950.92 489.53
  L 937.79 489.61
  A 0.52 0.51 0.0 0 0 937.27 490.12
  L 937.22 503.22
  L 937.19 531.11
  L 923.89 531.11
  A 0.56 0.56 0.0 0 0 923.33 531.67
  L 923.33 544.15
  A 0.64 0.64 0.0 0 1 922.69 544.79
  L 910.05 544.79
  A 0.59 0.59 0.0 0 0 909.46 545.38
  L 909.46 558.03
  A 0.64 0.63 -0.0 0 1 908.82 558.66
  L 882.34 558.66
  A 0.59 0.58 -90.0 0 0 881.76 559.25
  L 881.76 571.63
  A 0.89 0.89 0.0 0 1 880.87 572.52
  L 868.48 572.52
  A 0.53 0.53 0.0 0 0 867.95 573.05
  L 867.95 585.65
  A 0.61 0.61 0.0 0 1 867.34 586.26
  L 855.29 586.37
  L 854.75 586.32
  A 0.63 0.63 0.0 0 1 854.17 585.69
  L 854.17 585.22
  L 854.26 573.09
  A 0.57 0.56 -89.5 0 1 854.82 572.53
  L 867.05 572.53
  A 0.85 0.85 0.0 0 0 867.90 571.68
  L 867.90 545.37
  A 0.59 0.58 -0.0 0 1 868.49 544.79
  L 895.04 544.79
  A 0.57 0.57 0.0 0 0 895.61 544.22
  L 895.61 531.70
  A 0.74 0.73 -90.0 0 1 896.34 530.96
  L 908.94 530.96
  A 0.55 0.55 0.0 0 0 909.49 530.41
  L 909.49 517.75
  A 0.54 0.54 0.0 0 1 910.03 517.21
  L 922.98 517.21
  A 0.35 0.35 0.0 0 0 923.33 516.86
  L 923.33 476.18
  A 0.56 0.56 0.0 0 1 923.89 475.62
  L 936.60 475.62
  A 0.59 0.58 0.0 0 0 937.19 475.04
  L 937.19 449.26
  A 1.35 1.35 0.0 0 0 935.85 447.91
  L 923.28 447.75
  L 923.30 434.21
  L 923.23 420.96
  Q 923.54 420.31 923.35 420.31
  L 936.64 420.35
  A 0.54 0.54 0.0 0 1 937.17 420.89
  L 937.17 447.45
  A 0.45 0.45 0.0 0 0 937.62 447.90
  L 950.24 447.90
  A 0.65 0.65 0.0 0 1 950.89 448.55
  L 950.92 489.53
  Z"
/>
<rect fill="#5f5b57" x="-6.86" y="-6.86" transform="translate(653.40,427.33) rotate(-0.3)" width="13.72" height="13.72" rx="1.37"/>
<path fill="#5f5b57" d="
  M 923.30 434.21
  L 923.28 447.75
  L 911.40 447.59
  A 0.88 0.88 0.0 0 1 910.56 446.92
  Q 909.15 441.16 909.70 435.08
  A 0.75 0.75 0.0 0 1 910.44 434.40
  L 923.30 434.21
  Z"
/>
<path fill="#5f5b57" d="
  M 577.20 434.46
  L 577.49 516.20
  A 1.13 1.12 89.7 0 0 578.61 517.32
  L 589.99 517.32
  A 1.19 1.18 -0.0 0 1 591.18 518.50
  L 591.18 543.56
  A 1.41 1.40 90.0 0 0 592.58 544.97
  L 603.82 544.97
  A 0.85 0.84 -1.4 0 1 604.67 545.77
  L 605.27 557.67
  A 1.18 1.18 0.0 0 0 606.45 558.80
  L 617.67 558.80
  A 0.85 0.84 -1.4 0 1 618.52 559.60
  L 619.11 571.26
  A 1.48 1.47 -1.4 0 0 620.59 572.66
  L 631.20 572.66
  A 1.23 1.22 88.5 0 1 632.42 573.83
  L 632.98 584.96
  A 1.06 1.06 0.0 0 0 633.95 585.96
  L 645.03 586.87
  A 1.48 1.47 -89.3 0 1 646.38 588.26
  L 646.90 598.55
  A 1.87 1.87 0.0 0 0 648.77 600.33
  L 658.50 600.33
  A 1.58 1.58 0.0 0 1 660.08 601.83
  L 660.63 612.72
  A 1.00 1.00 0.0 0 0 661.52 613.67
  Q 665.47 614.10 669.39 614.12
  Q 674.10 614.15 707.24 614.38
  Q 711.56 614.41 715.74 614.22
  L 715.69 628.21
  L 647.86 627.59
  A 1.35 1.35 0.0 0 1 646.52 626.24
  L 646.52 615.17
  A 1.08 1.08 0.0 0 0 645.44 614.09
  L 634.24 614.09
  A 1.30 1.29 -1.4 0 1 632.94 612.86
  L 632.36 601.26
  A 0.98 0.98 0.0 0 0 631.38 600.33
  L 620.18 600.33
  A 1.05 1.05 0.0 0 1 619.13 599.33
  L 618.53 587.33
  A 0.93 0.93 0.0 0 0 617.60 586.45
  L 606.07 586.45
  A 1.08 1.07 -0.0 0 1 604.99 585.38
  L 604.99 573.45
  A 0.88 0.88 0.0 0 0 604.11 572.57
  L 592.63 572.57
  A 1.03 1.03 0.0 0 1 591.60 571.59
  L 591.00 559.58
  A 0.91 0.90 88.3 0 0 590.10 558.72
  L 578.49 558.72
  A 1.20 1.20 0.0 0 1 577.29 557.52
  L 577.29 531.96
  A 0.81 0.81 0.0 0 0 576.48 531.15
  L 564.38 531.15
  A 0.94 0.94 0.0 0 1 563.44 530.21
  L 563.44 435.05
  A 0.72 0.71 -89.6 0 1 564.16 434.33
  L 577.20 434.46
  Z"
/>
<path fill="#5f5b57" d="
  M 633.15 446.28
  L 632.63 436.03
  A 1.41 1.41 0.0 0 1 634.04 434.55
  L 644.86 434.55
  A 1.41 1.41 0.0 0 1 646.27 435.96
  L 646.27 446.21
  A 1.41 1.41 0.0 0 1 644.86 447.62
  L 634.56 447.62
  A 1.41 1.41 0.0 0 1 633.15 446.28
  Z"
/>
<rect fill="#5f5b57" x="-6.75" y="-6.75" transform="translate(902.61,454.82) rotate(-0.2)" width="13.50" height="13.50" rx="1.93"/>
<rect fill="#5f5b57" x="162.23" y="448.41" width="13.56" height="13.56" rx="1.23"/>
<path fill="#5f5b57" d="
  M 342.25 461.76
  Q 342.44 461.95 342.60 461.94
  Q 348.34 461.92 354.61 462.02
  A 1.17 1.17 0.0 0 1 355.76 463.17
  Q 355.88 468.42 355.72 474.18
  Q 355.70 475.11 355.46 475.35
  Q 355.22 475.59 354.29 475.61
  Q 348.53 475.77 343.28 475.66
  A 1.17 1.17 0.0 0 1 342.12 474.51
  Q 342.02 468.24 342.05 462.50
  Q 342.05 462.34 341.86 462.15
  Q 341.68 461.97 341.52 461.97
  Q 335.78 462.00 329.51 461.90
  A 1.17 1.17 0.0 0 1 328.36 460.75
  Q 328.24 455.50 328.39 449.74
  Q 328.42 448.81 328.66 448.57
  Q 328.90 448.33 329.83 448.30
  Q 335.59 448.14 340.84 448.26
  A 1.17 1.17 0.0 0 1 341.99 449.41
  Q 342.10 455.68 342.07 461.42
  Q 342.07 461.58 342.25 461.76
  Z"
/>
<path fill="#5f5b57" d="
  M 480.33 463.19
  L 480.33 474.39
  A 1.23 1.23 0.0 0 1 479.10 475.62
  L 467.91 475.62
  A 1.23 1.23 0.0 0 1 466.68 474.39
  L 466.68 463.19
  A 1.23 1.23 0.0 0 1 467.91 461.96
  L 479.10 461.96
  A 1.23 1.23 0.0 0 1 480.33 463.19
  Z"
/>
<path fill="#5f5b57" d="
  M 189.72 463.49
  L 189.72 474.42
  A 1.42 1.42 0.0 0 1 188.30 475.84
  L 177.37 475.84
  A 1.42 1.42 0.0 0 1 175.95 474.42
  L 175.95 463.49
  A 1.42 1.42 0.0 0 1 177.37 462.07
  L 188.30 462.07
  A 1.42 1.42 0.0 0 1 189.72 463.49
  Z"
/>
<rect fill="#5f5b57" x="-6.91" y="-6.91" transform="translate(196.64,482.71) rotate(0.2)" width="13.82" height="13.82" rx="1.66"/>
<rect fill="#5f5b57" x="-6.91" y="-6.91" transform="translate(362.71,482.62) rotate(-0.4)" width="13.82" height="13.82" rx="1.59"/>
<rect fill="#5f5b57" x="-6.89" y="-6.88" transform="translate(487.37,482.68) rotate(-0.3)" width="13.78" height="13.76" rx="1.38"/>
<rect fill="#5f5b57" x="-6.81" y="-6.86" transform="translate(501.19,496.43) rotate(-0.8)" width="13.62" height="13.72" rx="1.51"/>
<path fill="#c4bfb6" d="
  M 812.27 531.10
  L 799.32 531.20
  A 0.52 0.52 0.0 0 0 798.80 531.71
  L 798.70 544.87
  L 784.92 544.85
  L 784.86 531.50
  A 0.43 0.42 0.0 0 1 785.29 531.08
  L 798.05 531.08
  A 0.66 0.65 0.0 0 0 798.71 530.43
  L 798.71 504.00
  A 0.62 0.62 0.0 0 0 798.09 503.38
  L 757.88 503.38
  A 0.61 0.60 -90.0 0 0 757.28 503.99
  L 757.28 530.49
  A 0.53 0.53 0.0 0 1 756.75 531.02
  L 743.45 531.03
  L 743.47 503.99
  A 0.60 0.59 90.0 0 1 744.06 503.39
  L 756.68 503.39
  A 0.59 0.59 0.0 0 0 757.27 502.80
  L 757.27 490.12
  A 0.59 0.59 0.0 0 1 757.86 489.53
  L 798.10 489.53
  A 0.60 0.59 -0.0 0 1 798.70 490.12
  L 798.70 502.80
  A 0.58 0.57 0.0 0 0 799.28 503.37
  L 811.98 503.37
  A 0.58 0.58 0.0 0 1 812.56 503.96
  L 812.27 531.10
  Z"
/>
<rect fill="#5f5b57" x="-6.90" y="-6.91" transform="translate(874.82,496.36) rotate(-0.6)" width="13.80" height="13.82" rx="1.34"/>
<path fill="#c4bfb6" d="
  M 950.92 489.53
  L 950.93 502.65
  A 0.53 0.53 0.0 0 1 950.41 503.18
  L 937.22 503.22
  L 937.27 490.12
  A 0.52 0.51 0.0 0 1 937.79 489.61
  L 950.92 489.53
  Z"
/>
<path fill="#5f5b57" d="
  M 285.06 503.50
  L 274.41 503.50
  A 1.55 1.55 0.0 0 1 272.86 501.95
  L 272.86 491.28
  A 1.55 1.55 0.0 0 1 274.41 489.73
  L 285.06 489.73
  A 1.55 1.55 0.0 0 1 286.61 491.28
  L 286.61 501.95
  A 1.55 1.55 0.0 0 1 285.06 503.50
  Z"
/>
<rect fill="#5f5b57" x="646.55" y="503.39" width="13.88" height="13.88" rx="1.26"/>
<path fill="#4a453a" d="
  M 784.92 544.85
  L 784.90 558.67
  L 771.05 558.67
  L 771.02 544.84
  L 771.08 531.46
  A 0.39 0.39 0.0 0 0 770.69 531.07
  L 757.98 531.07
  A 0.61 0.61 0.0 0 0 757.37 531.68
  L 757.36 544.85
  L 757.28 558.63
  L 744.02 558.64
  A 0.52 0.52 0.0 0 1 743.50 558.12
  L 743.43 544.94
  L 743.45 531.03
  L 756.75 531.02
  A 0.53 0.53 0.0 0 0 757.28 530.49
  L 757.28 503.99
  A 0.61 0.60 -90.0 0 1 757.88 503.38
  L 798.09 503.38
  A 0.62 0.62 0.0 0 1 798.71 504.00
  L 798.71 530.43
  A 0.66 0.65 -0.0 0 1 798.05 531.08
  L 785.29 531.08
  A 0.43 0.42 -0.0 0 0 784.86 531.50
  L 784.92 544.85
  Z"
/>
<path fill="#5f5b57" d="
  M 895.21 516.71
  Q 894.92 517.01 894.34 517.02
  Q 888.20 517.19 883.10 517.06
  A 1.21 1.21 0.0 0 1 881.92 515.87
  L 881.80 503.64
  A 0.24 0.15 73.5 0 1 881.83 503.51
  Q 881.85 503.49 881.84 503.50
  Q 881.87 503.48 881.89 503.46
  A 0.24 0.15 15.8 0 1 882.02 503.42
  L 894.24 503.40
  A 1.21 1.21 0.0 0 1 895.45 504.57
  Q 895.63 509.67 895.54 515.81
  Q 895.53 516.38 895.21 516.71
  Z"
/>
<rect fill="#5f5b57" x="-6.85" y="-6.84" transform="translate(293.57,510.47) rotate(-0.9)" width="13.70" height="13.68" rx="1.72"/>
<rect fill="#5f5b57" x="-6.97" y="-6.97" transform="translate(667.31,524.19) rotate(-0.2)" width="13.94" height="13.94" rx="1.49"/>
<path fill="#5f5b57" d="
  M 231.54 728.46
  L 224.77 728.41
  Q 223.36 726.47 217.42 726.81
  Q 218.08 725.07 216.51 725.05
  Q 210.37 724.99 204.25 725.13
  Q 203.89 725.14 203.96 725.50
  L 203.66 655.90
  L 203.52 642.52
  A 0.53 0.52 89.4 0 0 203.00 642.00
  L 189.79 641.97
  L 189.74 628.07
  L 189.74 614.93
  A 0.60 0.59 -90.0 0 0 189.15 614.33
  L 176.45 614.33
  A 0.48 0.48 0.0 0 1 175.97 613.85
  L 175.97 601.11
  A 0.58 0.58 0.0 0 0 175.40 600.53
  L 162.15 600.46
  L 162.11 587.14
  A 0.51 0.51 0.0 0 0 161.60 586.63
  L 148.34 586.61
  L 148.30 545.08
  L 148.23 531.95
  A 0.52 0.52 0.0 0 0 147.71 531.43
  L 134.48 531.39
  L 134.45 517.55
  L 147.65 517.42
  A 0.69 0.69 0.0 0 1 148.35 518.11
  L 148.35 530.35
  A 0.91 0.90 -0.0 0 0 149.26 531.25
  L 161.51 531.25
  A 0.68 0.68 0.0 0 1 162.19 531.93
  L 162.19 572.08
  A 0.63 0.63 0.0 0 0 162.82 572.71
  L 175.21 572.71
  A 0.65 0.65 0.0 0 1 175.86 573.36
  L 175.86 585.86
  A 0.74 0.74 0.0 0 0 176.60 586.60
  L 189.05 586.60
  A 0.69 0.69 0.0 0 1 189.74 587.29
  L 189.74 599.87
  A 0.64 0.64 0.0 0 0 190.38 600.51
  L 202.76 600.51
  A 0.85 0.85 0.0 0 1 203.61 601.36
  L 203.61 627.33
  A 0.92 0.91 0.0 0 0 204.53 628.24
  L 216.74 628.24
  A 0.82 0.82 0.0 0 1 217.56 629.06
  L 217.56 723.76
  A 0.80 0.80 0.0 0 0 218.29 724.56
  L 230.86 725.58
  A 0.62 0.62 0.0 0 1 231.42 726.16
  L 231.54 728.46
  Z"
/>
<rect fill="#5f5b57" x="-6.96" y="-6.97" transform="translate(210.52,524.33) rotate(0.1)" width="13.92" height="13.94" rx="1.38"/>
<rect fill="#5f5b57" x="-6.80" y="-6.79" transform="translate(431.93,538.03) rotate(-0.7)" width="13.60" height="13.58" rx="1.12"/>
<path fill="#c4bfb6" d="
  M 771.02 544.84
  L 757.36 544.85
  L 757.37 531.68
  A 0.61 0.61 0.0 0 1 757.98 531.07
  L 770.69 531.07
  A 0.39 0.39 0.0 0 1 771.08 531.46
  L 771.02 544.84
  Z"
/>
<path fill="#4a453a" d="
  M 812.27 531.10
  L 812.58 544.88
  L 812.59 558.22
  A 0.44 0.43 90.0 0 1 812.16 558.66
  L 798.71 558.66
  L 798.70 544.87
  L 798.80 531.71
  A 0.52 0.52 0.0 0 1 799.32 531.20
  L 812.27 531.10
  Z"
/>
<path fill="#c4bfb6" d="
  M 937.19 531.11
  L 937.18 544.20
  A 0.57 0.57 0.0 0 1 936.61 544.77
  L 924.40 544.77
  A 1.15 1.15 0.0 0 0 923.25 545.92
  L 923.25 558.00
  A 0.52 0.52 0.0 0 1 922.73 558.52
  L 910.62 558.52
  A 1.15 1.15 0.0 0 0 909.47 559.67
  L 909.47 571.85
  A 0.68 0.68 0.0 0 1 908.79 572.53
  L 882.69 572.53
  A 0.93 0.93 0.0 0 0 881.76 573.46
  L 881.76 585.84
  A 0.57 0.57 0.0 0 1 881.19 586.41
  L 869.10 586.41
  A 1.15 1.15 0.0 0 0 867.95 587.56
  L 867.95 599.72
  A 0.56 0.55 -0.0 0 1 867.39 600.27
  L 855.65 600.27
  A 1.45 1.44 90.0 0 0 854.21 601.72
  L 854.21 613.58
  A 0.56 0.55 -0.0 0 1 853.65 614.13
  L 841.51 614.13
  A 1.17 1.16 -90.0 0 0 840.35 615.30
  L 840.35 627.40
  A 0.43 0.42 0.0 0 1 839.92 627.82
  L 784.94 627.80
  L 784.96 614.18
  L 839.78 614.15
  A 0.55 0.55 0.0 0 0 840.33 613.60
  L 840.33 600.84
  A 0.58 0.57 90.0 0 1 840.90 600.26
  L 853.59 600.26
  A 0.59 0.58 -0.0 0 0 854.18 599.68
  L 854.18 587.07
  A 0.68 0.68 0.0 0 1 854.84 586.39
  L 855.29 586.37
  L 867.34 586.26
  A 0.61 0.61 0.0 0 0 867.95 585.65
  L 867.95 573.05
  A 0.53 0.53 0.0 0 1 868.48 572.52
  L 880.87 572.52
  A 0.89 0.89 0.0 0 0 881.76 571.63
  L 881.76 559.25
  A 0.59 0.58 -90.0 0 1 882.34 558.66
  L 908.82 558.66
  A 0.64 0.63 -0.0 0 0 909.46 558.03
  L 909.46 545.38
  A 0.59 0.59 0.0 0 1 910.05 544.79
  L 922.69 544.79
  A 0.64 0.64 0.0 0 0 923.33 544.15
  L 923.33 531.67
  A 0.56 0.56 0.0 0 1 923.89 531.11
  L 937.19 531.11
  Z"
/>
<path fill="#c4bfb6" d="
  M 148.30 545.08
  L 135.06 545.04
  A 0.52 0.52 0.0 0 1 134.54 544.52
  L 134.48 531.39
  L 147.71 531.43
  A 0.52 0.52 0.0 0 1 148.23 531.95
  L 148.30 545.08
  Z"
/>
<rect fill="#5f5b57" x="-6.77" y="-6.77" transform="translate(224.26,538.03) rotate(-0.4)" width="13.54" height="13.54" rx="1.09"/>
<rect fill="#53494a" x="701.80" y="544.84" width="13.88" height="13.88" rx="0.43"/>
<path fill="#ab8468" d="
  M 743.43 544.94
  L 743.50 558.12
  A 0.52 0.52 0.0 0 0 744.02 558.64
  L 757.28 558.63
  L 771.05 558.67
  L 784.90 558.67
  L 798.71 558.66
  L 812.16 558.66
  A 0.44 0.43 -90.0 0 0 812.59 558.22
  L 812.58 544.88
  L 826.45 545.10
  L 826.44 558.10
  A 0.58 0.58 0.0 0 1 825.86 558.68
  L 813.20 558.68
  A 0.61 0.61 0.0 0 0 812.59 559.29
  L 812.59 572.14
  A 0.42 0.42 0.0 0 1 812.17 572.56
  L 785.51 572.56
  A 0.58 0.58 0.0 0 0 784.93 573.14
  L 784.90 586.15
  Q 784.47 586.53 784.82 586.39
  L 771.70 586.36
  A 0.55 0.55 0.0 0 1 771.15 585.81
  L 771.15 573.20
  A 0.64 0.63 -0.0 0 0 770.51 572.57
  L 743.86 572.57
  A 0.44 0.44 0.0 0 1 743.42 572.13
  L 743.42 559.35
  A 0.71 0.70 0.0 0 0 742.71 558.65
  L 729.55 558.62
  L 729.55 545.22
  A 0.35 0.35 0.0 0 1 729.91 544.86
  L 743.43 544.94
  Z"
/>
<path fill="#000000" d="
  M 771.02 544.84
  L 771.05 558.67
  L 757.28 558.63
  L 757.36 544.85
  L 771.02 544.84
  Z"
/>
<path fill="#000000" d="
  M 798.70 544.87
  L 798.71 558.66
  L 784.90 558.67
  L 784.92 544.85
  L 798.70 544.87
  Z"
/>
<path fill="#53494a" d="
  M 784.90 586.15
  L 784.93 573.14
  A 0.58 0.58 0.0 0 1 785.51 572.56
  L 812.17 572.56
  A 0.42 0.42 0.0 0 0 812.59 572.14
  L 812.59 559.29
  A 0.61 0.61 0.0 0 1 813.20 558.68
  L 825.86 558.68
  A 0.58 0.58 0.0 0 0 826.44 558.10
  L 826.45 545.10
  L 853.49 544.80
  A 0.70 0.69 89.6 0 1 854.19 545.50
  L 854.19 558.05
  A 0.62 0.62 0.0 0 1 853.57 558.67
  L 840.93 558.67
  A 0.60 0.60 0.0 0 0 840.33 559.27
  L 840.33 572.05
  A 0.52 0.51 -90.0 0 1 839.82 572.57
  L 813.18 572.57
  A 0.57 0.56 0.0 0 0 812.61 573.13
  L 812.61 586.04
  A 0.34 0.34 0.0 0 1 812.27 586.38
  L 784.90 586.15
  Z"
/>
<path fill="#5f5b57" d="
  M 590.47 724.86
  L 577.43 724.88
  L 577.38 710.97
  L 577.35 697.81
  A 0.59 0.59 0.0 0 0 576.76 697.22
  L 564.34 697.22
  A 0.82 0.81 -0.7 0 1 563.52 696.43
  L 563.20 683.36
  L 563.41 669.97
  A 0.49 0.49 0.0 0 0 562.92 669.47
  L 550.20 669.47
  A 0.63 0.62 0.0 0 1 549.57 668.85
  L 549.57 615.26
  A 1.06 1.05 90.0 0 0 548.52 614.20
  L 536.50 614.20
  A 0.69 0.68 90.0 0 0 535.82 614.89
  L 535.82 627.56
  A 0.48 0.48 0.0 0 1 535.34 628.04
  L 522.69 628.04
  A 0.72 0.72 0.0 0 0 521.97 628.76
  L 521.97 641.29
  A 0.51 0.50 -0.0 0 1 521.46 641.79
  L 494.93 641.79
  A 0.61 0.60 90.0 0 0 494.33 642.40
  L 494.33 655.30
  A 0.38 0.38 0.0 0 1 493.95 655.68
  L 397.95 655.68
  A 0.52 0.52 0.0 0 1 397.43 655.16
  L 397.43 642.35
  A 0.53 0.53 0.0 0 0 396.90 641.82
  L 384.16 641.82
  A 0.60 0.60 0.0 0 1 383.56 641.22
  L 383.56 628.86
  A 0.75 0.75 0.0 0 0 382.81 628.11
  L 356.28 628.11
  A 0.44 0.44 0.0 0 1 355.84 627.67
  L 355.84 614.85
  A 0.58 0.57 90.0 0 0 355.27 614.27
  L 342.60 614.27
  A 0.49 0.48 0.0 0 1 342.11 613.79
  L 342.11 600.97
  A 0.58 0.58 0.0 0 0 341.53 600.39
  L 328.75 600.39
  A 0.49 0.48 90.0 0 1 328.27 599.90
  L 328.27 587.12
  A 0.54 0.54 0.0 0 0 327.73 586.58
  L 301.21 586.58
  A 0.67 0.65 -65.3 0 0 300.77 586.75
  L 300.55 586.95
  L 299.45 586.53
  Q 299.94 586.62 300.23 586.50
  Q 300.53 586.37 300.53 585.83
  Q 300.53 579.52 300.53 573.16
  A 0.45 0.45 0.0 0 0 300.08 572.71
  L 286.70 572.76
  L 286.79 546.00
  A 0.82 0.81 0.0 0 1 287.61 545.19
  L 299.77 545.19
  A 0.82 0.82 0.0 0 1 300.59 546.01
  L 300.59 557.84
  A 0.94 0.94 0.0 0 0 301.53 558.78
  L 313.58 558.78
  A 0.83 0.83 0.0 0 1 314.41 559.61
  L 314.41 571.68
  A 1.00 1.00 0.0 0 0 315.41 572.68
  L 341.26 572.68
  A 0.91 0.91 0.0 0 1 342.17 573.59
  L 342.17 585.55
  A 0.99 0.99 0.0 0 0 343.16 586.54
  L 354.86 586.54
  A 0.68 0.67 88.2 0 1 355.53 587.18
  L 356.16 599.81
  A 0.68 0.68 0.0 0 0 356.84 600.46
  L 368.93 600.46
  A 0.78 0.78 0.0 0 1 369.71 601.24
  L 369.71 613.45
  A 0.74 0.73 90.0 0 0 370.44 614.19
  L 382.21 614.19
  A 1.31 1.31 0.0 0 0 383.52 612.88
  L 383.52 601.67
  A 1.19 1.19 0.0 0 1 384.71 600.48
  L 396.67 600.48
  A 0.76 0.76 0.0 0 1 397.43 601.24
  L 397.43 612.78
  A 1.18 1.17 90.0 0 0 398.60 613.96
  L 410.57 613.96
  A 0.66 0.66 0.0 0 0 411.23 613.30
  L 411.23 601.66
  A 1.23 1.23 0.0 0 1 412.46 600.43
  L 424.33 600.43
  A 0.89 0.89 0.0 0 1 425.22 601.32
  L 425.22 613.05
  A 1.13 1.13 0.0 0 0 426.35 614.18
  L 437.68 614.18
  A 1.11 1.11 0.0 0 0 438.79 613.07
  L 438.79 601.50
  A 1.04 1.03 90.0 0 1 439.82 600.46
  L 451.89 600.46
  A 0.87 0.86 90.0 0 1 452.75 601.33
  L 452.75 612.94
  A 1.21 1.20 90.0 0 0 453.95 614.15
  L 465.33 614.15
  A 1.20 1.19 90.0 0 0 466.52 612.95
  L 466.52 601.37
  A 0.87 0.87 0.0 0 1 467.39 600.50
  L 479.75 600.50
  A 0.75 0.75 0.0 0 1 480.50 601.25
  L 480.50 612.95
  A 1.14 1.14 0.0 0 0 481.64 614.09
  L 493.12 614.09
  A 1.16 1.16 0.0 0 0 494.28 612.93
  L 494.28 601.71
  A 1.25 1.25 0.0 0 1 495.53 600.46
  L 507.21 600.46
  A 0.96 0.96 0.0 0 1 508.17 601.42
  L 508.17 613.12
  A 1.04 1.03 90.0 0 0 509.20 614.16
  L 520.63 614.16
  A 1.25 1.25 0.0 0 0 521.88 612.91
  L 521.88 601.62
  A 0.91 0.91 0.0 0 1 522.75 600.71
  L 535.06 600.09
  A 0.71 0.71 0.0 0 0 535.73 599.38
  L 535.73 587.64
  A 1.08 1.08 0.0 0 1 536.81 586.56
  L 548.66 586.56
  A 0.65 0.65 0.0 0 1 549.31 587.18
  L 549.91 599.07
  A 1.48 1.47 -1.4 0 0 551.39 600.47
  L 561.92 600.47
  A 1.19 1.19 0.0 0 1 563.11 601.60
  L 563.68 613.06
  A 1.13 1.13 0.0 0 0 564.81 614.13
  L 576.21 614.13
  A 1.05 1.05 0.0 0 1 577.26 615.18
  L 577.26 626.80
  A 0.80 0.80 0.0 0 1 576.50 627.60
  L 564.51 628.20
  A 0.97 0.97 0.0 0 0 563.59 629.17
  L 563.59 640.90
  A 0.83 0.82 90.0 0 0 564.41 641.73
  L 575.90 641.73
  A 1.38 1.37 0.0 0 1 577.28 643.10
  L 577.28 654.13
  A 1.19 1.19 0.0 0 1 576.15 655.32
  L 564.06 655.92
  A 0.57 0.57 0.0 0 0 563.52 656.49
  L 563.52 667.34
  A 2.18 2.18 0.0 0 0 565.70 669.52
  L 576.21 669.52
  A 1.17 1.16 0.0 0 1 577.38 670.68
  L 577.38 695.73
  A 1.43 1.43 0.0 0 0 578.81 697.16
  L 590.49 697.16
  A 0.79 0.79 0.0 0 1 591.28 697.95
  C 591.32 707.11 591.91 716.39 590.47 724.86
  Z"
/>
<rect fill="#5f5b57" x="-6.79" y="-6.79" transform="translate(418.15,551.90) rotate(-0.5)" width="13.58" height="13.58" rx="1.30"/>
<path fill="#312823" d="
  M 299.45 586.53
  L 287.33 586.46
  A 0.53 0.52 89.4 0 1 286.81 585.94
  L 286.70 572.76
  L 300.08 572.71
  A 0.45 0.45 0.0 0 1 300.53 573.16
  Q 300.53 579.52 300.53 585.83
  Q 300.53 586.37 300.23 586.50
  Q 299.94 586.62 299.45 586.53
  Z"
/>
<path fill="#c4bfb6" d="
  M 162.15 600.46
  L 148.89 600.41
  A 0.52 0.52 0.0 0 1 148.38 599.89
  L 148.34 586.61
  L 161.60 586.63
  A 0.51 0.51 0.0 0 1 162.11 587.14
  L 162.15 600.46
  Z"
/>
<path fill="#312823" d="
  M 563.20 683.36
  L 467.04 683.40
  A 0.43 0.43 0.0 0 0 466.61 683.83
  L 466.61 696.49
  A 0.78 0.78 0.0 0 1 465.83 697.27
  L 453.38 697.27
  A 0.60 0.59 -90.0 0 0 452.79 697.87
  L 452.79 711.07
  L 452.76 727.25
  L 429.04 727.30
  A 0.47 0.46 -90.0 0 0 428.58 727.77
  L 428.61 752.54
  L 425.66 752.58
  A 0.49 0.49 0.0 0 0 425.18 753.05
  L 424.80 764.43
  Q 416.88 741.24 395.37 731.65
  Q 381.94 725.66 366.35 725.91
  Q 354.49 723.50 342.13 726.20
  L 342.10 642.24
  A 0.39 0.39 0.0 0 0 341.71 641.86
  L 328.82 641.86
  A 0.56 0.56 0.0 0 1 328.26 641.30
  L 328.26 628.55
  A 0.41 0.40 -90.0 0 0 327.86 628.14
  L 314.74 628.14
  A 0.34 0.33 -0.0 0 1 314.40 627.81
  L 314.40 614.83
  A 0.54 0.54 0.0 0 0 313.86 614.29
  L 301.22 614.29
  A 0.67 0.66 -90.0 0 1 300.56 613.62
  L 300.55 586.95
  L 300.77 586.75
  A 0.67 0.65 -65.3 0 1 301.21 586.58
  L 327.73 586.58
  A 0.54 0.54 0.0 0 1 328.27 587.12
  L 328.27 599.90
  A 0.49 0.48 90.0 0 0 328.75 600.39
  L 341.53 600.39
  A 0.58 0.58 0.0 0 1 342.11 600.97
  L 342.11 613.79
  A 0.49 0.48 0.0 0 0 342.60 614.27
  L 355.27 614.27
  A 0.58 0.57 90.0 0 1 355.84 614.85
  L 355.84 627.67
  A 0.44 0.44 0.0 0 0 356.28 628.11
  L 382.81 628.11
  A 0.75 0.75 0.0 0 1 383.56 628.86
  L 383.56 641.22
  A 0.60 0.60 0.0 0 0 384.16 641.82
  L 396.90 641.82
  A 0.53 0.53 0.0 0 1 397.43 642.35
  L 397.43 655.16
  A 0.52 0.52 0.0 0 0 397.95 655.68
  L 493.95 655.68
  A 0.38 0.38 0.0 0 0 494.33 655.30
  L 494.33 642.40
  A 0.61 0.60 -90.0 0 1 494.93 641.79
  L 521.46 641.79
  A 0.51 0.50 -0.0 0 0 521.97 641.29
  L 521.97 628.76
  A 0.72 0.72 0.0 0 1 522.69 628.04
  L 535.34 628.04
  A 0.48 0.48 0.0 0 0 535.82 627.56
  L 535.82 614.89
  A 0.69 0.68 90.0 0 1 536.50 614.20
  L 548.52 614.20
  A 1.06 1.05 -90.0 0 1 549.57 615.26
  L 549.57 668.85
  A 0.63 0.62 0.0 0 0 550.20 669.47
  L 562.92 669.47
  A 0.49 0.49 0.0 0 1 563.41 669.97
  L 563.20 683.36
  Z"
/>
<path fill="#c4bfb6" d="
  M 189.74 628.07
  L 176.51 628.05
  A 0.56 0.56 0.0 0 1 175.95 627.49
  L 175.95 614.79
  A 0.49 0.49 0.0 0 0 175.46 614.30
  L 162.60 614.30
  A 0.46 0.46 0.0 0 1 162.14 613.84
  L 162.15 600.46
  L 175.40 600.53
  A 0.58 0.58 0.0 0 1 175.97 601.11
  L 175.97 613.85
  A 0.48 0.48 0.0 0 0 176.45 614.33
  L 189.15 614.33
  A 0.60 0.59 90.0 0 1 189.74 614.93
  L 189.74 628.07
  Z"
/>
<rect fill="#5f5b57" x="-6.80" y="-6.80" transform="translate(265.90,607.44) rotate(-0.7)" width="13.60" height="13.60" rx="1.14"/>
<path fill="#312823" d="
  M 784.96 614.18
  L 784.94 627.80
  L 784.92 655.63
  L 771.74 655.67
  A 0.51 0.51 0.0 0 0 771.23 656.18
  L 771.18 669.37
  L 771.20 724.41
  A 0.36 0.35 -90.0 0 0 771.55 724.77
  L 784.40 724.77
  A 0.56 0.56 0.0 0 1 784.96 725.33
  L 784.96 738.20
  A 0.43 0.42 -90.0 0 0 785.38 738.63
  L 795.28 738.63
  L 795.18 752.44
  L 785.53 752.54
  A 0.53 0.53 0.0 0 0 785.01 753.06
  Q 784.93 758.98 785.06 764.74
  Q 785.08 765.50 784.56 765.54
  L 768.60 729.11
  A 0.79 0.77 78.9 0 0 767.92 728.64
  L 756.80 727.98
  Q 743.25 726.27 729.41 727.50
  Q 729.72 726.17 729.57 725.33
  A 0.67 0.67 0.0 0 0 728.91 724.78
  L 716.16 724.78
  A 0.44 0.43 -90.0 0 1 715.73 724.34
  L 715.73 711.39
  A 0.42 0.42 0.0 0 0 715.31 710.97
  L 702.55 710.97
  A 0.70 0.70 0.0 0 1 701.85 710.27
  L 701.85 656.05
  A 0.44 0.44 0.0 0 1 702.29 655.61
  L 715.14 655.61
  A 0.53 0.52 90.0 0 0 715.66 655.08
  L 715.69 628.21
  L 715.74 614.22
  L 784.96 614.18
  Z"
/>
<rect fill="#5f5b57" x="-6.82" y="-6.83" transform="translate(252.14,621.19) rotate(-0.1)" width="13.64" height="13.66" rx="1.26"/>
<path fill="#5f5b57" d="
  M 606.36 614.18
  L 617.50 614.18
  A 1.31 1.31 0.0 0 1 618.81 615.49
  L 618.81 626.64
  A 1.31 1.31 0.0 0 1 617.50 627.95
  L 606.36 627.95
  A 1.31 1.31 0.0 0 1 605.05 626.64
  L 605.05 615.49
  A 1.31 1.31 0.0 0 1 606.36 614.18
  Z"
/>
<rect fill="#5f5b57" x="-6.93" y="-6.91" transform="translate(625.75,634.84) rotate(0.3)" width="13.86" height="13.82" rx="1.40"/>
<rect fill="#5f5b57" x="632.74" y="641.68" width="13.78" height="13.78" rx="1.81"/>
<path fill="#c4bfb6" d="
  M 203.66 655.90
  L 190.34 655.68
  A 0.53 0.52 90.0 0 1 189.83 655.16
  L 189.79 641.97
  L 203.00 642.00
  A 0.53 0.52 89.4 0 1 203.52 642.52
  L 203.66 655.90
  Z"
/>
<path fill="#c4bfb6" d="
  M 784.92 655.63
  L 784.91 668.81
  A 0.52 0.52 0.0 0 1 784.39 669.33
  L 771.18 669.37
  L 771.23 656.18
  A 0.51 0.51 0.0 0 1 771.74 655.67
  L 784.92 655.63
  Z"
/>
<path fill="#5f5b57" d="
  M 260.43 655.82
  L 271.52 655.82
  A 1.28 1.28 0.0 0 1 272.80 657.10
  L 272.80 668.23
  A 1.28 1.28 0.0 0 1 271.52 669.51
  L 260.43 669.51
  A 1.28 1.28 0.0 0 1 259.15 668.23
  L 259.15 657.10
  A 1.28 1.28 0.0 0 1 260.43 655.82
  Z"
/>
<rect fill="#5f5b57" x="272.91" y="669.59" width="13.82" height="13.84" rx="1.11"/>
<path fill="#c4bfb6" d="
  M 563.20 683.36
  L 563.52 696.43
  A 0.82 0.81 -0.7 0 0 564.34 697.22
  L 576.76 697.22
  A 0.59 0.59 0.0 0 1 577.35 697.81
  L 577.38 710.97
  L 564.11 710.97
  A 0.58 0.57 -0.0 0 1 563.53 710.40
  L 563.53 697.91
  A 0.65 0.65 0.0 0 0 562.88 697.26
  L 467.13 697.26
  A 0.51 0.51 0.0 0 0 466.62 697.77
  L 466.62 710.74
  A 0.34 0.34 0.0 0 1 466.28 711.08
  L 452.79 711.07
  L 452.79 697.87
  A 0.60 0.59 90.0 0 1 453.38 697.27
  L 465.83 697.27
  A 0.78 0.78 0.0 0 0 466.61 696.49
  L 466.61 683.83
  A 0.43 0.43 0.0 0 1 467.04 683.40
  L 563.20 683.36
  Z"
/>
<rect fill="#5f5b57" x="-6.90" y="-6.90" transform="translate(293.66,690.35) rotate(-0.2)" width="13.80" height="13.80" rx="1.31"/>
<rect fill="#5f5b57" x="-6.88" y="-6.88" transform="translate(639.57,717.92) rotate(0.4)" width="13.76" height="13.76" rx="0.74"/>
<path fill="#1f326d" d="
  M 366.35 725.91
  Q 353.57 726.34 342.68 730.68
  C 315.06 741.69 302.22 771.20 311.67 799.23
  C 318.13 818.40 335.16 831.00 354.51 834.62
  Q 337.10 834.14 323.50 826.25
  Q 304.82 815.42 298.90 794.00
  L 297.13 780.24
  Q 296.90 765.93 303.77 752.97
  Q 316.77 731.34 342.13 726.20
  Q 354.49 723.50 366.35 725.91
  Z"
/>
<path fill="#c4bfb6" d="
  M 590.47 724.86
  Q 591.56 725.22 591.23 727.00
  L 577.24 727.22
  Q 577.94 726.33 577.43 724.88
  L 590.47 724.86
  Z"
/>
<path fill="#c4bfb6" d="
  M 217.42 726.81
  Q 218.24 726.00 217.35 726.73
  A 1.46 1.41 24.1 0 1 216.47 727.05
  L 204.19 727.10
  Q 204.59 725.83 203.96 725.50
  Q 203.89 725.14 204.25 725.13
  Q 210.37 724.99 216.51 725.05
  Q 218.08 725.07 217.42 726.81
  Z"
/>
<path fill="#ffad25" d="
  M 366.35 725.91
  Q 381.94 725.66 395.37 731.65
  Q 416.88 741.24 424.80 764.43
  Q 424.71 765.13 425.26 766.49
  Q 426.93 773.31 427.14 780.26
  C 426.66 820.13 391.63 841.20 354.51 834.62
  C 335.16 831.00 318.13 818.40 311.67 799.23
  C 302.22 771.20 315.06 741.69 342.68 730.68
  Q 353.57 726.34 366.35 725.91
  Z"
/>
<g stroke-width="2.00" fill="none" stroke-linecap="butt">
<path stroke="#8a91a8" vector-effect="non-scaling-stroke" d="
  M 360.09 805.95
  Q 375.10 802.39 378.78 788.52
  Q 381.91 776.72 376.82 766.17"
/>
<path stroke="#727992" vector-effect="non-scaling-stroke" d="
  M 376.82 766.17
  Q 372.70 758.04 364.76 754.94"
/>
<path stroke="#ddd7cd" vector-effect="non-scaling-stroke" d="
  M 376.82 766.17
  L 355.95 766.50"
/>
<path stroke="#928d87" vector-effect="non-scaling-stroke" d="
  M 355.95 766.50
  L 355.90 765.55"
/>
<path stroke="#9a918a" vector-effect="non-scaling-stroke" d="
  M 355.90 765.55
  L 355.98 757.96"
/>
<path stroke="#ddd7cd" vector-effect="non-scaling-stroke" d="
  M 347.13 794.20
  L 355.32 794.10
  A 0.52 0.52 0.0 0 0 355.84 793.58
  L 355.89 780.27"
/>
<path stroke="#685f5b" vector-effect="non-scaling-stroke" d="
  M 355.90 765.55
  L 355.14 766.24
  A 1.15 1.12 26.0 0 1 354.26 766.53
  L 348.16 765.93"
/>
<path stroke="#aaa59d" vector-effect="non-scaling-stroke" d="
  M 355.95 766.50
  L 355.89 780.27"
/>
<path stroke="#928d87" vector-effect="non-scaling-stroke" d="
  M 355.89 780.27
  L 344.41 780.27"
/>
</g>
<path fill="#1f326d" d="
  M 224.77 728.41
  L 203.14 728.50
  A 0.72 0.71 9.0 0 0 202.46 728.99
  L 183.79 787.33
  A 0.29 0.29 0.0 0 1 183.23 787.33
  L 177.66 768.96
  L 191.20 727.84
  A 0.72 0.71 -81.2 0 1 191.86 727.35
  L 204.19 727.10
  L 216.47 727.05
  A 1.46 1.41 24.1 0 0 217.35 726.73
  Q 218.24 726.00 217.42 726.81
  Q 223.36 726.47 224.77 728.41
  Z"
/>
<path fill="#1f326d" d="
  M 631.96 728.62
  L 583.69 728.45
  A 0.52 0.52 0.0 0 0 583.17 728.97
  L 583.17 831.53
  A 0.79 0.72 -28.4 0 1 583.01 831.99
  Q 582.77 832.29 582.56 832.24
  L 572.17 832.21
  A 0.52 0.51 -0.0 0 1 571.65 831.70
  L 571.65 727.79
  A 0.56 0.56 0.0 0 1 572.21 727.23
  L 577.24 727.22
  L 591.23 727.00
  L 633.13 727.11
  A 0.53 0.53 0.0 0 1 633.31 728.13
  L 631.96 728.62
  Z"
/>
<path fill="#5f5b57" d="
  M 154.34 728.06
  Q 141.60 729.14 129.25 728.40
  L 128.50 727.38
  Q 141.69 726.09 154.34 728.06
  Z"
/>
<path fill="#1f326d" d="
  M 295.26 727.82
  Q 284.14 729.09 273.50 728.49
  A 0.65 0.65 0.0 0 0 272.84 728.95
  L 253.86 788.24
  A 0.28 0.27 -44.5 0 1 253.33 788.24
  L 247.76 769.36
  Q 248.60 768.06 248.82 766.69
  L 253.21 752.97
  L 261.31 727.77
  A 0.71 0.71 0.0 0 1 261.96 727.27
  Q 278.57 726.49 295.26 727.82
  Z"
/>
<path fill="#1f326d" d="
  M 452.76 727.25
  Q 454.41 727.02 456.25 727.10
  Q 457.91 727.17 458.45 728.54
  L 440.58 728.47
  A 0.49 0.49 0.0 0 0 440.09 728.96
  L 439.77 832.22
  L 429.14 832.15
  A 0.53 0.52 89.4 0 1 428.62 831.63
  L 428.55 780.21
  L 428.55 766.46
  L 428.61 752.54
  L 428.58 727.77
  A 0.47 0.46 -90.0 0 1 429.04 727.30
  L 452.76 727.25
  Z"
/>
<path fill="#1f326d" d="
  M 554.43 728.45
  L 537.31 728.46
  A 1.10 1.08 -74.2 0 0 536.38 728.99
  L 503.63 784.06
  A 0.25 0.24 -45.7 0 1 503.21 784.07
  L 497.16 774.28
  L 524.84 727.76
  A 1.03 1.01 14.8 0 1 525.70 727.27
  Q 539.48 727.11 553.22 727.10
  Q 553.84 727.10 554.13 727.48
  Q 554.43 727.86 554.43 728.45
  Z"
/>
<path fill="#1f326d" d="
  M 756.80 727.98
  Q 745.17 728.96 734.25 728.51
  A 0.88 0.88 0.0 0 0 733.40 729.04
  Q 710.99 780.26 688.62 831.42
  Q 688.45 831.80 688.22 831.95
  Q 687.93 832.14 687.58 832.17
  L 676.62 832.23
  A 0.26 0.26 0.0 0 1 676.38 831.86
  L 681.03 821.01
  Q 685.35 815.27 686.41 808.62
  L 692.77 794.27
  L 698.87 780.26
  L 704.73 766.99
  L 721.95 727.79
  A 0.77 0.76 -77.0 0 1 722.68 727.33
  L 729.41 727.50
  Q 743.25 726.27 756.80 727.98
  Z"
/>
<path fill="#5f5b57" d="
  M 892.22 728.21
  L 807.14 728.58
  L 806.77 727.11
  Q 849.01 726.99 891.23 727.10
  Q 892.48 727.10 892.22 728.21
  Z"
/>
<path fill="#1f326d" d="
  M 128.50 727.38
  L 129.25 728.40
  Q 128.70 728.57 128.84 728.99
  Q 145.34 780.61 161.84 832.23
  L 151.09 832.27
  A 0.49 0.48 80.8 0 1 150.63 831.93
  L 117.39 727.97
  A 0.41 0.40 81.0 0 1 117.77 727.44
  L 128.50 727.38
  Z"
/>
<path fill="#1f326d" d="
  M 806.77 727.11
  L 807.14 728.58
  Q 807.20 728.39 807.01 728.57
  A 0.41 0.38 -24.2 0 0 806.89 728.85
  L 806.77 755.55
  Q 803.66 754.09 798.76 754.92
  Q 797.46 754.60 795.93 754.78
  A 0.50 0.50 0.0 0 1 795.37 754.34
  L 795.18 752.44
  L 795.28 738.63
  L 795.35 727.54
  A 0.27 0.27 0.0 0 1 795.62 727.27
  L 806.77 727.11
  Z"
/>
<path fill="#ffad25" d="
  M 837.07 832.23
  Q 837.32 832.23 837.48 832.06
  A 0.32 0.31 68.1 0 0 837.57 831.84
  L 837.57 756.63
  A 0.53 0.52 -89.4 0 0 837.06 756.10
  L 826.07 755.95
  L 806.77 755.55
  L 806.89 728.85
  A 0.41 0.38 -24.2 0 1 807.01 728.57
  Q 807.20 728.39 807.14 728.58
  L 892.22 728.21
  L 903.29 728.53
  A 0.44 0.44 0.0 0 1 903.72 728.97
  L 903.72 755.39
  A 0.59 0.59 0.0 0 1 903.13 755.98
  L 873.56 755.98
  A 0.62 0.62 0.0 0 0 872.94 756.60
  L 872.94 833.22
  A 0.30 0.29 -90.0 0 1 872.65 833.52
  Q 854.53 833.54 838.50 833.51
  Q 837.25 833.50 837.07 832.23
  Z"
/>
<path fill="#ffad25" d="
  M 554.43 728.45
  L 565.52 728.49
  A 0.40 0.40 0.0 0 1 565.92 728.89
  L 565.92 833.03
  A 0.50 0.49 -0.0 0 1 565.42 833.52
  L 534.96 833.52
  A 1.92 1.77 -36.0 0 1 534.53 833.47
  Q 533.12 833.09 533.76 832.21
  L 533.55 786.55
  A 0.24 0.23 59.9 0 0 533.11 786.43
  L 522.15 805.53
  Q 521.79 805.42 521.58 805.77
  Q 516.25 814.72 510.97 823.56
  A 0.87 0.85 -75.1 0 1 510.28 823.97
  Q 501.82 824.47 494.61 823.31
  L 472.68 787.88
  A 0.17 0.17 0.0 0 0 472.36 787.97
  L 472.39 804.77
  L 472.31 833.16
  A 0.37 0.37 0.0 0 1 471.94 833.52
  Q 456.37 833.52 440.75 833.52
  Q 439.93 833.52 439.77 832.22
  L 440.09 728.96
  A 0.49 0.49 0.0 0 1 440.58 728.47
  L 458.45 728.54
  L 468.59 728.48
  A 1.04 1.02 -15.6 0 1 469.47 728.97
  L 497.16 774.28
  L 503.21 784.07
  A 0.25 0.24 -45.7 0 0 503.63 784.06
  L 536.38 728.99
  A 1.10 1.08 -74.2 0 1 537.31 728.46
  L 554.43 728.45
  Z"
/>
<path fill="#ffad25" d="
  M 129.25 728.40
  Q 141.60 729.14 154.34 728.06
  L 164.68 728.61
  A 0.71 0.69 82.1 0 1 165.31 729.10
  L 177.66 768.96
  L 183.23 787.33
  A 0.29 0.29 0.0 0 0 183.79 787.33
  L 202.46 728.99
  A 0.72 0.71 9.0 0 1 203.14 728.50
  L 224.77 728.41
  L 231.54 728.46
  L 234.82 728.58
  A 0.72 0.72 0.0 0 1 235.48 729.09
  L 242.66 752.73
  L 246.90 766.67
  Q 247.74 767.72 247.76 769.36
  L 253.33 788.24
  A 0.28 0.27 -44.5 0 0 253.86 788.24
  L 272.84 728.95
  A 0.65 0.65 0.0 0 1 273.50 728.49
  Q 284.14 729.09 295.26 727.82
  Q 300.22 728.95 306.12 728.51
  A 0.32 0.32 0.0 0 1 306.45 728.93
  L 299.06 752.03
  L 290.04 780.20
  L 285.52 794.28
  L 273.09 833.14
  A 0.56 0.56 0.0 0 1 272.56 833.52
  L 235.91 833.52
  A 1.12 1.10 -20.6 0 1 235.08 833.15
  L 234.29 832.23
  L 218.25 777.87
  A 0.18 0.18 0.0 0 0 217.91 777.86
  L 212.39 795.55
  L 200.33 833.19
  A 0.49 0.48 -80.8 0 1 199.87 833.53
  Q 181.50 833.51 163.25 833.42
  Q 161.59 833.42 161.84 832.23
  Q 145.34 780.61 128.84 728.99
  Q 128.70 728.57 129.25 728.40
  Z"
/>
<path fill="#ffad25" d="
  M 631.96 728.62
  Q 638.49 728.79 644.99 728.87
  Q 656.74 729.01 667.28 733.97
  C 679.81 739.88 684.81 753.40 679.66 766.19
  Q 675.81 774.23 667.73 778.23
  A 0.28 0.28 0.0 0 0 667.75 778.74
  L 671.54 780.28
  Q 673.72 781.81 675.92 783.36
  Q 681.79 787.46 684.58 793.99
  Q 686.11 797.75 686.44 801.77
  Q 686.69 804.88 686.41 808.62
  Q 685.35 815.27 681.03 821.01
  Q 679.73 822.08 678.51 823.18
  C 669.03 831.75 654.30 833.42 642.00 833.47
  Q 620.39 833.57 583.99 833.50
  A 1.02 0.97 -26.8 0 1 583.43 833.33
  Q 582.91 832.98 582.56 832.24
  Q 582.77 832.29 583.01 831.99
  A 0.79 0.72 -28.4 0 0 583.17 831.53
  L 583.17 728.97
  A 0.52 0.52 0.0 0 1 583.69 728.45
  L 631.96 728.62
  Z"
/>
<g stroke-width="2.00" fill="none" stroke-linecap="butt">
<path stroke="#3f4762" vector-effect="non-scaling-stroke" d="
  M 631.39 753.15
  Q 635.78 757.83 634.00 762.48
  Q 632.72 765.83 629.68 766.50"
/>
<path stroke="#928d87" vector-effect="non-scaling-stroke" d="
  M 629.68 766.50
  L 619.70 766.35
  A 0.82 0.81 -89.6 0 1 618.90 765.53
  L 618.87 753.57"
/>
<path stroke="#727992" vector-effect="non-scaling-stroke" d="
  M 618.04 768.50
  Q 620.73 766.90 624.76 767.60
  Q 625.94 767.81 629.68 766.50"
/>
<path stroke="#8a91a8" vector-effect="non-scaling-stroke" d="
  M 618.07 807.45
  Q 629.53 807.92 632.93 806.96
  Q 641.06 804.65 638.94 796.35
  Q 638.25 793.65 634.98 792.28"
/>
</g>
<path fill="#ffad25" d="
  M 756.80 727.98
  L 767.92 728.64
  A 0.79 0.77 78.9 0 1 768.60 729.11
  L 784.56 765.54
  L 784.96 766.29
  L 791.03 780.21
  L 814.16 833.17
  A 0.24 0.24 0.0 0 1 813.94 833.51
  Q 796.38 833.53 778.75 833.52
  Q 776.74 833.52 777.11 832.18
  L 770.85 815.79
  A 0.73 0.73 0.0 0 0 770.17 815.32
  L 759.72 815.32
  L 731.31 815.33
  A 0.85 0.85 0.0 0 0 730.52 815.87
  L 723.86 833.12
  A 0.63 0.62 9.8 0 1 723.29 833.52
  Q 721.93 833.53 688.49 833.52
  Q 687.73 833.52 687.58 832.17
  Q 687.93 832.14 688.22 831.95
  Q 688.45 831.80 688.62 831.42
  Q 710.99 780.26 733.40 729.04
  A 0.88 0.88 0.0 0 1 734.25 728.51
  Q 745.17 728.96 756.80 727.98
  Z"
/>
<g stroke-width="2.00" fill="none" stroke-linecap="butt">
<path stroke="#727992" vector-effect="non-scaling-stroke" d="
  M 741.42 788.29
  L 743.31 788.28"
/>
<path stroke="#484a66" vector-effect="non-scaling-stroke" d="
  M 743.31 788.28
  L 748.83 788.42
  A 0.30 0.29 83.3 0 0 749.12 788.05
  Q 747.77 783.02 744.91 778.56"
/>
<path stroke="#9a918a" vector-effect="non-scaling-stroke" d="
  M 743.31 788.28
  L 743.38 783.61"
/>
</g>
<path fill="#5f5b57" d="
  M 303.77 752.97
  Q 296.90 765.93 297.13 780.24
  L 290.04 780.20
  L 299.06 752.03
  L 303.77 752.97
  Z"
/>
<path fill="#5f5b57" d="
  M 253.21 752.97
  L 248.82 766.69
  Q 248.58 766.01 246.90 766.67
  L 242.66 752.73
  L 253.21 752.97
  Z"
/>
<path fill="#70625e" d="
  M 428.61 752.54
  L 428.55 766.46
  L 425.26 766.49
  Q 424.71 765.13 424.80 764.43
  L 425.18 753.05
  A 0.49 0.49 0.0 0 1 425.66 752.58
  L 428.61 752.54
  Z"
/>
<path fill="#70625e" d="
  M 795.18 752.44
  L 795.37 754.34
  A 0.50 0.50 0.0 0 0 795.93 754.78
  Q 797.46 754.60 798.76 754.92
  L 798.71 766.30
  L 784.96 766.29
  L 784.56 765.54
  Q 785.08 765.50 785.06 764.74
  Q 784.93 758.98 785.01 753.06
  A 0.53 0.53 0.0 0 1 785.53 752.54
  L 795.18 752.44
  Z"
/>
<path fill="#5f5b57" d="
  M 631.39 753.15
  Q 635.78 757.83 634.00 762.48
  Q 632.72 765.83 629.68 766.50
  L 619.70 766.35
  A 0.82 0.81 -89.6 0 1 618.90 765.53
  L 618.87 753.57
  L 631.39 753.15
  Z"
/>
<path fill="#1f326d" d="
  M 618.04 768.50
  Q 620.73 766.90 624.76 767.60
  Q 625.94 767.81 629.68 766.50
  Q 632.72 765.83 634.00 762.48
  Q 635.78 757.83 631.39 753.15
  C 635.75 753.25 639.47 753.27 642.84 755.10
  C 646.12 756.90 646.65 761.37 645.21 764.42
  C 643.86 767.25 640.01 768.57 637.23 768.71
  Q 628.79 769.14 618.04 768.50
  Z"
/>
<path fill="#c4bfb6" d="
  M 618.87 753.57
  L 618.90 765.53
  A 0.82 0.81 -89.6 0 0 619.70 766.35
  L 629.68 766.50
  Q 625.94 767.81 624.76 767.60
  Q 620.73 766.90 618.04 768.50
  Q 617.92 760.40 618.17 754.25
  Q 618.20 753.51 618.87 753.57
  Z"
/>
<path fill="#1f326d" d="
  M 360.09 805.95
  Q 375.10 802.39 378.78 788.52
  Q 381.91 776.72 376.82 766.17
  Q 372.70 758.04 364.76 754.94
  Q 379.37 753.44 386.96 764.80
  C 393.72 774.93 393.05 791.97 383.65 801.02
  Q 374.28 810.03 360.09 805.95
  Z"
/>
<path fill="#c4bfb6" d="
  M 364.76 754.94
  Q 372.70 758.04 376.82 766.17
  L 355.95 766.50
  L 355.90 765.55
  L 355.98 757.96
  Q 359.96 755.58 364.76 754.94
  Z"
/>
<path fill="#1f326d" d="
  M 837.07 832.23
  L 826.39 832.22
  A 0.33 0.33 0.0 0 1 826.06 831.89
  L 826.07 755.95
  L 837.06 756.10
  A 0.53 0.52 -89.4 0 1 837.57 756.63
  L 837.57 831.84
  A 0.32 0.31 68.1 0 1 837.48 832.06
  Q 837.32 832.23 837.07 832.23
  Z"
/>
<path fill="#70625e" d="
  M 355.98 757.96
  L 355.90 765.55
  L 355.14 766.24
  A 1.15 1.12 26.0 0 1 354.26 766.53
  L 348.16 765.93
  Q 351.13 760.87 355.98 757.96
  Z"
/>
<path fill="#1f326d" d="
  M 741.42 788.29
  L 743.31 788.28
  L 748.83 788.42
  A 0.30 0.29 83.3 0 0 749.12 788.05
  Q 747.77 783.02 744.91 778.56
  L 750.50 763.85
  A 0.25 0.25 0.0 0 1 750.96 763.85
  L 760.72 789.28
  A 0.40 0.40 0.0 0 1 760.35 789.82
  L 741.19 789.82
  A 0.44 0.44 0.0 0 1 740.76 789.27
  Q 740.90 788.73 741.42 788.29
  Z"
/>
<path fill="#5f5b57" d="
  M 355.90 765.55
  L 355.95 766.50
  L 355.89 780.27
  L 344.41 780.27
  Q 344.31 772.33 348.16 765.93
  L 354.26 766.53
  A 1.15 1.12 26.0 0 0 355.14 766.24
  L 355.90 765.55
  Z"
/>
<path fill="#f5efe3" d="
  M 376.82 766.17
  Q 381.91 776.72 378.78 788.52
  Q 375.10 802.39 360.09 805.95
  Q 351.43 802.99 347.13 794.20
  L 355.32 794.10
  A 0.52 0.52 0.0 0 0 355.84 793.58
  L 355.89 780.27
  L 355.95 766.50
  L 376.82 766.17
  Z"
/>
<path fill="#c4bfb6" d="
  M 248.82 766.69
  Q 248.60 768.06 247.76 769.36
  Q 247.74 767.72 246.90 766.67
  Q 248.58 766.01 248.82 766.69
  Z"
/>
<path fill="#c4bfb6" d="
  M 428.55 766.46
  L 428.55 780.21
  Q 427.82 780.06 427.14 780.26
  Q 426.93 773.31 425.26 766.49
  L 428.55 766.46
  Z"
/>
<path fill="#5f5b57" d="
  M 679.66 766.19
  C 687.96 766.38 696.57 765.89 704.73 766.99
  L 698.87 780.26
  L 671.54 780.28
  L 667.75 778.74
  A 0.28 0.28 0.0 0 1 667.73 778.23
  Q 675.81 774.23 679.66 766.19
  Z"
/>
<path fill="#c4bfb6" d="
  M 798.71 766.30
  L 798.67 779.64
  A 0.53 0.52 -89.4 0 1 798.15 780.16
  L 791.03 780.21
  L 784.96 766.29
  L 798.71 766.30
  Z"
/>
<path fill="#1f326d" d="
  M 234.29 832.23
  L 224.09 832.17
  A 0.69 0.69 0.0 0 1 223.43 831.68
  L 212.39 795.55
  L 217.91 777.86
  A 0.18 0.18 0.0 0 1 218.25 777.87
  L 234.29 832.23
  Z"
/>
<path fill="#70625e" d="
  M 744.91 778.56
  Q 747.77 783.02 749.12 788.05
  A 0.30 0.29 83.3 0 1 748.83 788.42
  L 743.31 788.28
  L 743.38 783.61
  Q 743.48 781.23 744.91 778.56
  Z"
/>
<path fill="#c4bfb6" d="
  M 290.04 780.20
  L 297.13 780.24
  L 298.90 794.00
  L 285.52 794.28
  L 290.04 780.20
  Z"
/>
<path fill="#c4bfb6" d="
  M 355.89 780.27
  L 355.84 793.58
  A 0.52 0.52 0.0 0 1 355.32 794.10
  L 347.13 794.20
  Q 344.16 787.81 344.41 780.27
  L 355.89 780.27
  Z"
/>
<path fill="#c4bfb6" d="
  M 698.87 780.26
  L 692.77 794.27
  L 684.58 793.99
  Q 681.79 787.46 675.92 783.36
  Q 673.72 781.81 671.54 780.28
  L 698.87 780.26
  Z"
/>
<path fill="#c4bfb6" d="
  M 743.38 783.61
  L 743.31 788.28
  L 741.42 788.29
  Q 741.66 785.41 743.38 783.61
  Z"
/>
<path fill="#1f326d" d="
  M 533.76 832.21
  L 522.88 832.15
  A 0.52 0.52 0.0 0 1 522.36 831.64
  L 522.15 805.53
  L 533.11 786.43
  A 0.24 0.23 59.9 0 1 533.55 786.55
  L 533.76 832.21
  Z"
/>
<path fill="#1f326d" d="
  M 494.61 823.31
  L 484.07 822.60
  A 0.95 0.94 75.4 0 1 483.33 822.16
  L 472.39 804.77
  L 472.36 787.97
  A 0.17 0.17 0.0 0 1 472.68 787.88
  L 494.61 823.31
  Z"
/>
<path fill="#1f326d" d="
  M 618.07 807.45
  Q 629.53 807.92 632.93 806.96
  Q 641.06 804.65 638.94 796.35
  Q 638.25 793.65 634.98 792.28
  Q 640.39 791.94 645.01 792.98
  C 648.99 793.88 651.23 797.24 650.88 801.31
  C 650.29 808.10 643.72 808.60 638.25 808.66
  Q 627.64 808.77 618.55 808.93
  Q 617.87 808.94 618.07 807.45
  Z"
/>
<path fill="#f5efe3" d="
  M 634.98 792.28
  Q 638.25 793.65 638.94 796.35
  Q 641.06 804.65 632.93 806.96
  Q 629.53 807.92 618.07 807.45
  L 618.12 792.88
  A 0.51 0.51 0.0 0 1 618.63 792.37
  L 634.98 792.28
  Z"
/>
<path fill="#f5efe3" d="
  M 692.77 794.27
  L 686.41 808.62
  Q 686.69 804.88 686.44 801.77
  Q 686.11 797.75 684.58 793.99
  L 692.77 794.27
  Z"
/>
<path fill="#1f326d" d="
  M 777.11 832.18
  L 766.78 832.17
  A 0.75 0.74 78.8 0 1 766.09 831.70
  L 759.72 815.32
  L 770.17 815.32
  A 0.73 0.73 0.0 0 1 770.85 815.79
  L 777.11 832.18
  Z"
/>
</svg>
