<?xml version="1.0" encoding="UTF-8" standalone="no"?>
<!DOCTYPE svg PUBLIC "-//W3C//DTD SVG 1.1//EN" "http://www.w3.org/Graphics/SVG/1.1/DTD/svg11.dtd">
<svg xmlns="http://www.w3.org/2000/svg" version="1.1" viewBox="0.00 0.00 1050.00 1050.00">
<path fill="#ffffff" d="
  M 1050.00 0.00
  L 1050.00 1050.00
  L 0.00 1050.00
  L 0.00 0.00
  L 1050.00 0.00
  Z"
/>
<path fill="#0c2374" d="
  M 1013.00 1010.20
  A 0.82 0.82 0.0 0 1 1012.18 1011.02
  L 37.82 1011.02
  A 0.82 0.82 0.0 0 1 37.00 1010.20
  L 37.00 38.82
  A 0.82 0.82 0.0 0 1 37.82 38.00
  L 1012.18 38.00
  A 0.82 0.82 0.0 0 1 1013.00 38.82
  L 1013.00 1010.20
  Z"
/>
<g stroke-width="2.00" fill="none" stroke-linecap="butt">
<path stroke="#8e7363" vector-effect="non-scaling-stroke" d="
  M 603.57 298.13
  Q 603.59 317.14 603.57 336.25
  Q 603.57 336.79 604.30 337.01"
/>
<path stroke="#625654" vector-effect="non-scaling-stroke" d="
  M 604.30 337.01
  L 603.83 337.70
  A 1.62 1.61 61.8 0 0 603.57 338.58
  L 603.57 361.08
  A 1.94 1.93 -90.0 0 1 601.64 363.02
  L 578.76 363.02
  A 1.11 1.10 -0.0 0 0 577.65 364.12
  L 577.65 374.91
  A 1.17 1.17 0.0 0 1 576.48 376.08
  L 565.75 376.08
  A 1.13 1.12 -0.0 0 0 564.62 377.20
  L 564.62 387.94
  A 1.13 1.13 0.0 0 1 563.49 389.07
  L 552.41 389.07
  A 0.65 0.65 0.0 0 0 551.76 389.71
  L 551.61 452.52"
/>
<path stroke="#685f5b" vector-effect="non-scaling-stroke" d="
  M 551.61 452.52
  Q 546.18 454.56 540.23 454.28
  A 1.14 1.14 0.0 0 0 539.03 455.41
  Q 538.42 494.17 538.80 537.48
  Q 538.83 540.95 539.06 543.52
  A 1.19 1.17 -0.3 0 0 540.16 544.60
  L 549.94 545.28
  A 1.95 1.94 2.1 0 1 551.75 547.22
  L 551.75 568.83
  A 1.65 1.65 0.0 0 0 553.17 570.46
  L 563.02 571.78
  A 1.27 1.27 0.0 0 1 564.10 572.85
  L 565.40 581.95
  A 1.63 1.62 0.0 0 0 566.79 583.33
  L 576.33 584.62
  A 1.27 1.26 2.5 0 1 577.43 585.81
  L 577.87 594.95
  A 1.45 1.45 0.0 0 0 579.13 596.32
  L 589.41 597.70
  A 1.35 1.35 0.0 0 1 590.58 598.98
  L 591.01 607.89
  A 1.55 1.53 -87.6 0 0 592.34 609.35
  L 601.71 610.61
  A 1.48 1.48 0.0 0 1 602.98 611.88
  L 604.31 621.20
  A 1.45 1.45 0.0 0 0 605.55 622.44
  L 615.38 623.76
  A 1.34 1.34 0.0 0 1 616.54 625.03
  L 616.99 634.26
  A 1.43 1.42 -1.1 0 0 618.41 635.62
  L 681.53 636.07"
/>
<path stroke="#514541" vector-effect="non-scaling-stroke" d="
  M 681.53 636.07
  L 681.44 661.06
  A 1.00 1.00 0.0 0 1 680.44 662.06
  L 669.31 662.06
  A 0.71 0.70 -0.0 0 0 668.60 662.76
  L 668.60 713.40
  A 0.63 0.63 0.0 0 0 669.23 714.03
  L 680.77 714.03
  A 0.78 0.78 0.0 0 1 681.55 714.81
  Q 681.57 720.67 681.57 725.71
  Q 681.57 726.87 682.19 727.09
  Q 682.76 727.30 683.80 726.92"
/>
<path stroke="#625654" vector-effect="non-scaling-stroke" d="
  M 683.80 726.92
  L 692.85 727.74
  A 0.67 0.67 0.0 0 1 693.46 728.37
  L 693.97 739.05
  A 1.79 1.79 0.0 0 0 695.76 740.75
  L 706.49 740.75
  A 1.09 1.08 0.0 0 1 707.58 741.83
  Q 707.61 748.31 707.36 757.34
  Q 707.20 762.98 709.38 767.03"
/>
<path stroke="#904348" vector-effect="non-scaling-stroke" d="
  M 709.38 767.03
  L 704.32 778.47"
/>
<path stroke="#685f5b" vector-effect="non-scaling-stroke" d="
  M 704.32 778.47
  L 695.19 778.06
  A 0.56 0.56 0.0 0 1 694.65 777.50
  L 694.65 766.75
  A 0.50 0.50 0.0 0 0 694.15 766.25
  L 687.45 766.21"
/>
<path stroke="#a48141" vector-effect="non-scaling-stroke" d="
  M 687.45 766.21
  C 694.15 750.30 686.38 735.90 670.61 730.87
  Q 659.64 727.36 647.50 727.43
  Q 631.65 727.51 615.79 727.53"
/>
<path stroke="#685f5b" vector-effect="non-scaling-stroke" d="
  M 615.79 727.53
  Q 616.92 720.97 616.37 714.65
  A 0.80 0.80 0.0 0 0 615.57 713.92
  L 605.05 713.92
  A 1.21 1.20 -88.5 0 0 603.85 715.07
  L 603.30 727.47"
/>
<path stroke="#a48141" vector-effect="non-scaling-stroke" d="
  M 603.30 727.47
  L 591.40 727.75"
/>
<path stroke="#904348" vector-effect="non-scaling-stroke" d="
  M 591.40 727.75
  L 576.50 727.89
  A 0.51 0.51 0.0 0 0 576.00 728.40
  L 575.97 739.98"
/>
<path stroke="#a48141" vector-effect="non-scaling-stroke" d="
  M 574.11 739.20
  L 573.87 728.16
  A 0.54 0.54 0.0 0 0 573.34 727.63
  L 565.30 727.56"
/>
<path stroke="#685f5b" vector-effect="non-scaling-stroke" d="
  M 565.30 727.56
  L 564.43 702.32
  A 0.98 0.98 0.0 0 0 563.52 701.38
  L 553.09 700.65
  A 1.10 1.09 -89.4 0 1 552.08 699.61
  L 550.96 676.42
  A 1.08 1.08 0.0 0 0 549.96 675.39
  L 540.19 674.71
  A 0.64 0.63 84.2 0 1 539.62 674.24
  Q 538.13 669.07 538.47 663.53
  A 1.66 1.65 0.4 0 1 540.05 661.98
  L 550.29 661.48
  A 1.19 1.18 88.7 0 0 551.42 660.29
  L 551.42 650.38
  A 1.00 0.99 -88.2 0 0 550.49 649.38
  L 539.83 648.63
  A 1.38 1.37 2.0 0 1 538.55 647.26
  L 538.55 637.68
  A 1.58 1.57 88.7 0 1 540.05 636.10
  L 550.07 635.61
  A 1.33 1.32 -1.4 0 0 551.34 634.29
  L 551.34 624.64
  A 1.27 1.26 1.9 0 0 550.16 623.38
  L 540.26 622.69
  A 1.75 1.73 0.8 0 1 538.64 621.04
  L 538.18 611.42
  A 1.02 1.02 0.0 0 0 537.24 610.46
  L 526.63 609.72
  A 1.13 1.13 0.0 0 1 525.57 608.59
  L 525.57 598.22
  A 1.04 1.03 90.0 0 0 524.54 597.18
  L 513.88 597.18
  A 1.25 1.24 90.0 0 0 512.64 598.43
  L 512.64 608.61
  A 1.07 1.07 0.0 0 1 511.62 609.68
  L 501.34 610.17
  A 1.32 1.31 0.5 0 0 500.09 611.39
  L 499.38 621.60
  A 1.23 1.23 0.0 0 1 498.22 622.74
  L 488.95 623.18
  A 2.32 2.31 -1.4 0 1 486.52 620.87
  L 486.52 611.25
  A 1.06 1.05 90.0 0 0 485.47 610.19
  L 475.12 610.19
  A 1.25 1.25 0.0 0 0 473.87 611.35
  L 473.15 621.64
  A 1.26 1.25 -88.0 0 1 471.90 622.81
  L 462.21 622.81
  A 1.55 1.54 -90.0 0 1 460.67 621.26
  L 460.67 611.37
  A 1.24 1.24 0.0 0 0 459.43 610.13
  L 449.46 610.13
  A 1.57 1.56 -87.8 0 0 447.90 611.58
  L 447.21 621.57
  A 1.35 1.35 0.0 0 1 445.86 622.82
  L 436.32 622.82
  A 1.39 1.39 0.0 0 1 434.93 621.49
  L 434.43 611.19
  A 1.00 1.00 0.0 0 0 433.43 610.23
  L 423.24 610.23
  A 1.36 1.36 0.0 0 0 421.88 611.49
  L 421.19 621.44
  A 1.32 1.32 0.0 0 1 419.98 622.66
  Q 418.48 622.77 411.75 623.09
  Q 409.41 623.20 408.69 621.16
  A 1.00 0.96 -55.2 0 1 408.64 620.85
  L 408.43 611.19
  A 1.07 1.06 -0.5 0 0 407.36 610.15
  L 397.41 610.15
  A 1.28 1.27 -87.8 0 0 396.14 611.33
  L 395.44 621.43
  A 1.54 1.54 0.0 0 1 393.90 622.86
  L 384.61 622.86
  A 1.70 1.70 0.0 0 1 382.91 621.24
  L 382.43 611.16
  A 0.97 0.97 0.0 0 0 381.46 610.24
  L 371.11 610.24
  A 1.08 1.07 -88.0 0 0 370.04 611.24
  L 369.29 621.88
  A 1.01 1.00 1.8 0 1 368.28 622.82
  L 358.25 622.82
  A 1.72 1.71 -0.0 0 1 356.53 621.11
  L 356.53 611.58
  A 1.26 1.25 2.0 0 0 355.36 610.33
  L 344.95 609.60
  A 1.44 1.44 0.0 0 1 343.61 608.23
  L 343.13 598.30
  A 1.08 1.08 0.0 0 0 342.13 597.27
  L 332.02 596.56
  A 1.27 1.26 -89.8 0 1 330.84 595.36
  L 330.35 585.12
  A 1.02 1.01 88.5 0 0 329.34 584.15
  L 306.32 584.15
  A 1.57 1.57 0.0 0 1 304.75 582.65
  L 304.25 572.33
  A 1.21 1.20 88.5 0 0 303.05 571.18
  L 293.98 571.18
  A 2.44 2.43 90.0 0 1 291.55 568.74
  L 291.55 559.38
  A 1.23 1.23 0.0 0 0 290.32 558.15
  L 280.07 558.15
  A 1.16 1.16 0.0 0 0 278.91 559.30
  L 278.84 584.01"
/>
<path stroke="#514541" vector-effect="non-scaling-stroke" d="
  M 278.84 584.01
  L 278.71 596.42
  A 0.65 0.65 0.0 0 0 279.36 597.08
  L 290.80 597.08
  A 0.81 0.81 0.0 0 1 291.61 597.89
  L 291.61 622.06
  A 1.04 1.04 0.0 0 0 292.65 623.10
  L 303.94 623.10
  A 0.67 0.67 0.0 0 1 304.61 623.77
  L 304.61 634.89
  A 1.14 1.14 0.0 0 0 305.75 636.03
  L 316.63 636.03
  A 0.93 0.93 0.0 0 1 317.56 636.96
  L 317.56 648.08
  A 0.91 0.91 0.0 0 0 318.47 648.99
  L 329.70 648.99
  A 0.84 0.83 0.0 0 1 330.54 649.82
  L 330.54 732.38"
/>
<path stroke="#904348" vector-effect="non-scaling-stroke" d="
  M 330.54 732.38
  Q 326.42 734.70 323.07 737.07
  Q 313.54 743.83 307.95 754.40
  Q 301.71 766.19 301.44 779.48"
/>
<path stroke="#a48141" vector-effect="non-scaling-stroke" d="
  M 298.64 778.76
  L 314.70 727.78
  A 0.40 0.39 8.6 0 0 314.32 727.27
  L 281.15 727.48"
/>
<path stroke="#904348" vector-effect="non-scaling-stroke" d="
  M 281.15 727.48
  Q 274.19 728.43 266.93 727.91
  A 1.45 1.45 0.0 0 0 265.45 728.91
  L 254.51 763.08"
/>
<path stroke="#a48141" vector-effect="non-scaling-stroke" d="
  M 254.51 763.08
  L 243.70 727.75
  A 0.68 0.67 -8.0 0 0 243.05 727.27
  L 214.29 727.26"
/>
<path stroke="#685f5b" vector-effect="non-scaling-stroke" d="
  M 214.29 727.26
  Q 213.61 722.27 213.61 717.43
  Q 213.68 652.79 213.44 643.30
  Q 213.32 638.49 213.16 637.46
  A 1.19 1.19 0.0 0 0 212.07 636.46
  L 201.93 635.75
  A 1.48 1.47 1.9 0 1 200.55 634.28
  L 200.55 611.73
  A 1.28 1.27 2.2 0 0 199.37 610.46
  L 189.74 609.79
  A 1.69 1.68 87.6 0 1 188.19 608.35
  L 186.70 598.32
  A 0.90 0.89 89.5 0 0 185.94 597.56
  L 176.59 596.30
  A 2.24 2.23 -87.5 0 1 174.66 594.19
  L 174.28 586.31
  A 1.47 1.47 0.0 0 0 173.00 584.92
  L 162.79 583.54
  A 1.20 1.20 0.0 0 1 161.75 582.36
  Q 161.54 559.10 161.36 554.15
  Q 161.20 549.80 160.69 546.29
  A 0.98 0.98 0.0 0 0 159.79 545.45
  L 151.52 544.88
  A 3.25 3.24 -89.4 0 1 148.51 541.80
  L 148.11 533.44
  A 1.30 1.30 0.0 0 0 146.89 532.20
  L 135.63 531.48"
/>
<path stroke="#5e2453" vector-effect="non-scaling-stroke" d="
  M 694.66 800.17
  L 703.89 779.42"
/>
<path stroke="#874044" vector-effect="non-scaling-stroke" d="
  M 703.89 779.42
  Q 704.01 778.83 704.32 778.47"
/>
<path stroke="#9c7d3e" vector-effect="non-scaling-stroke" d="
  M 214.29 727.26
  L 211.06 727.45"
/>
<path stroke="#9c7d3e" vector-effect="non-scaling-stroke" d="
  M 687.45 766.21
  Q 683.39 773.56 675.90 777.40
  A 0.33 0.33 0.0 0 0 675.91 777.99
  L 681.45 780.78"
/>
<path stroke="#a48141" vector-effect="non-scaling-stroke" d="
  M 681.45 780.78
  Q 688.71 784.84 692.30 792.02"
/>
<path stroke="#72614c" vector-effect="non-scaling-stroke" d="
  M 692.30 792.02
  L 694.66 800.17"
/>
<path stroke="#c4622b" vector-effect="non-scaling-stroke" d="
  M 694.66 800.17
  Q 696.27 815.71 683.98 824.50"
/>
<path stroke="#c4622b" vector-effect="non-scaling-stroke" d="
  M 591.37 832.72
  L 591.40 727.75"
/>
<path stroke="#81373e" vector-effect="non-scaling-stroke" d="
  M 720.51 741.58
  L 709.38 767.03"
/>
<path stroke="#363f66" vector-effect="non-scaling-stroke" d="
  M 703.89 779.42
  L 694.67 779.86"
/>
<path stroke="#685f5b" vector-effect="non-scaling-stroke" d="
  M 694.67 779.86
  Q 687.43 777.54 681.45 780.78"
/>
<path stroke="#4f4742" vector-effect="non-scaling-stroke" d="
  M 876.84 440.76
  L 876.68 442.47"
/>
<path stroke="#625654" vector-effect="non-scaling-stroke" d="
  M 876.68 442.47
  Q 876.50 441.58 875.87 441.20
  A 0.70 0.60 -23.0 0 0 875.55 441.10
  L 864.86 440.80
  A 1.15 1.15 0.0 0 1 863.75 439.65
  L 863.75 416.18
  A 1.09 1.09 0.0 0 0 862.66 415.09
  L 852.21 415.09
  A 1.51 1.50 90.0 0 1 850.71 413.58
  L 850.71 403.32
  A 1.25 1.25 0.0 0 0 849.46 402.07
  L 839.51 402.07
  A 1.94 1.93 -0.0 0 1 837.57 400.14
  L 837.57 377.29
  A 1.30 1.30 0.0 0 0 836.27 375.99
  L 826.36 375.99
  A 1.76 1.76 0.0 0 1 824.60 374.23
  L 824.60 337.78
  A 0.89 0.88 90.0 0 0 823.72 336.89
  L 813.44 336.89
  A 1.60 1.59 88.3 0 1 811.85 335.39
  Q 811.38 327.35 811.84 317.00
  Q 811.99 313.50 811.02 310.92"
/>
<path stroke="#4f4742" vector-effect="non-scaling-stroke" d="
  M 811.02 310.92
  L 811.32 299.24
  A 1.06 1.06 0.0 0 0 810.35 298.16
  Q 803.61 297.56 798.74 298.77"
/>
<path stroke="#625654" vector-effect="non-scaling-stroke" d="
  M 798.74 298.77
  L 797.61 298.12
  A 0.36 0.32 -26.3 0 0 797.43 298.07
  Q 674.71 297.93 662.50 297.89
  Q 659.87 297.89 656.73 298.29
  A 1.53 1.53 0.0 0 0 655.39 299.81
  L 655.39 309.70
  A 1.13 1.12 88.7 0 1 654.32 310.83
  L 644.03 311.32
  A 1.53 1.53 0.0 0 0 642.57 312.85
  L 642.57 335.90
  A 1.13 1.12 -0.0 0 1 641.44 337.02
  L 630.89 337.02
  A 1.31 1.31 0.0 0 0 629.58 338.33
  L 629.58 362.12
  A 0.93 0.92 90.0 0 1 628.66 363.05
  L 618.13 363.05
  A 1.62 1.62 0.0 0 0 616.51 364.67
  L 616.51 374.48
  A 1.30 1.30 0.0 0 1 615.27 375.78
  L 604.83 376.28
  A 1.30 1.30 0.0 0 0 603.59 377.58
  L 603.59 400.47
  A 1.53 1.53 0.0 0 1 602.06 402.00
  L 579.33 402.00
  A 1.87 1.87 0.0 0 0 577.46 403.87
  L 577.46 413.87
  A 1.13 1.13 0.0 0 1 576.33 415.00
  L 565.94 415.00
  A 1.35 1.35 0.0 0 0 564.59 416.35
  L 564.59 517.39
  A 1.70 1.70 0.0 0 0 566.29 519.09
  L 576.38 519.09
  A 1.15 1.15 0.0 0 1 577.53 520.24
  L 577.53 530.32
  A 1.78 1.78 0.0 0 0 579.31 532.10
  L 588.95 532.10
  A 1.55 1.55 0.0 0 1 590.50 533.65
  L 590.50 555.69
  A 2.39 2.39 0.0 0 0 592.89 558.08
  L 601.84 558.08
  A 1.65 1.65 0.0 0 1 603.49 559.73
  L 603.49 569.17
  A 1.91 1.91 0.0 0 0 605.40 571.08
  L 615.36 571.08
  A 1.14 1.14 0.0 0 1 616.50 572.22
  L 616.50 582.51
  A 1.55 1.55 0.0 0 0 618.05 584.06
  L 628.08 584.06
  A 1.38 1.38 0.0 0 1 629.46 585.41
  Q 629.59 592.53 629.58 594.48
  Q 629.56 596.79 632.52 596.95
  Q 636.18 597.13 641.19 597.39
  A 1.09 1.09 0.0 0 1 642.22 598.43
  L 642.72 608.71
  A 1.34 1.34 0.0 0 0 644.06 609.99
  L 732.42 609.99
  A 1.19 1.19 0.0 0 0 733.61 608.81
  L 733.77 597.03"
/>
<path stroke="#7f6759" vector-effect="non-scaling-stroke" d="
  M 733.77 597.03
  L 745.96 597.01"
/>
<path stroke="#625654" vector-effect="non-scaling-stroke" d="
  M 745.96 597.01
  L 746.61 608.74
  A 1.36 1.35 -1.6 0 0 747.97 610.02
  L 784.17 610.02
  A 1.47 1.46 0.0 0 0 785.64 608.56
  L 785.64 598.63
  A 1.12 1.11 86.2 0 1 786.60 597.52
  Q 788.31 597.27 791.72 597.23
  Q 800.55 597.13 809.20 596.91
  Q 811.38 596.85 811.65 595.74"
/>
<path stroke="#4f4742" vector-effect="non-scaling-stroke" d="
  M 811.65 595.74
  L 811.74 597.47"
/>
<path stroke="#423937" vector-effect="non-scaling-stroke" d="
  M 746.48 623.06
  L 681.74 623.16"
/>
<path stroke="#595251" vector-effect="non-scaling-stroke" d="
  M 681.74 623.16
  Q 680.03 623.40 678.19 623.27
  Q 675.14 623.04 674.63 623.05
  Q 653.44 623.24 638.25 623.05
  Q 634.86 623.01 631.16 622.63
  A 1.01 1.01 0.0 0 1 630.27 621.75
  L 628.97 611.33
  A 1.10 1.09 88.0 0 0 627.96 610.38
  L 618.73 609.73
  A 1.48 1.47 -1.6 0 1 617.36 608.44
  L 616.14 598.59
  A 0.98 0.97 0.4 0 0 615.30 597.74
  L 606.10 596.50
  A 1.64 1.64 0.0 0 1 604.72 595.20
  L 602.79 585.55
  A 1.09 1.09 0.0 0 0 601.87 584.70
  L 593.41 583.55
  A 2.31 2.31 0.0 0 1 591.43 581.61
  L 590.09 572.60
  A 0.99 0.98 89.6 0 0 589.25 571.77
  L 579.53 570.46
  A 1.39 1.39 0.0 0 1 578.34 569.27
  L 577.06 559.57
  A 1.59 1.58 88.2 0 0 575.60 558.19
  L 566.68 557.57
  A 1.31 1.29 84.4 0 1 565.51 556.60
  Q 564.54 552.84 564.56 548.95
  Q 564.61 541.46 564.06 533.79
  A 1.58 1.58 0.0 0 0 562.59 532.32
  L 553.77 531.70
  A 1.56 1.56 0.0 0 1 552.34 530.37
  Q 551.42 524.08 551.46 515.75
  Q 551.63 484.11 551.61 452.52"
/>
<path stroke="#7f6759" vector-effect="non-scaling-stroke" d="
  M 604.30 337.01
  L 615.85 337.03
  A 0.76 0.75 0.0 0 0 616.61 336.28
  L 616.61 311.57
  A 0.54 0.54 0.0 0 1 617.15 311.03
  L 628.83 311.03
  A 0.81 0.81 0.0 0 0 629.64 310.22
  L 629.64 285.67
  A 0.62 0.62 0.0 0 0 629.02 285.05
  L 617.34 285.05
  A 0.76 0.76 0.0 0 1 616.58 284.29
  L 616.58 272.63
  A 0.76 0.76 0.0 0 0 615.83 271.87
  L 603.70 271.59"
/>
<path stroke="#c4622b" vector-effect="non-scaling-stroke" d="
  M 503.97 770.93
  L 511.47 783.12
  A 0.15 0.15 0.0 0 0 511.73 783.11
  L 544.62 727.95"
/>
<path stroke="#c4622b" vector-effect="non-scaling-stroke" d="
  M 542.07 832.80
  L 541.79 785.20
  A 0.19 0.19 0.0 0 0 541.44 785.11
  L 526.50 810.35"
/>
<path stroke="#c4622b" vector-effect="non-scaling-stroke" d="
  M 503.45 823.24
  L 480.84 786.78
  A 0.14 0.14 0.0 0 0 480.58 786.85
  L 480.59 812.01"
/>
<path stroke="#c4622b" vector-effect="non-scaling-stroke" d="
  M 448.33 832.82
  L 448.40 728.47
  A 0.40 0.40 0.0 0 0 448.24 728.15
  Q 448.12 728.07 447.97 728.01"
/>
<path stroke="#9c7d3e" vector-effect="non-scaling-stroke" d="
  M 615.79 727.53
  L 603.30 727.47"
/>
<path stroke="#c4622b" vector-effect="non-scaling-stroke" d="
  M 184.31 762.76
  L 191.45 786.28
  A 0.19 0.19 0.0 0 0 191.82 786.28
  L 210.78 727.97"
/>
<path stroke="#c4622b" vector-effect="non-scaling-stroke" d="
  M 254.51 763.08
  L 261.62 787.10
  A 0.21 0.21 0.0 0 0 262.02 787.10
  L 281.15 727.48"
/>
<path stroke="#c4622b" vector-effect="non-scaling-stroke" d="
  M 249.76 832.61
  L 244.21 832.59"
/>
<path stroke="#c4622b" vector-effect="non-scaling-stroke" d="
  M 243.86 832.82
  L 226.62 777.21
  A 0.30 0.30 0.0 0 0 226.05 777.21
  L 218.30 801.63"
/>
<path stroke="#c4622b" vector-effect="non-scaling-stroke" d="
  M 176.79 832.60
  L 171.85 832.45
  A 1.91 1.90 82.0 0 1 170.09 831.12
  L 137.09 727.75"
/>
<path stroke="#48423d" vector-effect="non-scaling-stroke" d="
  M 681.74 623.16
  L 681.53 636.07"
/>
<path stroke="#856424" vector-effect="non-scaling-stroke" d="
  M 742.86 727.34
  Q 741.69 727.55 741.69 727.97"
/>
<path stroke="#70262a" vector-effect="non-scaling-stroke" d="
  M 741.69 727.97
  L 726.97 728.13
  A 0.79 0.79 0.0 0 0 726.26 728.61
  L 720.51 741.58"
/>
<path stroke="#423937" vector-effect="non-scaling-stroke" d="
  M 720.51 741.58
  Q 719.64 739.73 718.89 739.70
  Q 704.94 739.27 695.57 739.60
  A 0.65 0.65 0.0 0 1 694.90 738.95
  L 694.90 727.51
  A 0.87 0.87 0.0 0 0 694.01 726.64
  L 683.80 726.92"
/>
<path stroke="#9c7d3e" vector-effect="non-scaling-stroke" d="
  M 565.30 727.56
  L 551.92 727.55"
/>
<path stroke="#363f66" vector-effect="non-scaling-stroke" d="
  M 551.92 727.55
  Q 550.19 722.79 551.45 718.87
  A 2.88 2.82 53.9 0 0 551.57 718.05
  L 551.57 701.63
  A 0.60 0.60 0.0 0 0 550.97 701.03
  L 539.92 701.03
  A 1.22 1.21 0.5 0 1 538.70 699.80
  L 538.80 688.18"
/>
<path stroke="#48423d" vector-effect="non-scaling-stroke" d="
  M 538.80 688.18
  L 538.45 675.84
  A 0.76 0.76 0.0 0 0 537.69 675.10
  L 526.57 675.10
  A 1.03 1.03 0.0 0 1 525.54 674.07
  L 525.54 623.98
  A 0.92 0.91 -0.0 0 0 524.62 623.07
  L 513.23 623.07
  A 0.64 0.64 0.0 0 0 512.59 623.71
  L 512.59 635.50
  A 0.62 0.62 0.0 0 1 511.97 636.12
  L 500.47 636.12
  A 0.90 0.90 0.0 0 0 499.57 637.02
  L 499.57 648.24
  A 0.73 0.73 0.0 0 1 498.84 648.97
  L 474.59 648.97
  A 0.99 0.99 0.0 0 0 473.60 649.96
  L 473.60 660.96
  A 1.15 1.15 0.0 0 1 472.45 662.11
  L 383.62 662.11
  A 1.03 1.03 0.0 0 1 382.59 661.08
  L 382.59 649.99
  A 1.04 1.03 90.0 0 0 381.56 648.95
  L 370.49 648.95
  A 0.87 0.87 0.0 0 1 369.62 648.08
  L 369.62 637.31
  A 1.22 1.21 0.0 0 0 368.40 636.10
  L 344.77 636.10
  A 1.25 1.25 0.0 0 1 343.52 634.85
  L 343.52 623.93
  A 0.85 0.85 0.0 0 0 342.67 623.08
  L 331.81 623.08
  A 1.22 1.21 90.0 0 1 330.60 621.86
  L 330.60 611.08
  A 1.13 1.13 0.0 0 0 329.47 609.95
  L 319.12 609.95
  A 1.54 1.53 -0.0 0 1 317.58 608.42
  L 317.58 597.93
  A 0.79 0.79 0.0 0 0 316.79 597.14
  L 292.16 597.14
  A 0.57 0.57 0.0 0 1 291.59 596.57
  L 291.59 585.20
  A 1.11 1.11 0.0 0 0 290.48 584.09
  L 278.84 584.01"
/>
<path stroke="#1f264c" vector-effect="non-scaling-stroke" d="
  M 538.80 688.18
  L 449.30 688.15
  A 1.73 1.72 -0.0 0 0 447.57 689.87
  L 447.57 700.17
  A 0.87 0.86 90.0 0 1 446.71 701.04
  L 435.84 701.04
  A 1.22 1.21 0.0 0 0 434.62 702.25
  L 434.58 727.97"
/>
<path stroke="#70262a" vector-effect="non-scaling-stroke" d="
  M 434.58 727.97
  Q 434.07 727.81 433.41 728.06
  A 0.76 0.75 -10.9 0 0 432.93 728.76
  L 432.75 762.15"
/>
<path stroke="#856424" vector-effect="non-scaling-stroke" d="
  M 432.75 762.15
  Q 422.60 735.94 396.34 727.95
  Q 380.76 723.21 363.93 725.91"
/>
<path stroke="#70262a" vector-effect="non-scaling-stroke" d="
  M 363.93 725.91
  Q 346.47 724.45 330.54 732.38"
/>
<path stroke="#c4622b" vector-effect="non-scaling-stroke" d="
  M 786.04 832.77
  L 779.05 814.67
  A 0.71 0.70 -10.1 0 0 778.39 814.22
  L 761.93 814.46"
/>
<path stroke="#c4622b" vector-effect="non-scaling-stroke" d="
  M 695.86 832.77
  L 741.69 727.97"
/>
<path stroke="#3e4369" vector-effect="non-scaling-stroke" d="
  M 694.67 779.86
  L 694.54 791.52
  A 0.61 0.60 86.7 0 1 694.02 792.11
  Q 693.22 792.23 692.30 792.02"
/>
<path stroke="#c4622b" vector-effect="non-scaling-stroke" d="
  M 432.75 762.15
  Q 433.00 764.02 433.52 766.07
  Q 434.26 768.95 434.44 769.97
  Q 436.88 784.25 432.61 797.96"
/>
<path stroke="#c4622b" vector-effect="non-scaling-stroke" d="
  M 369.19 834.68
  Q 367.66 834.22 363.25 833.49
  C 336.65 829.07 317.29 807.64 316.99 780.50
  C 316.68 752.21 336.07 730.80 363.93 725.91"
/>
<path stroke="#555049" vector-effect="non-scaling-stroke" d="
  M 876.75 466.68
  L 876.42 454.71"
/>
<path stroke="#5d544c" vector-effect="non-scaling-stroke" d="
  M 798.74 298.77
  L 798.92 310.21
  A 0.76 0.75 -0.4 0 0 799.68 310.95
  L 811.02 310.92"
/>
<path stroke="#5d544c" vector-effect="non-scaling-stroke" d="
  M 876.68 442.47
  L 876.42 454.71"
/>
<path stroke="#685f5b" vector-effect="non-scaling-stroke" d="
  M 876.42 454.71
  L 865.31 454.87
  A 1.09 1.09 0.0 0 0 864.24 456.01
  L 864.69 465.39
  A 1.25 1.24 -1.0 0 0 865.92 466.57
  L 876.75 466.68"
/>
<path stroke="#5d544c" vector-effect="non-scaling-stroke" d="
  M 876.75 466.68
  L 888.41 467.07
  A 1.29 1.28 1.2 0 1 889.65 468.35
  L 889.65 492.35
  A 0.70 0.69 0.0 0 1 888.95 493.04
  L 877.46 493.04
  A 0.86 0.85 90.0 0 0 876.61 493.90
  L 876.61 531.28
  A 0.83 0.83 0.0 0 1 875.78 532.11
  L 864.83 532.11
  A 1.20 1.20 0.0 0 0 863.63 533.36
  Q 863.81 537.58 863.65 540.83
  C 863.54 543.20 863.94 544.96 861.19 544.90
  Q 859.29 544.87 851.62 545.16
  A 0.96 0.96 0.0 0 0 850.69 546.12
  L 850.69 556.77
  A 1.25 1.24 -90.0 0 1 849.45 558.02
  L 825.66 558.02
  A 0.98 0.98 0.0 0 0 824.68 559.00
  L 824.68 582.29
  A 1.82 1.81 -0.0 0 1 822.86 584.10
  L 813.09 584.10
  A 1.28 1.28 0.0 0 0 811.81 585.36
  L 811.65 595.74"
/>
<path stroke="#8e7363" vector-effect="non-scaling-stroke" d="
  M 745.96 597.01
  Q 746.31 596.80 746.70 596.73"
/>
<path stroke="#625654" vector-effect="non-scaling-stroke" d="
  M 746.70 596.73
  Q 747.26 597.10 748.01 597.10
  Q 759.20 597.10 771.80 597.02
  A 0.75 0.75 0.0 0 0 772.55 596.29
  Q 772.71 591.01 772.47 584.73
  Q 772.46 584.40 771.95 584.09"
/>
<path stroke="#8e7363" vector-effect="non-scaling-stroke" d="
  M 771.95 584.09
  L 772.56 583.46"
/>
<path stroke="#625654" vector-effect="non-scaling-stroke" d="
  M 772.56 583.46
  Q 773.40 583.90 773.97 583.92
  Q 785.27 584.29 797.36 583.76
  A 1.20 1.19 -1.3 0 0 798.51 582.57
  L 798.51 572.60
  A 1.27 1.27 0.0 0 1 799.72 571.33
  L 810.35 570.82
  A 1.38 1.37 88.7 0 0 811.66 569.44
  L 811.66 559.65
  A 1.65 1.65 0.0 0 0 809.99 558.00
  Q 799.81 558.12 787.78 557.99
  Q 787.15 557.99 785.70 558.74"
/>
<path stroke="#8e7363" vector-effect="non-scaling-stroke" d="
  M 785.70 558.74
  Q 785.08 558.13 784.12 558.12
  Q 778.48 558.10 772.64 557.77"
/>
<path stroke="#5d544c" vector-effect="non-scaling-stroke" d="
  M 772.64 557.77
  Q 772.52 552.72 772.62 547.75
  Q 772.65 546.25 771.98 545.00"
/>
<path stroke="#928b89" vector-effect="non-scaling-stroke" d="
  M 771.98 545.00
  C 772.43 544.93 772.61 544.65 772.62 544.21
  Q 772.69 531.86 772.60 519.63
  A 0.50 0.49 89.4 0 0 772.11 519.14
  L 759.63 519.13"
/>
<path stroke="#5d544c" vector-effect="non-scaling-stroke" d="
  M 759.63 519.13
  Q 759.96 519.51 759.38 519.03"
/>
<path stroke="#928b89" vector-effect="non-scaling-stroke" d="
  M 759.38 519.03
  L 759.53 506.38
  A 0.40 0.39 -0.0 0 0 759.13 505.99
  L 721.26 505.99
  A 0.63 0.63 0.0 0 0 720.63 506.62
  L 720.63 518.64
  A 0.46 0.45 0.0 0 1 720.17 519.09
  L 708.41 519.09
  A 0.75 0.75 0.0 0 0 707.66 519.83
  Q 707.50 532.18 707.78 544.25
  Q 707.79 544.66 708.28 544.92"
/>
<path stroke="#5d544c" vector-effect="non-scaling-stroke" d="
  M 708.28 544.92
  Q 707.62 545.69 707.63 546.23
  Q 707.79 552.27 707.61 558.23"
/>
<path stroke="#8e7363" vector-effect="non-scaling-stroke" d="
  M 707.61 558.23
  L 695.12 558.10
  A 0.52 0.51 -89.5 0 0 694.60 558.62
  L 694.61 570.75"
/>
<path stroke="#625654" vector-effect="non-scaling-stroke" d="
  M 694.61 570.75
  L 682.09 570.89
  A 0.53 0.53 0.0 0 0 681.57 571.42
  L 681.57 582.94
  A 1.09 1.08 90.0 0 0 682.65 584.03
  L 693.97 584.03
  A 0.68 0.68 0.0 0 1 694.65 584.71
  L 694.65 595.65
  A 1.46 1.46 0.0 0 0 696.12 597.11
  Q 711.96 597.01 731.28 597.17
  Q 732.56 597.18 733.58 596.46"
/>
<path stroke="#8e7363" vector-effect="non-scaling-stroke" d="
  M 733.58 596.46
  Q 734.00 597.01 733.77 597.03"
/>
<path stroke="#7f6759" vector-effect="non-scaling-stroke" d="
  M 785.70 558.74
  L 785.72 569.99
  A 1.02 1.02 0.0 0 1 784.70 571.01
  L 773.53 571.01
  A 0.83 0.83 0.0 0 0 772.70 571.83
  L 772.56 583.46"
/>
<path stroke="#7f6759" vector-effect="non-scaling-stroke" d="
  M 771.95 584.09
  L 747.32 584.17
  A 0.67 0.67 0.0 0 0 746.65 584.84
  L 746.70 596.73"
/>
<path stroke="#7f6759" vector-effect="non-scaling-stroke" d="
  M 733.58 596.46
  L 733.58 584.62
  A 0.54 0.53 90.0 0 0 733.05 584.08
  L 708.30 584.08
  A 0.76 0.76 0.0 0 1 707.54 583.30
  L 707.80 571.00"
/>
<path stroke="#564234" vector-effect="non-scaling-stroke" d="
  M 720.34 570.92
  L 733.53 570.93"
/>
<path stroke="#564234" vector-effect="non-scaling-stroke" d="
  M 746.58 570.93
  L 759.56 570.96"
/>
<path stroke="#72614c" vector-effect="non-scaling-stroke" d="
  M 551.92 727.55
  Q 547.47 727.10 544.62 727.95"
/>
<path stroke="#5e2453" vector-effect="non-scaling-stroke" d="
  M 544.62 727.95
  L 529.91 728.04
  A 0.77 0.76 15.0 0 0 529.25 728.41
  L 503.97 770.93"
/>
<path stroke="#72614c" vector-effect="non-scaling-stroke" d="
  M 503.97 770.93
  L 477.97 728.30
  A 1.68 1.67 -15.7 0 0 476.54 727.50
  Q 462.50 727.47 449.00 727.49
  Q 448.49 727.50 447.97 728.01"
/>
<path stroke="#5e2453" vector-effect="non-scaling-stroke" d="
  M 447.97 728.01
  L 434.58 727.97"
/>
<path stroke="#7f6759" vector-effect="non-scaling-stroke" d="
  M 707.58 570.69
  Q 707.46 570.79 707.35 570.86
  A 0.76 0.75 28.0 0 1 706.88 571.00
  L 694.61 570.75"
/>
<path stroke="#7f7d77" vector-effect="non-scaling-stroke" d="
  M 759.63 519.13
  L 759.66 544.40
  A 0.60 0.60 0.0 0 0 760.26 545.00
  L 771.98 545.00"
/>
<path stroke="#7b6551" vector-effect="non-scaling-stroke" d="
  M 772.64 557.77
  L 772.61 570.60
  A 0.47 0.47 0.0 0 1 772.13 571.07
  L 759.56 570.96"
/>
<path stroke="#25231d" vector-effect="non-scaling-stroke" d="
  M 759.56 570.96
  L 759.54 558.80
  A 0.65 0.65 0.0 0 0 759.00 558.16
  L 758.46 558.06"
/>
<path stroke="#7f7d77" vector-effect="non-scaling-stroke" d="
  M 758.46 558.06
  Q 759.05 558.11 759.42 557.80
  A 0.57 0.56 -21.4 0 0 759.61 557.38
  L 759.61 545.70
  A 0.71 0.70 90.0 0 0 758.91 544.99
  L 747.33 544.99
  A 0.73 0.73 0.0 0 0 746.60 545.72
  Q 746.56 551.63 746.57 557.35
  Q 746.57 557.91 747.28 558.03"
/>
<path stroke="#25231d" vector-effect="non-scaling-stroke" d="
  M 747.28 558.03
  Q 747.11 558.12 746.94 558.20
  A 0.61 0.59 -14.1 0 0 746.61 558.73
  L 746.58 570.93"
/>
<path stroke="#7b6551" vector-effect="non-scaling-stroke" d="
  M 746.58 570.93
  L 733.53 570.93"
/>
<path stroke="#25231d" vector-effect="non-scaling-stroke" d="
  M 733.53 570.93
  L 733.58 557.97"
/>
<path stroke="#7f7d77" vector-effect="non-scaling-stroke" d="
  M 733.58 557.97
  L 733.47 545.59
  A 0.60 0.60 0.0 0 0 732.87 544.99
  L 721.18 544.99
  A 0.59 0.59 0.0 0 0 720.59 545.58
  L 720.59 557.43
  A 0.47 0.47 0.0 0 0 720.76 557.79
  Q 720.98 557.98 721.29 557.99"
/>
<path stroke="#25231d" vector-effect="non-scaling-stroke" d="
  M 721.29 557.99
  Q 720.53 558.43 720.57 559.25
  Q 720.82 565.09 720.34 570.92"
/>
<path stroke="#7b6551" vector-effect="non-scaling-stroke" d="
  M 720.34 570.92
  L 707.80 571.00"
/>
<path stroke="#4f4742" vector-effect="non-scaling-stroke" d="
  M 707.80 571.00
  Q 707.63 570.89 707.58 570.69"
/>
<path stroke="#7b6551" vector-effect="non-scaling-stroke" d="
  M 707.58 570.69
  L 707.61 558.23"
/>
<path stroke="#7f7d77" vector-effect="non-scaling-stroke" d="
  M 759.38 519.03
  L 721.32 519.03
  A 0.72 0.71 0.0 0 0 720.60 519.74
  L 720.60 544.14
  A 0.88 0.87 -89.7 0 1 719.72 545.02
  L 708.28 544.92"
/>
<path stroke="#5a5a5a" vector-effect="non-scaling-stroke" d="
  M 733.58 557.97
  L 721.29 557.99"
/>
<path stroke="#5a5a5a" vector-effect="non-scaling-stroke" d="
  M 758.46 558.06
  L 747.28 558.03"
/>
<path stroke="#c4622b" vector-effect="non-scaling-stroke" d="
  M 845.79 832.78
  L 845.79 755.56
  A 0.41 0.41 0.0 0 0 845.38 755.15
  L 830.43 755.18"
/>
<path stroke="#c4622b" vector-effect="non-scaling-stroke" d="
  M 815.09 755.28
  L 815.07 727.69"
/>
</g>
<path fill="#70625e" d="
  M 603.57 298.13
  Q 603.59 317.14 603.57 336.25
  Q 603.57 336.79 604.30 337.01
  L 603.83 337.70
  A 1.62 1.61 61.8 0 0 603.57 338.58
  L 603.57 361.08
  A 1.94 1.93 -90.0 0 1 601.64 363.02
  L 578.76 363.02
  A 1.11 1.10 -0.0 0 0 577.65 364.12
  L 577.65 374.91
  A 1.17 1.17 0.0 0 1 576.48 376.08
  L 565.75 376.08
  A 1.13 1.12 -0.0 0 0 564.62 377.20
  L 564.62 387.94
  A 1.13 1.13 0.0 0 1 563.49 389.07
  L 552.41 389.07
  A 0.65 0.65 0.0 0 0 551.76 389.71
  L 551.61 452.52
  Q 546.18 454.56 540.23 454.28
  A 1.14 1.14 0.0 0 0 539.03 455.41
  Q 538.42 494.17 538.80 537.48
  Q 538.83 540.95 539.06 543.52
  A 1.19 1.17 -0.3 0 0 540.16 544.60
  L 549.94 545.28
  A 1.95 1.94 2.1 0 1 551.75 547.22
  L 551.75 568.83
  A 1.65 1.65 0.0 0 0 553.17 570.46
  L 563.02 571.78
  A 1.27 1.27 0.0 0 1 564.10 572.85
  L 565.40 581.95
  A 1.63 1.62 0.0 0 0 566.79 583.33
  L 576.33 584.62
  A 1.27 1.26 2.5 0 1 577.43 585.81
  L 577.87 594.95
  A 1.45 1.45 0.0 0 0 579.13 596.32
  L 589.41 597.70
  A 1.35 1.35 0.0 0 1 590.58 598.98
  L 591.01 607.89
  A 1.55 1.53 -87.6 0 0 592.34 609.35
  L 601.71 610.61
  A 1.48 1.48 0.0 0 1 602.98 611.88
  L 604.31 621.20
  A 1.45 1.45 0.0 0 0 605.55 622.44
  L 615.38 623.76
  A 1.34 1.34 0.0 0 1 616.54 625.03
  L 616.99 634.26
  A 1.43 1.42 -1.1 0 0 618.41 635.62
  L 681.53 636.07
  L 681.44 661.06
  A 1.00 1.00 0.0 0 1 680.44 662.06
  L 669.31 662.06
  A 0.71 0.70 -0.0 0 0 668.60 662.76
  L 668.60 713.40
  A 0.63 0.63 0.0 0 0 669.23 714.03
  L 680.77 714.03
  A 0.78 0.78 0.0 0 1 681.55 714.81
  Q 681.57 720.67 681.57 725.71
  Q 681.57 726.87 682.19 727.09
  Q 682.76 727.30 683.80 726.92
  L 692.85 727.74
  A 0.67 0.67 0.0 0 1 693.46 728.37
  L 693.97 739.05
  A 1.79 1.79 0.0 0 0 695.76 740.75
  L 706.49 740.75
  A 1.09 1.08 0.0 0 1 707.58 741.83
  Q 707.61 748.31 707.36 757.34
  Q 707.20 762.98 709.38 767.03
  L 704.32 778.47
  L 695.19 778.06
  A 0.56 0.56 0.0 0 1 694.65 777.50
  L 694.65 766.75
  A 0.50 0.50 0.0 0 0 694.15 766.25
  L 687.45 766.21
  C 694.15 750.30 686.38 735.90 670.61 730.87
  Q 659.64 727.36 647.50 727.43
  Q 631.65 727.51 615.79 727.53
  Q 616.92 720.97 616.37 714.65
  A 0.80 0.80 0.0 0 0 615.57 713.92
  L 605.05 713.92
  A 1.21 1.20 -88.5 0 0 603.85 715.07
  L 603.30 727.47
  L 591.40 727.75
  L 576.50 727.89
  A 0.51 0.51 0.0 0 0 576.00 728.40
  L 575.97 739.98
  Q 574.90 739.17 574.11 739.20
  L 573.87 728.16
  A 0.54 0.54 0.0 0 0 573.34 727.63
  L 565.30 727.56
  L 564.43 702.32
  A 0.98 0.98 0.0 0 0 563.52 701.38
  L 553.09 700.65
  A 1.10 1.09 -89.4 0 1 552.08 699.61
  L 550.96 676.42
  A 1.08 1.08 0.0 0 0 549.96 675.39
  L 540.19 674.71
  A 0.64 0.63 84.2 0 1 539.62 674.24
  Q 538.13 669.07 538.47 663.53
  A 1.66 1.65 0.4 0 1 540.05 661.98
  L 550.29 661.48
  A 1.19 1.18 88.7 0 0 551.42 660.29
  L 551.42 650.38
  A 1.00 0.99 -88.2 0 0 550.49 649.38
  L 539.83 648.63
  A 1.38 1.37 2.0 0 1 538.55 647.26
  L 538.55 637.68
  A 1.58 1.57 88.7 0 1 540.05 636.10
  L 550.07 635.61
  A 1.33 1.32 -1.4 0 0 551.34 634.29
  L 551.34 624.64
  A 1.27 1.26 1.9 0 0 550.16 623.38
  L 540.26 622.69
  A 1.75 1.73 0.8 0 1 538.64 621.04
  L 538.18 611.42
  A 1.02 1.02 0.0 0 0 537.24 610.46
  L 526.63 609.72
  A 1.13 1.13 0.0 0 1 525.57 608.59
  L 525.57 598.22
  A 1.04 1.03 90.0 0 0 524.54 597.18
  L 513.88 597.18
  A 1.25 1.24 90.0 0 0 512.64 598.43
  L 512.64 608.61
  A 1.07 1.07 0.0 0 1 511.62 609.68
  L 501.34 610.17
  A 1.32 1.31 0.5 0 0 500.09 611.39
  L 499.38 621.60
  A 1.23 1.23 0.0 0 1 498.22 622.74
  L 488.95 623.18
  A 2.32 2.31 -1.4 0 1 486.52 620.87
  L 486.52 611.25
  A 1.06 1.05 90.0 0 0 485.47 610.19
  L 475.12 610.19
  A 1.25 1.25 0.0 0 0 473.87 611.35
  L 473.15 621.64
  A 1.26 1.25 -88.0 0 1 471.90 622.81
  L 462.21 622.81
  A 1.55 1.54 -90.0 0 1 460.67 621.26
  L 460.67 611.37
  A 1.24 1.24 0.0 0 0 459.43 610.13
  L 449.46 610.13
  A 1.57 1.56 -87.8 0 0 447.90 611.58
  L 447.21 621.57
  A 1.35 1.35 0.0 0 1 445.86 622.82
  L 436.32 622.82
  A 1.39 1.39 0.0 0 1 434.93 621.49
  L 434.43 611.19
  A 1.00 1.00 0.0 0 0 433.43 610.23
  L 423.24 610.23
  A 1.36 1.36 0.0 0 0 421.88 611.49
  L 421.19 621.44
  A 1.32 1.32 0.0 0 1 419.98 622.66
  Q 418.48 622.77 411.75 623.09
  Q 409.41 623.20 408.69 621.16
  A 1.00 0.96 -55.2 0 1 408.64 620.85
  L 408.43 611.19
  A 1.07 1.06 -0.5 0 0 407.36 610.15
  L 397.41 610.15
  A 1.28 1.27 -87.8 0 0 396.14 611.33
  L 395.44 621.43
  A 1.54 1.54 0.0 0 1 393.90 622.86
  L 384.61 622.86
  A 1.70 1.70 0.0 0 1 382.91 621.24
  L 382.43 611.16
  A 0.97 0.97 0.0 0 0 381.46 610.24
  L 371.11 610.24
  A 1.08 1.07 -88.0 0 0 370.04 611.24
  L 369.29 621.88
  A 1.01 1.00 1.8 0 1 368.28 622.82
  L 358.25 622.82
  A 1.72 1.71 -0.0 0 1 356.53 621.11
  L 356.53 611.58
  A 1.26 1.25 2.0 0 0 355.36 610.33
  L 344.95 609.60
  A 1.44 1.44 0.0 0 1 343.61 608.23
  L 343.13 598.30
  A 1.08 1.08 0.0 0 0 342.13 597.27
  L 332.02 596.56
  A 1.27 1.26 -89.8 0 1 330.84 595.36
  L 330.35 585.12
  A 1.02 1.01 88.5 0 0 329.34 584.15
  L 306.32 584.15
  A 1.57 1.57 0.0 0 1 304.75 582.65
  L 304.25 572.33
  A 1.21 1.20 88.5 0 0 303.05 571.18
  L 293.98 571.18
  A 2.44 2.43 90.0 0 1 291.55 568.74
  L 291.55 559.38
  A 1.23 1.23 0.0 0 0 290.32 558.15
  L 280.07 558.15
  A 1.16 1.16 0.0 0 0 278.91 559.30
  L 278.84 584.01
  L 278.71 596.42
  A 0.65 0.65 0.0 0 0 279.36 597.08
  L 290.80 597.08
  A 0.81 0.81 0.0 0 1 291.61 597.89
  L 291.61 622.06
  A 1.04 1.04 0.0 0 0 292.65 623.10
  L 303.94 623.10
  A 0.67 0.67 0.0 0 1 304.61 623.77
  L 304.61 634.89
  A 1.14 1.14 0.0 0 0 305.75 636.03
  L 316.63 636.03
  A 0.93 0.93 0.0 0 1 317.56 636.96
  L 317.56 648.08
  A 0.91 0.91 0.0 0 0 318.47 648.99
  L 329.70 648.99
  A 0.84 0.83 0.0 0 1 330.54 649.82
  L 330.54 732.38
  Q 326.42 734.70 323.07 737.07
  Q 313.54 743.83 307.95 754.40
  Q 301.71 766.19 301.44 779.48
  Q 300.79 779.09 299.97 779.34
  Q 299.22 779.57 298.64 778.76
  L 314.70 727.78
  A 0.40 0.39 8.6 0 0 314.32 727.27
  L 281.15 727.48
  Q 274.19 728.43 266.93 727.91
  A 1.45 1.45 0.0 0 0 265.45 728.91
  L 254.51 763.08
  L 243.70 727.75
  A 0.68 0.67 -8.0 0 0 243.05 727.27
  L 214.29 727.26
  Q 213.61 722.27 213.61 717.43
  Q 213.68 652.79 213.44 643.30
  Q 213.32 638.49 213.16 637.46
  A 1.19 1.19 0.0 0 0 212.07 636.46
  L 201.93 635.75
  A 1.48 1.47 1.9 0 1 200.55 634.28
  L 200.55 611.73
  A 1.28 1.27 2.2 0 0 199.37 610.46
  L 189.74 609.79
  A 1.69 1.68 87.6 0 1 188.19 608.35
  L 186.70 598.32
  A 0.90 0.89 89.5 0 0 185.94 597.56
  L 176.59 596.30
  A 2.24 2.23 -87.5 0 1 174.66 594.19
  L 174.28 586.31
  A 1.47 1.47 0.0 0 0 173.00 584.92
  L 162.79 583.54
  A 1.20 1.20 0.0 0 1 161.75 582.36
  Q 161.54 559.10 161.36 554.15
  Q 161.20 549.80 160.69 546.29
  A 0.98 0.98 0.0 0 0 159.79 545.45
  L 151.52 544.88
  A 3.25 3.24 -89.4 0 1 148.51 541.80
  L 148.11 533.44
  A 1.30 1.30 0.0 0 0 146.89 532.20
  L 135.63 531.48
  L 135.58 467.87
  A 0.84 0.84 0.0 0 1 136.42 467.03
  L 147.72 467.03
  A 0.76 0.75 90.0 0 0 148.47 466.27
  L 148.47 428.79
  A 0.83 0.83 0.0 0 1 149.30 427.96
  L 160.98 427.96
  A 0.64 0.64 0.0 0 0 161.62 427.32
  L 161.62 402.69
  A 0.72 0.72 0.0 0 1 162.34 401.97
  L 174.01 401.97
  A 0.55 0.54 -90.0 0 0 174.55 401.42
  L 174.55 389.97
  A 0.62 0.62 0.0 0 1 175.14 389.35
  L 186.79 388.80
  A 0.82 0.82 0.0 0 0 187.57 387.98
  L 187.57 377.04
  A 0.74 0.73 88.8 0 1 188.27 376.30
  L 200.13 375.73
  A 0.44 0.44 0.0 0 0 200.55 375.29
  L 200.55 363.71
  A 0.66 0.66 0.0 0 1 201.21 363.05
  L 212.80 363.05
  A 0.81 0.81 0.0 0 0 213.61 362.24
  L 213.61 350.94
  A 0.95 0.95 0.0 0 1 214.56 349.99
  L 225.97 349.99
  A 0.68 0.67 90.0 0 0 226.64 349.31
  L 226.64 338.04
  A 0.67 0.67 0.0 0 1 227.28 337.37
  L 239.01 336.81
  A 0.62 0.62 0.0 0 0 239.60 336.19
  L 239.60 325.10
  A 0.78 0.78 0.0 0 1 240.34 324.32
  L 252.07 323.76
  A 0.45 0.45 0.0 0 0 252.50 323.31
  L 252.50 311.55
  A 0.56 0.56 0.0 0 1 253.06 310.99
  L 277.86 310.99
  A 0.72 0.72 0.0 0 0 278.58 310.27
  L 278.58 298.75
  A 0.78 0.78 0.0 0 1 279.36 297.97
  L 290.96 297.97
  A 0.62 0.61 0.0 0 0 291.58 297.36
  L 291.58 285.86
  A 0.79 0.78 90.0 0 1 292.36 285.07
  L 316.80 285.07
  A 0.77 0.77 0.0 0 0 317.57 284.30
  L 317.57 272.46
  A 0.51 0.50 -90.0 0 1 318.07 271.95
  L 342.71 271.95
  A 0.85 0.84 0.0 0 0 343.56 271.11
  L 343.56 259.81
  A 0.84 0.84 0.0 0 1 344.40 258.97
  L 511.80 258.97
  A 0.78 0.78 0.0 0 1 512.58 259.75
  L 512.58 270.95
  A 1.00 1.00 0.0 0 0 513.58 271.95
  L 537.96 271.95
  A 0.66 0.65 -90.0 0 1 538.61 272.61
  L 538.61 284.29
  A 0.76 0.76 0.0 0 0 539.37 285.05
  L 589.80 285.05
  A 0.76 0.76 0.0 0 1 590.56 285.81
  L 590.55 297.15
  A 0.94 0.94 0.0 0 0 591.49 298.09
  L 603.57 298.13
  Z"
/>
<path fill="#53494a" d="
  M 876.84 440.76
  L 876.68 442.47
  Q 876.50 441.58 875.87 441.20
  A 0.70 0.60 -23.0 0 0 875.55 441.10
  L 864.86 440.80
  A 1.15 1.15 0.0 0 1 863.75 439.65
  L 863.75 416.18
  A 1.09 1.09 0.0 0 0 862.66 415.09
  L 852.21 415.09
  A 1.51 1.50 90.0 0 1 850.71 413.58
  L 850.71 403.32
  A 1.25 1.25 0.0 0 0 849.46 402.07
  L 839.51 402.07
  A 1.94 1.93 -0.0 0 1 837.57 400.14
  L 837.57 377.29
  A 1.30 1.30 0.0 0 0 836.27 375.99
  L 826.36 375.99
  A 1.76 1.76 0.0 0 1 824.60 374.23
  L 824.60 337.78
  A 0.89 0.88 90.0 0 0 823.72 336.89
  L 813.44 336.89
  A 1.60 1.59 88.3 0 1 811.85 335.39
  Q 811.38 327.35 811.84 317.00
  Q 811.99 313.50 811.02 310.92
  L 811.32 299.24
  A 1.06 1.06 0.0 0 0 810.35 298.16
  Q 803.61 297.56 798.74 298.77
  L 797.61 298.12
  A 0.36 0.32 -26.3 0 0 797.43 298.07
  Q 674.71 297.93 662.50 297.89
  Q 659.87 297.89 656.73 298.29
  A 1.53 1.53 0.0 0 0 655.39 299.81
  L 655.39 309.70
  A 1.13 1.12 88.7 0 1 654.32 310.83
  L 644.03 311.32
  A 1.53 1.53 0.0 0 0 642.57 312.85
  L 642.57 335.90
  A 1.13 1.12 -0.0 0 1 641.44 337.02
  L 630.89 337.02
  A 1.31 1.31 0.0 0 0 629.58 338.33
  L 629.58 362.12
  A 0.93 0.92 90.0 0 1 628.66 363.05
  L 618.13 363.05
  A 1.62 1.62 0.0 0 0 616.51 364.67
  L 616.51 374.48
  A 1.30 1.30 0.0 0 1 615.27 375.78
  L 604.83 376.28
  A 1.30 1.30 0.0 0 0 603.59 377.58
  L 603.59 400.47
  A 1.53 1.53 0.0 0 1 602.06 402.00
  L 579.33 402.00
  A 1.87 1.87 0.0 0 0 577.46 403.87
  L 577.46 413.87
  A 1.13 1.13 0.0 0 1 576.33 415.00
  L 565.94 415.00
  A 1.35 1.35 0.0 0 0 564.59 416.35
  L 564.59 517.39
  A 1.70 1.70 0.0 0 0 566.29 519.09
  L 576.38 519.09
  A 1.15 1.15 0.0 0 1 577.53 520.24
  L 577.53 530.32
  A 1.78 1.78 0.0 0 0 579.31 532.10
  L 588.95 532.10
  A 1.55 1.55 0.0 0 1 590.50 533.65
  L 590.50 555.69
  A 2.39 2.39 0.0 0 0 592.89 558.08
  L 601.84 558.08
  A 1.65 1.65 0.0 0 1 603.49 559.73
  L 603.49 569.17
  A 1.91 1.91 0.0 0 0 605.40 571.08
  L 615.36 571.08
  A 1.14 1.14 0.0 0 1 616.50 572.22
  L 616.50 582.51
  A 1.55 1.55 0.0 0 0 618.05 584.06
  L 628.08 584.06
  A 1.38 1.38 0.0 0 1 629.46 585.41
  Q 629.59 592.53 629.58 594.48
  Q 629.56 596.79 632.52 596.95
  Q 636.18 597.13 641.19 597.39
  A 1.09 1.09 0.0 0 1 642.22 598.43
  L 642.72 608.71
  A 1.34 1.34 0.0 0 0 644.06 609.99
  L 732.42 609.99
  A 1.19 1.19 0.0 0 0 733.61 608.81
  L 733.77 597.03
  L 745.96 597.01
  L 746.61 608.74
  A 1.36 1.35 -1.6 0 0 747.97 610.02
  L 784.17 610.02
  A 1.47 1.46 0.0 0 0 785.64 608.56
  L 785.64 598.63
  A 1.12 1.11 86.2 0 1 786.60 597.52
  Q 788.31 597.27 791.72 597.23
  Q 800.55 597.13 809.20 596.91
  Q 811.38 596.85 811.65 595.74
  L 811.74 597.47
  L 811.28 608.21
  A 1.55 1.54 89.8 0 1 809.82 609.69
  L 799.93 610.16
  A 1.41 1.40 -1.5 0 0 798.59 611.56
  L 798.59 621.55
  A 1.31 1.31 0.0 0 1 797.28 622.86
  L 746.48 623.06
  L 681.74 623.16
  Q 680.03 623.40 678.19 623.27
  Q 675.14 623.04 674.63 623.05
  Q 653.44 623.24 638.25 623.05
  Q 634.86 623.01 631.16 622.63
  A 1.01 1.01 0.0 0 1 630.27 621.75
  L 628.97 611.33
  A 1.10 1.09 88.0 0 0 627.96 610.38
  L 618.73 609.73
  A 1.48 1.47 -1.6 0 1 617.36 608.44
  L 616.14 598.59
  A 0.98 0.97 0.4 0 0 615.30 597.74
  L 606.10 596.50
  A 1.64 1.64 0.0 0 1 604.72 595.20
  L 602.79 585.55
  A 1.09 1.09 0.0 0 0 601.87 584.70
  L 593.41 583.55
  A 2.31 2.31 0.0 0 1 591.43 581.61
  L 590.09 572.60
  A 0.99 0.98 89.6 0 0 589.25 571.77
  L 579.53 570.46
  A 1.39 1.39 0.0 0 1 578.34 569.27
  L 577.06 559.57
  A 1.59 1.58 88.2 0 0 575.60 558.19
  L 566.68 557.57
  A 1.31 1.29 84.4 0 1 565.51 556.60
  Q 564.54 552.84 564.56 548.95
  Q 564.61 541.46 564.06 533.79
  A 1.58 1.58 0.0 0 0 562.59 532.32
  L 553.77 531.70
  A 1.56 1.56 0.0 0 1 552.34 530.37
  Q 551.42 524.08 551.46 515.75
  Q 551.63 484.11 551.61 452.52
  L 551.76 389.71
  A 0.65 0.65 0.0 0 1 552.41 389.07
  L 563.49 389.07
  A 1.13 1.13 0.0 0 0 564.62 387.94
  L 564.62 377.20
  A 1.13 1.12 -0.0 0 1 565.75 376.08
  L 576.48 376.08
  A 1.17 1.17 0.0 0 0 577.65 374.91
  L 577.65 364.12
  A 1.11 1.10 -0.0 0 1 578.76 363.02
  L 601.64 363.02
  A 1.94 1.93 90.0 0 0 603.57 361.08
  L 603.57 338.58
  A 1.62 1.61 61.8 0 1 603.83 337.70
  L 604.30 337.01
  L 615.85 337.03
  A 0.76 0.75 0.0 0 0 616.61 336.28
  L 616.61 311.57
  A 0.54 0.54 0.0 0 1 617.15 311.03
  L 628.83 311.03
  A 0.81 0.81 0.0 0 0 629.64 310.22
  L 629.64 285.67
  A 0.62 0.62 0.0 0 0 629.02 285.05
  L 617.34 285.05
  A 0.76 0.76 0.0 0 1 616.58 284.29
  L 616.58 272.63
  A 0.76 0.76 0.0 0 0 615.83 271.87
  L 603.70 271.59
  L 603.82 259.44
  A 0.44 0.44 0.0 0 1 604.26 259.00
  L 641.73 259.00
  A 0.92 0.92 0.0 0 1 642.65 259.92
  L 642.65 270.90
  A 1.03 1.03 0.0 0 0 643.68 271.93
  L 667.67 271.93
  A 1.01 1.00 -90.0 0 1 668.67 272.94
  L 668.67 283.96
  A 1.15 1.14 -0.0 0 0 669.82 285.10
  L 797.68 285.10
  A 0.89 0.89 0.0 0 0 798.57 284.21
  L 798.57 272.55
  A 0.58 0.58 0.0 0 1 799.15 271.97
  L 836.53 271.97
  A 1.07 1.07 0.0 0 1 837.60 273.04
  L 837.60 283.96
  A 1.12 1.12 0.0 0 0 838.72 285.08
  L 849.70 285.08
  A 0.89 0.88 -90.0 0 1 850.58 285.97
  L 850.58 323.19
  A 0.92 0.91 -90.0 0 1 849.67 324.11
  L 838.54 324.11
  A 0.94 0.94 0.0 0 0 837.60 325.05
  L 837.60 361.91
  A 1.16 1.16 0.0 0 0 838.76 363.07
  L 849.72 363.07
  A 0.89 0.88 0.0 0 1 850.61 363.95
  L 850.61 388.09
  A 0.99 0.99 0.0 0 0 851.60 389.08
  L 862.60 389.08
  A 0.97 0.97 0.0 0 1 863.57 390.05
  L 863.57 400.99
  A 0.98 0.98 0.0 0 0 864.55 401.97
  L 875.66 401.97
  A 1.02 1.01 89.7 0 1 876.67 402.98
  L 876.84 440.76
  Z"
/>
<path fill="#ab8468" d="
  M 604.30 337.01
  Q 603.57 336.79 603.57 336.25
  Q 603.59 317.14 603.57 298.13
  L 603.70 271.59
  L 615.83 271.87
  A 0.76 0.76 0.0 0 1 616.58 272.63
  L 616.58 284.29
  A 0.76 0.76 0.0 0 0 617.34 285.05
  L 629.02 285.05
  A 0.62 0.62 0.0 0 1 629.64 285.67
  L 629.64 310.22
  A 0.81 0.81 0.0 0 1 628.83 311.03
  L 617.15 311.03
  A 0.54 0.54 0.0 0 0 616.61 311.57
  L 616.61 336.28
  A 0.76 0.75 -0.0 0 1 615.85 337.03
  L 604.30 337.01
  Z"
/>
<rect fill="#5f5b57" x="-6.14" y="-6.15" transform="translate(493.05,291.62) rotate(-0.3)" width="12.28" height="12.30" rx="1.68"/>
<path fill="#70625e" d="
  M 798.74 298.77
  L 798.92 310.21
  A 0.76 0.75 -0.4 0 0 799.68 310.95
  L 811.02 310.92
  Q 811.99 313.50 811.84 317.00
  Q 811.38 327.35 811.85 335.39
  A 1.60 1.59 88.3 0 0 813.44 336.89
  L 823.72 336.89
  A 0.89 0.88 -90.0 0 1 824.60 337.78
  L 824.60 374.23
  A 1.76 1.76 0.0 0 0 826.36 375.99
  L 836.27 375.99
  A 1.30 1.30 0.0 0 1 837.57 377.29
  L 837.57 400.14
  A 1.94 1.93 0.0 0 0 839.51 402.07
  L 849.46 402.07
  A 1.25 1.25 0.0 0 1 850.71 403.32
  L 850.71 413.58
  A 1.51 1.50 90.0 0 0 852.21 415.09
  L 862.66 415.09
  A 1.09 1.09 0.0 0 1 863.75 416.18
  L 863.75 439.65
  A 1.15 1.15 0.0 0 0 864.86 440.80
  L 875.55 441.10
  A 0.70 0.60 -23.0 0 1 875.87 441.20
  Q 876.50 441.58 876.68 442.47
  L 876.42 454.71
  L 865.31 454.87
  A 1.09 1.09 0.0 0 0 864.24 456.01
  L 864.69 465.39
  A 1.25 1.24 -1.0 0 0 865.92 466.57
  L 876.75 466.68
  L 888.41 467.07
  A 1.29 1.28 1.2 0 1 889.65 468.35
  L 889.65 492.35
  A 0.70 0.69 0.0 0 1 888.95 493.04
  L 877.46 493.04
  A 0.86 0.85 90.0 0 0 876.61 493.90
  L 876.61 531.28
  A 0.83 0.83 0.0 0 1 875.78 532.11
  L 864.83 532.11
  A 1.20 1.20 0.0 0 0 863.63 533.36
  Q 863.81 537.58 863.65 540.83
  C 863.54 543.20 863.94 544.96 861.19 544.90
  Q 859.29 544.87 851.62 545.16
  A 0.96 0.96 0.0 0 0 850.69 546.12
  L 850.69 556.77
  A 1.25 1.24 -90.0 0 1 849.45 558.02
  L 825.66 558.02
  A 0.98 0.98 0.0 0 0 824.68 559.00
  L 824.68 582.29
  A 1.82 1.81 -0.0 0 1 822.86 584.10
  L 813.09 584.10
  A 1.28 1.28 0.0 0 0 811.81 585.36
  L 811.65 595.74
  Q 811.38 596.85 809.20 596.91
  Q 800.55 597.13 791.72 597.23
  Q 788.31 597.27 786.60 597.52
  A 1.12 1.11 86.2 0 0 785.64 598.63
  L 785.64 608.56
  A 1.47 1.46 0.0 0 1 784.17 610.02
  L 747.97 610.02
  A 1.36 1.35 -1.6 0 1 746.61 608.74
  L 745.96 597.01
  Q 746.31 596.80 746.70 596.73
  Q 747.26 597.10 748.01 597.10
  Q 759.20 597.10 771.80 597.02
  A 0.75 0.75 0.0 0 0 772.55 596.29
  Q 772.71 591.01 772.47 584.73
  Q 772.46 584.40 771.95 584.09
  L 772.56 583.46
  Q 773.40 583.90 773.97 583.92
  Q 785.27 584.29 797.36 583.76
  A 1.20 1.19 -1.3 0 0 798.51 582.57
  L 798.51 572.60
  A 1.27 1.27 0.0 0 1 799.72 571.33
  L 810.35 570.82
  A 1.38 1.37 88.7 0 0 811.66 569.44
  L 811.66 559.65
  A 1.65 1.65 0.0 0 0 809.99 558.00
  Q 799.81 558.12 787.78 557.99
  Q 787.15 557.99 785.70 558.74
  Q 785.08 558.13 784.12 558.12
  Q 778.48 558.10 772.64 557.77
  Q 772.52 552.72 772.62 547.75
  Q 772.65 546.25 771.98 545.00
  C 772.43 544.93 772.61 544.65 772.62 544.21
  Q 772.69 531.86 772.60 519.63
  A 0.50 0.49 89.4 0 0 772.11 519.14
  L 759.63 519.13
  Q 759.96 519.51 759.38 519.03
  L 759.53 506.38
  A 0.40 0.39 -0.0 0 0 759.13 505.99
  L 721.26 505.99
  A 0.63 0.63 0.0 0 0 720.63 506.62
  L 720.63 518.64
  A 0.46 0.45 0.0 0 1 720.17 519.09
  L 708.41 519.09
  A 0.75 0.75 0.0 0 0 707.66 519.83
  Q 707.50 532.18 707.78 544.25
  Q 707.79 544.66 708.28 544.92
  Q 707.62 545.69 707.63 546.23
  Q 707.79 552.27 707.61 558.23
  L 695.12 558.10
  A 0.52 0.51 -89.5 0 0 694.60 558.62
  L 694.61 570.75
  L 682.09 570.89
  A 0.53 0.53 0.0 0 0 681.57 571.42
  L 681.57 582.94
  A 1.09 1.08 90.0 0 0 682.65 584.03
  L 693.97 584.03
  A 0.68 0.68 0.0 0 1 694.65 584.71
  L 694.65 595.65
  A 1.46 1.46 0.0 0 0 696.12 597.11
  Q 711.96 597.01 731.28 597.17
  Q 732.56 597.18 733.58 596.46
  Q 734.00 597.01 733.77 597.03
  L 733.61 608.81
  A 1.19 1.19 0.0 0 1 732.42 609.99
  L 644.06 609.99
  A 1.34 1.34 0.0 0 1 642.72 608.71
  L 642.22 598.43
  A 1.09 1.09 0.0 0 0 641.19 597.39
  Q 636.18 597.13 632.52 596.95
  Q 629.56 596.79 629.58 594.48
  Q 629.59 592.53 629.46 585.41
  A 1.38 1.38 0.0 0 0 628.08 584.06
  L 618.05 584.06
  A 1.55 1.55 0.0 0 1 616.50 582.51
  L 616.50 572.22
  A 1.14 1.14 0.0 0 0 615.36 571.08
  L 605.40 571.08
  A 1.91 1.91 0.0 0 1 603.49 569.17
  L 603.49 559.73
  A 1.65 1.65 0.0 0 0 601.84 558.08
  L 592.89 558.08
  A 2.39 2.39 0.0 0 1 590.50 555.69
  L 590.50 533.65
  A 1.55 1.55 0.0 0 0 588.95 532.10
  L 579.31 532.10
  A 1.78 1.78 0.0 0 1 577.53 530.32
  L 577.53 520.24
  A 1.15 1.15 0.0 0 0 576.38 519.09
  L 566.29 519.09
  A 1.70 1.70 0.0 0 1 564.59 517.39
  L 564.59 416.35
  A 1.35 1.35 0.0 0 1 565.94 415.00
  L 576.33 415.00
  A 1.13 1.13 0.0 0 0 577.46 413.87
  L 577.46 403.87
  A 1.87 1.87 0.0 0 1 579.33 402.00
  L 602.06 402.00
  A 1.53 1.53 0.0 0 0 603.59 400.47
  L 603.59 377.58
  A 1.30 1.30 0.0 0 1 604.83 376.28
  L 615.27 375.78
  A 1.30 1.30 0.0 0 0 616.51 374.48
  L 616.51 364.67
  A 1.62 1.62 0.0 0 1 618.13 363.05
  L 628.66 363.05
  A 0.93 0.92 -90.0 0 0 629.58 362.12
  L 629.58 338.33
  A 1.31 1.31 0.0 0 1 630.89 337.02
  L 641.44 337.02
  A 1.13 1.12 -0.0 0 0 642.57 335.90
  L 642.57 312.85
  A 1.53 1.53 0.0 0 1 644.03 311.32
  L 654.32 310.83
  A 1.13 1.12 88.7 0 0 655.39 309.70
  L 655.39 299.81
  A 1.53 1.53 0.0 0 1 656.73 298.29
  Q 659.87 297.89 662.50 297.89
  Q 674.71 297.93 797.43 298.07
  A 0.36 0.32 -26.3 0 1 797.61 298.12
  L 798.74 298.77
  Z"
/>
<path fill="#4a453a" d="
  M 811.02 310.92
  L 799.68 310.95
  A 0.76 0.75 -0.4 0 1 798.92 310.21
  L 798.74 298.77
  Q 803.61 297.56 810.35 298.16
  A 1.06 1.06 0.0 0 1 811.32 299.24
  L 811.02 310.92
  Z"
/>
<path fill="#5f5b57" d="
  M 476.08 298.43
  L 484.09 298.43
  A 2.16 2.16 0.0 0 1 486.25 300.59
  L 486.25 308.54
  A 2.16 2.16 0.0 0 1 484.09 310.70
  L 476.08 310.70
  A 2.16 2.16 0.0 0 1 473.92 308.54
  L 473.92 300.59
  A 2.16 2.16 0.0 0 1 476.08 298.43
  Z"
/>
<path fill="#5f5b57" d="
  M 551.95 321.79
  L 551.95 313.37
  A 2.03 2.03 0.0 0 1 553.88 311.35
  L 562.26 310.94
  A 2.03 2.03 0.0 0 1 564.39 312.97
  L 564.39 321.39
  A 2.03 2.03 0.0 0 1 562.46 323.41
  L 554.08 323.82
  A 2.03 2.03 0.0 0 1 551.95 321.79
  Z"
/>
<path fill="#5f5b57" d="
  M 345.25 336.85
  A 1.43 1.43 0.0 0 1 343.82 335.42
  L 343.84 326.79
  A 2.66 2.20 -89.9 0 1 346.04 324.13
  L 354.46 324.15
  A 2.66 2.20 -89.9 0 1 356.66 326.81
  L 356.64 335.44
  A 1.43 1.43 0.0 0 1 355.21 336.87
  L 345.25 336.85
  Z"
/>
<rect fill="#5f5b57" x="-6.42" y="-6.42" transform="translate(779.15,330.57) rotate(-0.1)" width="12.84" height="12.84" rx="2.21"/>
<rect fill="#5f5b57" x="-6.19" y="-6.20" transform="translate(545.06,330.48) rotate(0.1)" width="12.38" height="12.40" rx="2.32"/>
<path fill="#5f5b57" d="
  M 707.34 326.32
  L 707.34 334.52
  A 2.16 2.16 0.0 0 1 705.28 336.68
  L 697.13 337.07
  A 2.16 2.16 0.0 0 1 694.87 334.91
  L 694.87 326.71
  A 2.16 2.16 0.0 0 1 696.93 324.55
  L 705.08 324.16
  A 2.16 2.16 0.0 0 1 707.34 326.32
  Z"
/>
<path fill="#5f5b57" d="
  M 241.98 337.18
  L 250.20 337.18
  A 2.29 2.29 0.0 0 1 252.49 339.47
  L 252.49 347.67
  A 2.29 2.29 0.0 0 1 250.20 349.96
  L 241.98 349.96
  A 2.29 2.29 0.0 0 1 239.69 347.67
  L 239.69 339.47
  A 2.29 2.29 0.0 0 1 241.98 337.18
  Z"
/>
<rect fill="#5f5b57" x="-6.41" y="-6.41" transform="translate(363.09,343.49) rotate(-0.7)" width="12.82" height="12.82" rx="2.03"/>
<path fill="#5f5b57" d="
  M 785.65 339.02
  A 1.77 1.77 0.0 0 1 787.41 337.23
  L 795.14 337.15
  A 3.13 1.80 -0.6 0 1 798.29 338.91
  L 798.39 347.77
  A 3.13 1.80 -0.6 0 1 795.28 349.61
  L 787.54 349.69
  A 1.77 1.77 0.0 0 1 785.75 347.94
  L 785.65 339.02
  Z"
/>
<rect fill="#5f5b57" x="681.80" y="337.38" width="12.54" height="12.18" rx="1.51"/>
<rect fill="#5f5b57" x="-5.63" y="-5.90" transform="translate(440.85,343.65) rotate(-2.0)" width="11.26" height="11.80" rx="1.72"/>
<rect fill="#5f5b57" x="-6.46" y="-6.46" transform="translate(259.12,356.54) rotate(-0.1)" width="12.92" height="12.92" rx="2.44"/>
<path fill="#5f5b57" d="
  M 424.05 350.55
  L 432.18 350.55
  A 2.11 2.11 0.0 0 1 434.29 352.66
  L 434.29 360.68
  A 2.11 2.11 0.0 0 1 432.18 362.79
  L 424.05 362.79
  A 2.11 2.11 0.0 0 1 421.94 360.68
  L 421.94 352.66
  A 2.11 2.11 0.0 0 1 424.05 350.55
  Z"
/>
<rect fill="#5f5b57" x="-6.28" y="-6.21" transform="translate(272.07,369.32) rotate(-0.2)" width="12.56" height="12.42" rx="1.54"/>
<rect fill="#5f5b57" x="-6.40" y="-6.27" transform="translate(740.04,382.49) rotate(-1.2)" width="12.80" height="12.54" rx="1.88"/>
<rect fill="#5f5b57" x="-6.25" y="-6.29" transform="translate(727.12,395.46) rotate(0.1)" width="12.50" height="12.58" rx="1.93"/>
<rect fill="#5f5b57" x="-6.13" y="-6.16" transform="translate(220.16,408.55) rotate(-1.0)" width="12.26" height="12.32" rx="1.79"/>
<path fill="#5f5b57" d="
  M 436.73 402.71
  L 445.08 402.71
  A 1.68 1.68 0.0 0 1 446.76 404.39
  L 446.76 412.64
  A 1.68 1.68 0.0 0 1 445.16 414.32
  L 436.81 414.72
  A 1.68 1.68 0.0 0 1 435.05 413.04
  L 435.05 404.39
  A 1.68 1.68 0.0 0 1 436.73 402.71
  Z"
/>
<rect fill="#5f5b57" x="-6.25" y="-6.28" transform="translate(207.14,421.50) rotate(0.1)" width="12.50" height="12.56" rx="2.43"/>
<rect fill="#5f5b57" x="-6.29" y="-6.29" transform="translate(428.12,421.52) rotate(-0.2)" width="12.58" height="12.58" rx="2.28"/>
<path fill="#5f5b57" d="
  M 281.08 415.44
  L 288.98 415.07
  A 2.30 2.30 0.0 0 1 291.39 417.36
  L 291.39 425.29
  A 2.30 2.30 0.0 0 1 289.20 427.59
  L 281.30 427.96
  A 2.30 2.30 0.0 0 1 278.89 425.67
  L 278.89 417.74
  A 2.30 2.30 0.0 0 1 281.08 415.44
  Z"
/>
<path fill="#000000" d="
  M 668.63 466.40
  L 668.63 441.57
  A 0.62 0.62 0.0 0 0 668.01 440.95
  L 656.22 440.95
  A 0.62 0.62 0.0 0 1 655.60 440.33
  L 655.60 428.73
  A 0.62 0.62 0.0 0 1 656.22 428.11
  L 693.98 428.11
  A 0.62 0.62 0.0 0 1 694.60 428.73
  L 694.60 440.32
  A 0.62 0.62 0.0 0 0 695.22 440.94
  L 706.93 440.94
  A 0.62 0.62 0.0 0 1 707.55 441.56
  L 707.55 479.29
  A 0.62 0.62 0.0 0 1 706.93 479.91
  L 682.21 479.91
  A 0.62 0.62 0.0 0 1 681.59 479.29
  L 681.59 467.64
  A 0.62 0.62 0.0 0 0 680.97 467.02
  L 669.25 467.02
  A 0.62 0.62 0.0 0 1 668.63 466.40
  Z"
/>
<path fill="#000000" d="
  M 798.70 467.85
  L 798.45 479.20
  A 0.79 0.78 0.4 0 1 797.66 479.97
  L 773.41 479.94
  A 0.81 0.80 0.4 0 1 772.61 479.14
  L 772.59 441.35
  A 0.43 0.43 0.0 0 1 773.02 440.92
  L 784.96 440.95
  A 0.55 0.55 0.0 0 0 785.51 440.40
  L 785.61 428.55
  A 0.48 0.47 -89.4 0 1 786.08 428.08
  L 824.11 428.12
  A 0.46 0.45 0.0 0 1 824.57 428.57
  L 824.61 440.20
  A 0.66 0.65 -0.9 0 1 823.96 440.86
  L 812.37 441.03
  A 0.80 0.80 0.0 0 0 811.58 441.82
  L 811.52 466.21
  A 0.79 0.78 -0.4 0 1 810.74 466.99
  L 799.45 467.11
  A 0.76 0.76 0.0 0 0 798.70 467.85
  Z"
/>
<path fill="#5f5b57" d="
  M 200.41 430.62
  L 200.41 438.03
  A 2.57 2.57 0.0 0 1 197.96 440.60
  L 190.54 440.95
  A 2.57 2.57 0.0 0 1 187.85 438.38
  L 187.85 430.97
  A 2.57 2.57 0.0 0 1 190.30 428.40
  L 197.72 428.05
  A 2.57 2.57 0.0 0 1 200.41 430.62
  Z"
/>
<rect fill="#5f5b57" x="-6.16" y="-6.07" transform="translate(272.11,434.49) rotate(-0.3)" width="12.32" height="12.14" rx="1.87"/>
<path fill="#4a453a" d="
  M 811.74 597.47
  L 811.65 595.74
  L 811.81 585.36
  A 1.28 1.28 0.0 0 1 813.09 584.10
  L 822.86 584.10
  A 1.82 1.81 0.0 0 0 824.68 582.29
  L 824.68 559.00
  A 0.98 0.98 0.0 0 1 825.66 558.02
  L 849.45 558.02
  A 1.25 1.24 90.0 0 0 850.69 556.77
  L 850.69 546.12
  A 0.96 0.96 0.0 0 1 851.62 545.16
  Q 859.29 544.87 861.19 544.90
  C 863.94 544.96 863.54 543.20 863.65 540.83
  Q 863.81 537.58 863.63 533.36
  A 1.20 1.20 0.0 0 1 864.83 532.11
  L 875.78 532.11
  A 0.83 0.83 0.0 0 0 876.61 531.28
  L 876.61 493.90
  A 0.86 0.85 90.0 0 1 877.46 493.04
  L 888.95 493.04
  A 0.70 0.69 0.0 0 0 889.65 492.35
  L 889.65 468.35
  A 1.29 1.28 1.2 0 0 888.41 467.07
  L 876.75 466.68
  L 876.42 454.71
  L 876.68 442.47
  L 876.84 440.76
  L 888.44 441.02
  A 1.18 1.18 0.0 0 1 889.59 442.20
  L 889.59 465.85
  A 1.25 1.24 90.0 0 0 890.83 467.10
  L 901.42 467.10
  A 1.17 1.16 0.0 0 1 902.59 468.26
  L 902.59 505.17
  A 0.89 0.88 -90.0 0 1 901.71 506.06
  L 890.82 506.06
  A 1.17 1.17 0.0 0 0 889.65 507.23
  L 889.65 544.30
  A 0.80 0.80 0.0 0 1 888.85 545.10
  L 877.80 545.10
  A 1.07 1.07 0.0 0 0 876.73 546.17
  L 876.73 556.67
  A 1.09 1.08 -1.4 0 1 875.69 557.75
  L 864.99 558.27
  A 1.42 1.42 0.0 0 0 863.63 559.69
  L 863.63 569.14
  A 1.92 1.92 0.0 0 1 861.71 571.06
  L 838.75 571.06
  A 1.15 1.15 0.0 0 0 837.60 572.21
  L 837.60 583.02
  A 1.00 0.99 -0.0 0 1 836.60 584.01
  L 826.21 584.01
  A 1.73 1.72 -0.0 0 0 824.48 585.73
  L 824.48 596.03
  A 0.79 0.79 0.0 0 1 823.73 596.82
  L 811.74 597.47
  Z"
/>
<rect fill="#ffffff" x="-6.51" y="-6.51" transform="translate(688.06,447.51) rotate(0.1)" width="13.02" height="13.02" rx="0.61"/>
<rect fill="#ffffff" x="-6.52" y="-6.52" transform="translate(792.05,447.51) rotate(-0.1)" width="13.04" height="13.04" rx="0.56"/>
<rect fill="#5f5b57" x="-6.19" y="-6.20" transform="translate(623.12,447.57) rotate(-1.4)" width="12.38" height="12.40" rx="1.83"/>
<path fill="#5f5b57" d="
  M 681.74 623.16
  L 681.53 636.07
  L 618.41 635.62
  A 1.43 1.42 -1.1 0 1 616.99 634.26
  L 616.54 625.03
  A 1.34 1.34 0.0 0 0 615.38 623.76
  L 605.55 622.44
  A 1.45 1.45 0.0 0 1 604.31 621.20
  L 602.98 611.88
  A 1.48 1.48 0.0 0 0 601.71 610.61
  L 592.34 609.35
  A 1.55 1.53 -87.6 0 1 591.01 607.89
  L 590.58 598.98
  A 1.35 1.35 0.0 0 0 589.41 597.70
  L 579.13 596.32
  A 1.45 1.45 0.0 0 1 577.87 594.95
  L 577.43 585.81
  A 1.27 1.26 2.5 0 0 576.33 584.62
  L 566.79 583.33
  A 1.63 1.62 0.0 0 1 565.40 581.95
  L 564.10 572.85
  A 1.27 1.27 0.0 0 0 563.02 571.78
  L 553.17 570.46
  A 1.65 1.65 0.0 0 1 551.75 568.83
  L 551.75 547.22
  A 1.95 1.94 2.1 0 0 549.94 545.28
  L 540.16 544.60
  A 1.19 1.17 -0.3 0 1 539.06 543.52
  Q 538.83 540.95 538.80 537.48
  Q 538.42 494.17 539.03 455.41
  A 1.14 1.14 0.0 0 1 540.23 454.28
  Q 546.18 454.56 551.61 452.52
  Q 551.63 484.11 551.46 515.75
  Q 551.42 524.08 552.34 530.37
  A 1.56 1.56 0.0 0 0 553.77 531.70
  L 562.59 532.32
  A 1.58 1.58 0.0 0 1 564.06 533.79
  Q 564.61 541.46 564.56 548.95
  Q 564.54 552.84 565.51 556.60
  A 1.31 1.29 84.4 0 0 566.68 557.57
  L 575.60 558.19
  A 1.59 1.58 88.2 0 1 577.06 559.57
  L 578.34 569.27
  A 1.39 1.39 0.0 0 0 579.53 570.46
  L 589.25 571.77
  A 0.99 0.98 89.6 0 1 590.09 572.60
  L 591.43 581.61
  A 2.31 2.31 0.0 0 0 593.41 583.55
  L 601.87 584.70
  A 1.09 1.09 0.0 0 1 602.79 585.55
  L 604.72 595.20
  A 1.64 1.64 0.0 0 0 606.10 596.50
  L 615.30 597.74
  A 0.98 0.97 0.4 0 1 616.14 598.59
  L 617.36 608.44
  A 1.48 1.47 -1.6 0 0 618.73 609.73
  L 627.96 610.38
  A 1.10 1.09 88.0 0 1 628.97 611.33
  L 630.27 621.75
  A 1.01 1.01 0.0 0 0 631.16 622.63
  Q 634.86 623.01 638.25 623.05
  Q 653.44 623.24 674.63 623.05
  Q 675.14 623.04 678.19 623.27
  Q 680.03 623.40 681.74 623.16
  Z"
/>
<rect fill="#5f5b57" x="-6.15" y="-6.16" transform="translate(610.14,460.57) rotate(0.3)" width="12.30" height="12.32" rx="1.68"/>
<path fill="#5f5b57" d="
  M 876.42 454.71
  L 876.75 466.68
  L 865.92 466.57
  A 1.25 1.24 -1.0 0 1 864.69 465.39
  L 864.24 456.01
  A 1.09 1.09 0.0 0 1 865.31 454.87
  L 876.42 454.71
  Z"
/>
<path fill="#5f5b57" d="
  M 317.87 478.04
  L 317.87 468.92
  A 1.76 1.76 0.0 0 1 319.63 467.16
  L 328.76 467.16
  A 1.76 1.76 0.0 0 1 330.52 468.92
  L 330.52 478.04
  A 1.76 1.76 0.0 0 1 328.76 479.80
  L 319.63 479.80
  A 1.76 1.76 0.0 0 1 317.87 478.04
  Z"
/>
<rect fill="#5f5b57" x="-6.17" y="-6.17" transform="translate(857.07,473.39) rotate(0.4)" width="12.34" height="12.34" rx="2.34"/>
<rect fill="#5f5b57" x="-6.26" y="-6.29" transform="translate(168.12,473.49) rotate(0.9)" width="12.52" height="12.58" rx="1.90"/>
<rect fill="#5f5b57" x="174.82" y="480.27" width="12.72" height="12.72" rx="2.64"/>
<rect fill="#5f5b57" x="-6.30" y="-6.32" transform="translate(337.19,486.63) rotate(-0.5)" width="12.60" height="12.64" rx="2.36"/>
<path fill="#5f5b57" d="
  M 449.65 480.49
  L 458.49 480.06
  A 1.80 1.80 0.0 0 1 460.38 481.77
  L 460.82 491.04
  A 1.80 1.80 0.0 0 1 459.02 492.93
  L 449.74 492.93
  A 1.80 1.80 0.0 0 1 447.94 491.13
  L 447.94 482.28
  A 1.80 1.80 0.0 0 1 449.65 480.49
  Z"
/>
<path fill="#5f5b57" d="
  M 187.69 503.58
  L 187.69 495.56
  A 2.25 2.25 0.0 0 1 189.83 493.32
  L 197.94 492.92
  A 2.25 2.25 0.0 0 1 200.30 495.17
  L 200.30 503.19
  A 2.25 2.25 0.0 0 1 198.16 505.44
  L 190.05 505.83
  A 2.25 2.25 0.0 0 1 187.69 503.58
  Z"
/>
<rect fill="#5f5b57" x="-6.25" y="-6.22" transform="translate(350.06,499.36) rotate(-1.5)" width="12.50" height="12.44" rx="2.25"/>
<rect fill="#5f5b57" x="-6.34" y="-6.33" transform="translate(467.14,499.44) rotate(-0.3)" width="12.68" height="12.66" rx="2.18"/>
<rect fill="#5f5b57" x="-6.37" y="-6.36" transform="translate(272.20,512.54) rotate(-0.4)" width="12.74" height="12.72" rx="1.31"/>
<rect fill="#5f5b57" x="-6.15" y="-6.32" transform="translate(480.02,512.38) rotate(-0.5)" width="12.30" height="12.64" rx="1.65"/>
<path fill="#b4b4b4" d="
  M 759.38 519.03
  L 721.32 519.03
  A 0.72 0.71 0.0 0 0 720.60 519.74
  L 720.60 544.14
  A 0.88 0.87 -89.7 0 1 719.72 545.02
  L 708.28 544.92
  Q 707.79 544.66 707.78 544.25
  Q 707.50 532.18 707.66 519.83
  A 0.75 0.75 0.0 0 1 708.41 519.09
  L 720.17 519.09
  A 0.46 0.45 0.0 0 0 720.63 518.64
  L 720.63 506.62
  A 0.63 0.63 0.0 0 1 721.26 505.99
  L 759.13 505.99
  A 0.40 0.39 0.0 0 1 759.53 506.38
  L 759.38 519.03
  Z"
/>
<rect fill="#5f5b57" x="-6.42" y="-6.42" transform="translate(831.26,512.56) rotate(0.1)" width="12.84" height="12.84" rx="1.77"/>
<rect fill="#5f5b57" x="-6.43" y="-6.32" transform="translate(285.12,525.42) rotate(-0.2)" width="12.86" height="12.64" rx="2.05"/>
<rect fill="#5f5b57" x="-6.36" y="-6.36" transform="translate(623.28,525.47) rotate(-0.1)" width="12.72" height="12.72" rx="1.73"/>
<path fill="#4a453a" d="
  M 759.38 519.03
  Q 759.96 519.51 759.63 519.13
  L 759.66 544.40
  A 0.60 0.60 0.0 0 0 760.26 545.00
  L 771.98 545.00
  Q 772.65 546.25 772.62 547.75
  Q 772.52 552.72 772.64 557.77
  L 772.61 570.60
  A 0.47 0.47 0.0 0 1 772.13 571.07
  L 759.56 570.96
  L 759.54 558.80
  A 0.65 0.65 0.0 0 0 759.00 558.16
  L 758.46 558.06
  Q 759.05 558.11 759.42 557.80
  A 0.57 0.56 -21.4 0 0 759.61 557.38
  L 759.61 545.70
  A 0.71 0.70 90.0 0 0 758.91 544.99
  L 747.33 544.99
  A 0.73 0.73 0.0 0 0 746.60 545.72
  Q 746.56 551.63 746.57 557.35
  Q 746.57 557.91 747.28 558.03
  Q 747.11 558.12 746.94 558.20
  A 0.61 0.59 -14.1 0 0 746.61 558.73
  L 746.58 570.93
  L 733.53 570.93
  L 733.58 557.97
  L 733.47 545.59
  A 0.60 0.60 0.0 0 0 732.87 544.99
  L 721.18 544.99
  A 0.59 0.59 0.0 0 0 720.59 545.58
  L 720.59 557.43
  A 0.47 0.47 0.0 0 0 720.76 557.79
  Q 720.98 557.98 721.29 557.99
  Q 720.53 558.43 720.57 559.25
  Q 720.82 565.09 720.34 570.92
  L 707.80 571.00
  Q 707.63 570.89 707.58 570.69
  L 707.61 558.23
  Q 707.79 552.27 707.63 546.23
  Q 707.62 545.69 708.28 544.92
  L 719.72 545.02
  A 0.88 0.87 -89.7 0 0 720.60 544.14
  L 720.60 519.74
  A 0.72 0.71 0.0 0 1 721.32 519.03
  L 759.38 519.03
  Z"
/>
<path fill="#b4b4b4" d="
  M 771.98 545.00
  L 760.26 545.00
  A 0.60 0.60 0.0 0 1 759.66 544.40
  L 759.63 519.13
  L 772.11 519.14
  A 0.50 0.49 89.4 0 1 772.60 519.63
  Q 772.69 531.86 772.62 544.21
  C 772.61 544.65 772.43 544.93 771.98 545.00
  Z"
/>
<rect fill="#5f5b57" x="-6.45" y="-6.35" transform="translate(844.11,525.47) rotate(-0.5)" width="12.90" height="12.70" rx="1.78"/>
<path fill="#5f5b57" d="
  M 214.29 727.26
  L 211.06 727.45
  Q 211.33 726.66 210.76 726.68
  Q 205.85 726.80 201.03 726.63
  A 0.48 0.48 0.0 0 1 200.56 726.15
  L 200.56 649.79
  A 0.72 0.72 0.0 0 0 199.84 649.07
  L 188.96 649.07
  A 1.46 1.46 0.0 0 1 187.50 647.61
  L 187.50 623.59
  A 0.52 0.52 0.0 0 0 186.98 623.07
  Q 181.59 623.07 177.53 622.91
  Q 175.08 622.81 174.88 620.85
  Q 174.35 615.69 174.59 610.83
  A 0.81 0.81 0.0 0 0 173.78 609.97
  L 164.40 609.97
  A 2.53 2.53 0.0 0 1 161.87 607.56
  L 161.41 598.03
  A 0.75 0.73 0.5 0 0 160.71 597.33
  L 149.84 596.74
  A 0.81 0.79 79.3 0 1 149.14 596.25
  Q 148.65 595.05 148.61 592.75
  Q 148.42 580.88 148.59 563.87
  C 148.66 557.15 148.04 551.13 148.50 545.54
  A 0.46 0.45 2.8 0 0 148.04 545.04
  L 136.75 545.04
  A 0.81 0.80 89.3 0 1 135.95 544.25
  L 135.63 531.48
  L 146.89 532.20
  A 1.30 1.30 0.0 0 1 148.11 533.44
  L 148.51 541.80
  A 3.25 3.24 -89.4 0 0 151.52 544.88
  L 159.79 545.45
  A 0.98 0.98 0.0 0 1 160.69 546.29
  Q 161.20 549.80 161.36 554.15
  Q 161.54 559.10 161.75 582.36
  A 1.20 1.20 0.0 0 0 162.79 583.54
  L 173.00 584.92
  A 1.47 1.47 0.0 0 1 174.28 586.31
  L 174.66 594.19
  A 2.24 2.23 -87.5 0 0 176.59 596.30
  L 185.94 597.56
  A 0.90 0.89 89.5 0 1 186.70 598.32
  L 188.19 608.35
  A 1.69 1.68 87.6 0 0 189.74 609.79
  L 199.37 610.46
  A 1.28 1.27 2.2 0 1 200.55 611.73
  L 200.55 634.28
  A 1.48 1.47 1.9 0 0 201.93 635.75
  L 212.07 636.46
  A 1.19 1.19 0.0 0 1 213.16 637.46
  Q 213.32 638.49 213.44 643.30
  Q 213.68 652.79 213.61 717.43
  Q 213.61 722.27 214.29 727.26
  Z"
/>
<rect fill="#5f5b57" x="-6.40" y="-6.42" transform="translate(207.24,538.60) rotate(-0.2)" width="12.80" height="12.84" rx="2.10"/>
<path fill="#5f5b57" d="
  M 642.43 534.27
  L 642.43 542.60
  A 2.18 2.18 0.0 0 1 640.25 544.78
  L 631.92 544.78
  A 2.18 2.18 0.0 0 1 629.74 542.60
  L 629.74 534.27
  A 2.18 2.18 0.0 0 1 631.92 532.09
  L 640.25 532.09
  A 2.18 2.18 0.0 0 1 642.43 534.27
  Z"
/>
<path fill="#b4b4b4" d="
  M 758.46 558.06
  L 747.28 558.03
  Q 746.57 557.91 746.57 557.35
  Q 746.56 551.63 746.60 545.72
  A 0.73 0.73 0.0 0 1 747.33 544.99
  L 758.91 544.99
  A 0.71 0.70 -90.0 0 1 759.61 545.70
  L 759.61 557.38
  A 0.57 0.56 -21.4 0 1 759.42 557.80
  Q 759.05 558.11 758.46 558.06
  Z"
/>
<rect fill="#5f5b57" x="-6.39" y="-6.39" transform="translate(220.06,551.48) rotate(-0.4)" width="12.78" height="12.78" rx="1.65"/>
<path fill="#b4b4b4" d="
  M 733.58 557.97
  L 721.29 557.99
  Q 720.98 557.98 720.76 557.79
  A 0.47 0.47 0.0 0 1 720.59 557.43
  L 720.59 545.58
  A 0.59 0.59 0.0 0 1 721.18 544.99
  L 732.87 544.99
  A 0.60 0.60 0.0 0 1 733.47 545.59
  L 733.58 557.97
  Z"
/>
<path fill="#5f5b57" d="
  M 408.88 555.55
  L 408.88 547.96
  A 2.39 2.39 0.0 0 1 411.15 545.57
  L 418.72 545.20
  A 2.39 2.39 0.0 0 1 421.23 547.59
  L 421.23 555.19
  A 2.39 2.39 0.0 0 1 418.95 557.58
  L 411.38 557.94
  A 2.39 2.39 0.0 0 1 408.88 555.55
  Z"
/>
<path fill="#ab8468" d="
  M 785.70 558.74
  L 785.72 569.99
  A 1.02 1.02 0.0 0 1 784.70 571.01
  L 773.53 571.01
  A 0.83 0.83 0.0 0 0 772.70 571.83
  L 772.56 583.46
  L 771.95 584.09
  L 747.32 584.17
  A 0.67 0.67 0.0 0 0 746.65 584.84
  L 746.70 596.73
  Q 746.31 596.80 745.96 597.01
  L 733.77 597.03
  Q 734.00 597.01 733.58 596.46
  L 733.58 584.62
  A 0.54 0.53 90.0 0 0 733.05 584.08
  L 708.30 584.08
  A 0.76 0.76 0.0 0 1 707.54 583.30
  L 707.80 571.00
  L 720.34 570.92
  L 733.53 570.93
  L 746.58 570.93
  L 759.56 570.96
  L 772.13 571.07
  A 0.47 0.47 0.0 0 0 772.61 570.60
  L 772.64 557.77
  Q 778.48 558.10 784.12 558.12
  Q 785.08 558.13 785.70 558.74
  Z"
/>
<path fill="#5f5b57" d="
  M 565.30 727.56
  L 551.92 727.55
  Q 550.19 722.79 551.45 718.87
  A 2.88 2.82 53.9 0 0 551.57 718.05
  L 551.57 701.63
  A 0.60 0.60 0.0 0 0 550.97 701.03
  L 539.92 701.03
  A 1.22 1.21 0.5 0 1 538.70 699.80
  L 538.80 688.18
  L 538.45 675.84
  A 0.76 0.76 0.0 0 0 537.69 675.10
  L 526.57 675.10
  A 1.03 1.03 0.0 0 1 525.54 674.07
  L 525.54 623.98
  A 0.92 0.91 -0.0 0 0 524.62 623.07
  L 513.23 623.07
  A 0.64 0.64 0.0 0 0 512.59 623.71
  L 512.59 635.50
  A 0.62 0.62 0.0 0 1 511.97 636.12
  L 500.47 636.12
  A 0.90 0.90 0.0 0 0 499.57 637.02
  L 499.57 648.24
  A 0.73 0.73 0.0 0 1 498.84 648.97
  L 474.59 648.97
  A 0.99 0.99 0.0 0 0 473.60 649.96
  L 473.60 660.96
  A 1.15 1.15 0.0 0 1 472.45 662.11
  L 383.62 662.11
  A 1.03 1.03 0.0 0 1 382.59 661.08
  L 382.59 649.99
  A 1.04 1.03 90.0 0 0 381.56 648.95
  L 370.49 648.95
  A 0.87 0.87 0.0 0 1 369.62 648.08
  L 369.62 637.31
  A 1.22 1.21 0.0 0 0 368.40 636.10
  L 344.77 636.10
  A 1.25 1.25 0.0 0 1 343.52 634.85
  L 343.52 623.93
  A 0.85 0.85 0.0 0 0 342.67 623.08
  L 331.81 623.08
  A 1.22 1.21 90.0 0 1 330.60 621.86
  L 330.60 611.08
  A 1.13 1.13 0.0 0 0 329.47 609.95
  L 319.12 609.95
  A 1.54 1.53 -0.0 0 1 317.58 608.42
  L 317.58 597.93
  A 0.79 0.79 0.0 0 0 316.79 597.14
  L 292.16 597.14
  A 0.57 0.57 0.0 0 1 291.59 596.57
  L 291.59 585.20
  A 1.11 1.11 0.0 0 0 290.48 584.09
  L 278.84 584.01
  L 278.91 559.30
  A 1.16 1.16 0.0 0 1 280.07 558.15
  L 290.32 558.15
  A 1.23 1.23 0.0 0 1 291.55 559.38
  L 291.55 568.74
  A 2.44 2.43 90.0 0 0 293.98 571.18
  L 303.05 571.18
  A 1.21 1.20 88.5 0 1 304.25 572.33
  L 304.75 582.65
  A 1.57 1.57 0.0 0 0 306.32 584.15
  L 329.34 584.15
  A 1.02 1.01 88.5 0 1 330.35 585.12
  L 330.84 595.36
  A 1.27 1.26 -89.8 0 0 332.02 596.56
  L 342.13 597.27
  A 1.08 1.08 0.0 0 1 343.13 598.30
  L 343.61 608.23
  A 1.44 1.44 0.0 0 0 344.95 609.60
  L 355.36 610.33
  A 1.26 1.25 2.0 0 1 356.53 611.58
  L 356.53 621.11
  A 1.72 1.71 0.0 0 0 358.25 622.82
  L 368.28 622.82
  A 1.01 1.00 1.8 0 0 369.29 621.88
  L 370.04 611.24
  A 1.08 1.07 -88.0 0 1 371.11 610.24
  L 381.46 610.24
  A 0.97 0.97 0.0 0 1 382.43 611.16
  L 382.91 621.24
  A 1.70 1.70 0.0 0 0 384.61 622.86
  L 393.90 622.86
  A 1.54 1.54 0.0 0 0 395.44 621.43
  L 396.14 611.33
  A 1.28 1.27 -87.8 0 1 397.41 610.15
  L 407.36 610.15
  A 1.07 1.06 -0.5 0 1 408.43 611.19
  L 408.64 620.85
  A 1.00 0.96 -55.2 0 0 408.69 621.16
  Q 409.41 623.20 411.75 623.09
  Q 418.48 622.77 419.98 622.66
  A 1.32 1.32 0.0 0 0 421.19 621.44
  L 421.88 611.49
  A 1.36 1.36 0.0 0 1 423.24 610.23
  L 433.43 610.23
  A 1.00 1.00 0.0 0 1 434.43 611.19
  L 434.93 621.49
  A 1.39 1.39 0.0 0 0 436.32 622.82
  L 445.86 622.82
  A 1.35 1.35 0.0 0 0 447.21 621.57
  L 447.90 611.58
  A 1.57 1.56 -87.8 0 1 449.46 610.13
  L 459.43 610.13
  A 1.24 1.24 0.0 0 1 460.67 611.37
  L 460.67 621.26
  A 1.55 1.54 90.0 0 0 462.21 622.81
  L 471.90 622.81
  A 1.26 1.25 -88.0 0 0 473.15 621.64
  L 473.87 611.35
  A 1.25 1.25 0.0 0 1 475.12 610.19
  L 485.47 610.19
  A 1.06 1.05 -90.0 0 1 486.52 611.25
  L 486.52 620.87
  A 2.32 2.31 -1.4 0 0 488.95 623.18
  L 498.22 622.74
  A 1.23 1.23 0.0 0 0 499.38 621.60
  L 500.09 611.39
  A 1.32 1.31 0.5 0 1 501.34 610.17
  L 511.62 609.68
  A 1.07 1.07 0.0 0 0 512.64 608.61
  L 512.64 598.43
  A 1.25 1.24 -90.0 0 1 513.88 597.18
  L 524.54 597.18
  A 1.04 1.03 -90.0 0 1 525.57 598.22
  L 525.57 608.59
  A 1.13 1.13 0.0 0 0 526.63 609.72
  L 537.24 610.46
  A 1.02 1.02 0.0 0 1 538.18 611.42
  L 538.64 621.04
  A 1.75 1.73 0.8 0 0 540.26 622.69
  L 550.16 623.38
  A 1.27 1.26 1.9 0 1 551.34 624.64
  L 551.34 634.29
  A 1.33 1.32 -1.4 0 1 550.07 635.61
  L 540.05 636.10
  A 1.58 1.57 88.7 0 0 538.55 637.68
  L 538.55 647.26
  A 1.38 1.37 2.0 0 0 539.83 648.63
  L 550.49 649.38
  A 1.00 0.99 -88.2 0 1 551.42 650.38
  L 551.42 660.29
  A 1.19 1.18 88.7 0 1 550.29 661.48
  L 540.05 661.98
  A 1.66 1.65 0.4 0 0 538.47 663.53
  Q 538.13 669.07 539.62 674.24
  A 0.64 0.63 84.2 0 0 540.19 674.71
  L 549.96 675.39
  A 1.08 1.08 0.0 0 1 550.96 676.42
  L 552.08 699.61
  A 1.10 1.09 -89.4 0 0 553.09 700.65
  L 563.52 701.38
  A 0.98 0.98 0.0 0 1 564.43 702.32
  L 565.30 727.56
  Z"
/>
<rect fill="#53494a" x="-6.52" y="-6.51" transform="translate(675.17,564.58) rotate(-0.2)" width="13.04" height="13.02" rx="1.46"/>
<path fill="#ab8468" d="
  M 707.61 558.23
  L 707.58 570.69
  Q 707.46 570.79 707.35 570.86
  A 0.76 0.75 28.0 0 1 706.88 571.00
  L 694.61 570.75
  L 694.60 558.62
  A 0.52 0.51 -89.5 0 1 695.12 558.10
  L 707.61 558.23
  Z"
/>
<path fill="#000000" d="
  M 721.29 557.99
  L 733.58 557.97
  L 733.53 570.93
  L 720.34 570.92
  Q 720.82 565.09 720.57 559.25
  Q 720.53 558.43 721.29 557.99
  Z"
/>
<path fill="#000000" d="
  M 758.46 558.06
  L 759.00 558.16
  A 0.65 0.65 0.0 0 1 759.54 558.80
  L 759.56 570.96
  L 746.58 570.93
  L 746.61 558.73
  A 0.61 0.59 -14.1 0 1 746.94 558.20
  Q 747.11 558.12 747.28 558.03
  L 758.46 558.06
  Z"
/>
<path fill="#53494a" d="
  M 772.56 583.46
  L 772.70 571.83
  A 0.83 0.83 0.0 0 1 773.53 571.01
  L 784.70 571.01
  A 1.02 1.02 0.0 0 0 785.72 569.99
  L 785.70 558.74
  Q 787.15 557.99 787.78 557.99
  Q 799.81 558.12 809.99 558.00
  A 1.65 1.65 0.0 0 1 811.66 559.65
  L 811.66 569.44
  A 1.38 1.37 88.7 0 1 810.35 570.82
  L 799.72 571.33
  A 1.27 1.27 0.0 0 0 798.51 572.60
  L 798.51 582.57
  A 1.20 1.19 -1.3 0 1 797.36 583.76
  Q 785.27 584.29 773.97 583.92
  Q 773.40 583.90 772.56 583.46
  Z"
/>
<path fill="#5f5b57" d="
  M 397.99 558.53
  L 406.27 558.53
  A 1.92 1.92 0.0 0 1 408.19 560.45
  L 408.19 568.54
  A 1.92 1.92 0.0 0 1 406.36 570.46
  L 398.08 570.85
  A 1.92 1.92 0.0 0 1 396.07 568.94
  L 396.07 560.45
  A 1.92 1.92 0.0 0 1 397.99 558.53
  Z"
/>
<path fill="#53494a" d="
  M 694.61 570.75
  L 706.88 571.00
  A 0.76 0.75 28.0 0 0 707.35 570.86
  Q 707.46 570.79 707.58 570.69
  Q 707.63 570.89 707.80 571.00
  L 707.54 583.30
  A 0.76 0.76 0.0 0 0 708.30 584.08
  L 733.05 584.08
  A 0.54 0.53 -90.0 0 1 733.58 584.62
  L 733.58 596.46
  Q 732.56 597.18 731.28 597.17
  Q 711.96 597.01 696.12 597.11
  A 1.46 1.46 0.0 0 1 694.65 595.65
  L 694.65 584.71
  A 0.68 0.68 0.0 0 0 693.97 584.03
  L 682.65 584.03
  A 1.09 1.08 90.0 0 1 681.57 582.94
  L 681.57 571.42
  A 0.53 0.53 0.0 0 1 682.09 570.89
  L 694.61 570.75
  Z"
/>
<path fill="#312823" d="
  M 538.80 688.18
  L 449.30 688.15
  A 1.73 1.72 -0.0 0 0 447.57 689.87
  L 447.57 700.17
  A 0.87 0.86 90.0 0 1 446.71 701.04
  L 435.84 701.04
  A 1.22 1.21 0.0 0 0 434.62 702.25
  L 434.58 727.97
  Q 434.07 727.81 433.41 728.06
  A 0.76 0.75 -10.9 0 0 432.93 728.76
  L 432.75 762.15
  Q 422.60 735.94 396.34 727.95
  Q 380.76 723.21 363.93 725.91
  Q 346.47 724.45 330.54 732.38
  L 330.54 649.82
  A 0.84 0.83 0.0 0 0 329.70 648.99
  L 318.47 648.99
  A 0.91 0.91 0.0 0 1 317.56 648.08
  L 317.56 636.96
  A 0.93 0.93 0.0 0 0 316.63 636.03
  L 305.75 636.03
  A 1.14 1.14 0.0 0 1 304.61 634.89
  L 304.61 623.77
  A 0.67 0.67 0.0 0 0 303.94 623.10
  L 292.65 623.10
  A 1.04 1.04 0.0 0 1 291.61 622.06
  L 291.61 597.89
  A 0.81 0.81 0.0 0 0 290.80 597.08
  L 279.36 597.08
  A 0.65 0.65 0.0 0 1 278.71 596.42
  L 278.84 584.01
  L 290.48 584.09
  A 1.11 1.11 0.0 0 1 291.59 585.20
  L 291.59 596.57
  A 0.57 0.57 0.0 0 0 292.16 597.14
  L 316.79 597.14
  A 0.79 0.79 0.0 0 1 317.58 597.93
  L 317.58 608.42
  A 1.54 1.53 -0.0 0 0 319.12 609.95
  L 329.47 609.95
  A 1.13 1.13 0.0 0 1 330.60 611.08
  L 330.60 621.86
  A 1.22 1.21 -90.0 0 0 331.81 623.08
  L 342.67 623.08
  A 0.85 0.85 0.0 0 1 343.52 623.93
  L 343.52 634.85
  A 1.25 1.25 0.0 0 0 344.77 636.10
  L 368.40 636.10
  A 1.22 1.21 0.0 0 1 369.62 637.31
  L 369.62 648.08
  A 0.87 0.87 0.0 0 0 370.49 648.95
  L 381.56 648.95
  A 1.04 1.03 -90.0 0 1 382.59 649.99
  L 382.59 661.08
  A 1.03 1.03 0.0 0 0 383.62 662.11
  L 472.45 662.11
  A 1.15 1.15 0.0 0 0 473.60 660.96
  L 473.60 649.96
  A 0.99 0.99 0.0 0 1 474.59 648.97
  L 498.84 648.97
  A 0.73 0.73 0.0 0 0 499.57 648.24
  L 499.57 637.02
  A 0.90 0.90 0.0 0 1 500.47 636.12
  L 511.97 636.12
  A 0.62 0.62 0.0 0 0 512.59 635.50
  L 512.59 623.71
  A 0.64 0.64 0.0 0 1 513.23 623.07
  L 524.62 623.07
  A 0.92 0.91 -0.0 0 1 525.54 623.98
  L 525.54 674.07
  A 1.03 1.03 0.0 0 0 526.57 675.10
  L 537.69 675.10
  A 0.76 0.76 0.0 0 1 538.45 675.84
  L 538.80 688.18
  Z"
/>
<path fill="#53494a" d="
  M 771.95 584.09
  Q 772.46 584.40 772.47 584.73
  Q 772.71 591.01 772.55 596.29
  A 0.75 0.75 0.0 0 1 771.80 597.02
  Q 759.20 597.10 748.01 597.10
  Q 747.26 597.10 746.70 596.73
  L 746.65 584.84
  A 0.67 0.67 0.0 0 1 747.32 584.17
  L 771.95 584.09
  Z"
/>
<path fill="#5f5b57" d="
  M 265.24 612.13
  L 265.24 620.74
  A 1.64 1.64 0.0 0 1 263.68 622.38
  L 254.65 622.82
  A 1.64 1.64 0.0 0 1 252.93 621.18
  L 252.93 612.13
  A 1.64 1.64 0.0 0 1 254.57 610.49
  L 263.60 610.49
  A 1.64 1.64 0.0 0 1 265.24 612.13
  Z"
/>
<rect fill="#5f5b57" x="-6.05" y="-6.23" transform="translate(246.14,629.38) rotate(-0.4)" width="12.10" height="12.46" rx="2.08"/>
<rect fill="#5f5b57" x="-6.23" y="-6.24" transform="translate(584.17,629.53) rotate(0.1)" width="12.46" height="12.48" rx="1.76"/>
<path fill="#312823" d="
  M 746.48 623.06
  L 746.66 660.50
  A 1.56 1.56 0.0 0 1 745.10 662.07
  L 735.22 662.07
  A 1.64 1.64 0.0 0 0 733.58 663.71
  L 733.58 725.46
  A 1.42 1.42 0.0 0 0 735.15 726.87
  Q 739.05 726.46 742.86 727.34
  Q 741.69 727.55 741.69 727.97
  L 726.97 728.13
  A 0.79 0.79 0.0 0 0 726.26 728.61
  L 720.51 741.58
  Q 719.64 739.73 718.89 739.70
  Q 704.94 739.27 695.57 739.60
  A 0.65 0.65 0.0 0 1 694.90 738.95
  L 694.90 727.51
  A 0.87 0.87 0.0 0 0 694.01 726.64
  L 683.80 726.92
  Q 682.76 727.30 682.19 727.09
  Q 681.57 726.87 681.57 725.71
  Q 681.57 720.67 681.55 714.81
  A 0.78 0.78 0.0 0 0 680.77 714.03
  L 669.23 714.03
  A 0.63 0.63 0.0 0 1 668.60 713.40
  L 668.60 662.76
  A 0.71 0.70 -0.0 0 1 669.31 662.06
  L 680.44 662.06
  A 1.00 1.00 0.0 0 0 681.44 661.06
  L 681.53 636.07
  L 681.74 623.16
  L 746.48 623.06
  Z"
/>
<rect fill="#5f5b57" x="-6.47" y="-6.47" transform="translate(597.11,642.58) rotate(-0.9)" width="12.94" height="12.94" rx="2.58"/>
<rect fill="#5f5b57" x="-6.37" y="-6.37" transform="translate(610.11,655.41) rotate(-0.5)" width="12.74" height="12.74" rx="2.25"/>
<rect fill="#5f5b57" x="-6.46" y="-6.46" transform="translate(259.11,668.56) rotate(-0.1)" width="12.92" height="12.92" rx="1.99"/>
<path fill="#5f5b57" d="
  M 278.49 676.62
  L 278.49 686.35
  A 1.52 1.52 0.0 0 1 276.97 687.87
  L 267.28 687.87
  A 1.52 1.52 0.0 0 1 265.76 686.35
  L 265.76 676.62
  A 1.52 1.52 0.0 0 1 267.28 675.10
  L 276.97 675.10
  A 1.52 1.52 0.0 0 1 278.49 676.62
  Z"
/>
<path fill="#0c2374" d="
  M 538.80 688.18
  L 538.70 699.80
  A 1.22 1.21 0.5 0 0 539.92 701.03
  L 550.97 701.03
  A 0.60 0.60 0.0 0 1 551.57 701.63
  L 551.57 718.05
  A 2.88 2.82 53.9 0 1 551.45 718.87
  Q 550.19 722.79 551.92 727.55
  Q 547.47 727.10 544.62 727.95
  L 529.91 728.04
  A 0.77 0.76 15.0 0 0 529.25 728.41
  L 503.97 770.93
  L 477.97 728.30
  A 1.68 1.67 -15.7 0 0 476.54 727.50
  Q 462.50 727.47 449.00 727.49
  Q 448.49 727.50 447.97 728.01
  L 434.58 727.97
  L 434.62 702.25
  A 1.22 1.21 0.0 0 1 435.84 701.04
  L 446.71 701.04
  A 0.87 0.86 -90.0 0 0 447.57 700.17
  L 447.57 689.87
  A 1.73 1.72 -0.0 0 1 449.30 688.15
  L 538.80 688.18
  Z"
/>
<rect fill="#5f5b57" x="-6.34" y="-6.35" transform="translate(285.09,694.62) rotate(-1.0)" width="12.68" height="12.70" rx="2.10"/>
<path fill="#5f5b57" d="
  M 615.79 727.53
  L 603.30 727.47
  L 603.85 715.07
  A 1.21 1.20 -88.5 0 1 605.05 713.92
  L 615.57 713.92
  A 0.80 0.80 0.0 0 1 616.37 714.65
  Q 616.92 720.97 615.79 727.53
  Z"
/>
<path fill="#d89f24" d="
  M 432.75 762.15
  Q 433.00 764.02 433.52 766.07
  Q 434.26 768.95 434.44 769.97
  Q 436.88 784.25 432.61 797.96
  Q 422.43 824.00 396.50 831.77
  Q 383.88 835.56 369.19 834.68
  Q 367.66 834.22 363.25 833.49
  C 336.65 829.07 317.29 807.64 316.99 780.50
  C 316.68 752.21 336.07 730.80 363.93 725.91
  Q 380.76 723.21 396.34 727.95
  Q 422.60 735.94 432.75 762.15
  Z"
/>
<path stroke="#5e2453" stroke-width="2.00" fill="none" stroke-linecap="butt" vector-effect="non-scaling-stroke" d="
  M 369.84 805.19
  Q 382.40 798.51 383.95 785.26
  C 385.48 772.28 380.78 760.15 367.82 755.11"
/>
<path fill="#af2431" d="
  M 363.93 725.91
  C 336.07 730.80 316.68 752.21 316.99 780.50
  C 317.29 807.64 336.65 829.07 363.25 833.49
  Q 367.66 834.22 369.19 834.68
  Q 354.50 836.69 340.91 832.54
  Q 326.58 828.17 316.62 818.11
  Q 301.67 803.03 301.44 779.48
  Q 301.71 766.19 307.95 754.40
  Q 313.54 743.83 323.07 737.07
  Q 326.42 734.70 330.54 732.38
  Q 346.47 724.45 363.93 725.91
  Z"
/>
<path fill="#53494a" d="
  M 720.51 741.58
  L 709.38 767.03
  Q 707.20 762.98 707.36 757.34
  Q 707.61 748.31 707.58 741.83
  A 1.09 1.08 0.0 0 0 706.49 740.75
  L 695.76 740.75
  A 1.79 1.79 0.0 0 1 693.97 739.05
  L 693.46 728.37
  A 0.67 0.67 0.0 0 0 692.85 727.74
  L 683.80 726.92
  L 694.01 726.64
  A 0.87 0.87 0.0 0 1 694.90 727.51
  L 694.90 738.95
  A 0.65 0.65 0.0 0 0 695.57 739.60
  Q 704.94 739.27 718.89 739.70
  Q 719.64 739.73 720.51 741.58
  Z"
/>
<path fill="#d89f24" d="
  M 184.31 762.76
  L 191.45 786.28
  A 0.19 0.19 0.0 0 0 191.82 786.28
  L 210.78 727.97
  Q 210.46 728.17 211.06 727.45
  L 214.29 727.26
  L 243.05 727.27
  A 0.68 0.67 -8.0 0 1 243.70 727.75
  L 254.51 763.08
  L 261.62 787.10
  A 0.21 0.21 0.0 0 0 262.02 787.10
  L 281.15 727.48
  L 314.32 727.27
  A 0.40 0.39 8.6 0 1 314.70 727.78
  L 298.64 778.76
  L 281.28 831.98
  A 0.42 0.41 8.0 0 1 280.90 832.26
  L 249.76 832.61
  L 244.21 832.59
  Q 243.55 832.70 243.86 832.82
  L 226.62 777.21
  A 0.30 0.30 0.0 0 0 226.05 777.21
  L 218.30 801.63
  L 208.71 831.51
  A 1.18 1.16 -81.1 0 1 207.60 832.33
  L 176.79 832.60
  L 171.85 832.45
  A 1.91 1.90 82.0 0 1 170.09 831.12
  L 137.09 727.75
  Q 137.09 727.52 137.31 727.38
  Q 137.46 727.27 137.75 727.27
  Q 155.27 727.21 172.87 727.27
  A 0.74 0.73 -8.6 0 1 173.57 727.78
  L 184.31 762.76
  Z"
/>
<path fill="#d89f24" d="
  M 742.86 727.34
  L 776.15 727.46
  A 0.82 0.81 -11.3 0 1 776.88 727.94
  L 822.39 832.17
  A 0.19 0.19 0.0 0 1 822.22 832.43
  L 786.04 832.77
  L 779.05 814.67
  A 0.71 0.70 -10.1 0 0 778.39 814.22
  L 761.93 814.46
  L 739.37 814.53
  A 0.73 0.70 9.5 0 0 738.71 814.98
  L 732.18 831.87
  A 0.89 0.87 9.8 0 1 731.37 832.43
  L 695.86 832.77
  L 741.69 727.97
  Q 741.69 727.55 742.86 727.34
  Z"
/>
<path stroke="#5e2453" stroke-width="2.00" fill="none" stroke-linecap="butt" vector-effect="non-scaling-stroke" d="
  M 753.39 788.72
  L 751.33 782.23"
/>
<path fill="#d89f24" d="
  M 503.97 770.93
  L 511.47 783.12
  A 0.15 0.15 0.0 0 0 511.73 783.11
  L 544.62 727.95
  Q 547.47 727.10 551.92 727.55
  L 565.30 727.56
  L 573.34 727.63
  A 0.54 0.54 0.0 0 1 573.87 728.16
  L 574.11 739.20
  L 574.28 832.09
  A 0.36 0.36 0.0 0 1 573.93 832.45
  L 542.07 832.80
  L 541.79 785.20
  A 0.19 0.19 0.0 0 0 541.44 785.11
  L 526.50 810.35
  L 519.41 822.22
  A 1.74 1.73 -74.8 0 1 517.94 823.07
  L 503.45 823.24
  L 480.84 786.78
  A 0.14 0.14 0.0 0 0 480.58 786.85
  L 480.59 812.01
  L 480.52 832.15
  A 0.32 0.32 0.0 0 1 480.21 832.47
  L 448.33 832.82
  L 448.40 728.47
  A 0.40 0.40 0.0 0 0 448.24 728.15
  Q 448.12 728.07 447.97 728.01
  Q 448.49 727.50 449.00 727.49
  Q 462.50 727.47 476.54 727.50
  A 1.68 1.67 -15.7 0 1 477.97 728.30
  L 503.97 770.93
  Z"
/>
<path fill="#d89f24" d="
  M 603.30 727.47
  L 615.79 727.53
  Q 631.65 727.51 647.50 727.43
  Q 659.64 727.36 670.61 730.87
  C 686.38 735.90 694.15 750.30 687.45 766.21
  Q 683.39 773.56 675.90 777.40
  A 0.33 0.33 0.0 0 0 675.91 777.99
  L 681.45 780.78
  Q 688.71 784.84 692.30 792.02
  L 694.66 800.17
  Q 696.27 815.71 683.98 824.50
  Q 676.88 828.69 672.93 829.74
  Q 661.11 832.86 645.33 832.83
  Q 618.35 832.78 591.37 832.72
  L 591.40 727.75
  L 603.30 727.47
  Z"
/>
<g stroke-width="2.00" fill="none" stroke-linecap="butt">
<path stroke="#904348" vector-effect="non-scaling-stroke" d="
  M 632.80 767.65
  Q 640.32 765.61 638.50 758.29
  Q 637.82 755.54 635.20 754.15
  Q 634.32 753.68 631.66 753.25
  Q 629.86 752.96 628.11 752.29"
/>
<path stroke="#3e4369" vector-effect="non-scaling-stroke" d="
  M 630.05 767.67
  Q 630.06 766.65 629.46 766.03
  A 1.13 1.12 -22.0 0 0 628.62 765.68
  Q 627.39 765.72 626.28 765.31"
/>
<path stroke="#5e2453" vector-effect="non-scaling-stroke" d="
  M 638.30 807.45
  Q 643.39 805.43 643.73 800.75
  C 644.31 792.97 638.09 792.24 632.15 791.59"
/>
</g>
<path fill="#d89f24" d="
  M 845.79 832.78
  L 845.79 755.56
  A 0.41 0.41 0.0 0 0 845.38 755.15
  L 830.43 755.18
  L 815.09 755.28
  L 815.07 727.69
  L 911.51 727.62
  A 0.43 0.43 0.0 0 1 911.94 728.05
  L 911.94 754.71
  A 0.45 0.44 0.0 0 1 911.49 755.15
  L 881.59 755.15
  A 0.41 0.40 90.0 0 0 881.19 755.56
  L 881.19 832.16
  A 0.51 0.51 0.0 0 1 880.68 832.67
  L 845.79 832.78
  Z"
/>
<path fill="#af2431" d="
  M 137.09 727.75
  L 170.09 831.12
  A 1.91 1.90 82.0 0 0 171.85 832.45
  L 176.79 832.60
  L 155.88 833.00
  A 1.05 1.04 -8.9 0 1 154.87 832.27
  L 121.67 728.55
  A 0.39 0.39 0.0 0 1 122.04 728.04
  L 137.09 727.75
  Z"
/>
<path fill="#af2431" d="
  M 210.78 727.97
  L 191.82 786.28
  A 0.19 0.19 0.0 0 1 191.45 786.28
  L 184.31 762.76
  L 195.45 728.40
  A 0.47 0.46 -80.3 0 1 195.89 728.08
  L 210.78 727.97
  Z"
/>
<path fill="#af2431" d="
  M 281.15 727.48
  L 262.02 787.10
  A 0.21 0.21 0.0 0 1 261.62 787.10
  L 254.51 763.08
  L 265.45 728.91
  A 1.45 1.45 0.0 0 1 266.93 727.91
  Q 274.19 728.43 281.15 727.48
  Z"
/>
<path fill="#af2431" d="
  M 434.58 727.97
  L 447.97 728.01
  Q 448.12 728.07 448.24 728.15
  A 0.40 0.40 0.0 0 1 448.40 728.47
  L 448.33 832.82
  L 433.54 833.04
  A 0.65 0.65 0.0 0 1 432.88 832.40
  L 432.61 797.96
  Q 436.88 784.25 434.44 769.97
  Q 434.26 768.95 433.52 766.07
  Q 433.00 764.02 432.75 762.15
  L 432.93 728.76
  A 0.76 0.75 -10.9 0 1 433.41 728.06
  Q 434.07 727.81 434.58 727.97
  Z"
/>
<path fill="#af2431" d="
  M 591.40 727.75
  L 591.37 832.72
  L 576.47 832.79
  A 0.51 0.51 0.0 0 1 575.96 832.28
  L 575.97 739.98
  L 576.00 728.40
  A 0.51 0.51 0.0 0 1 576.50 727.89
  L 591.40 727.75
  Z"
/>
<path fill="#af2431" d="
  M 741.69 727.97
  L 695.86 832.77
  L 681.05 832.90
  A 0.31 0.31 0.0 0 1 680.76 832.48
  L 683.98 824.50
  Q 696.27 815.71 694.66 800.17
  L 703.89 779.42
  Q 704.01 778.83 704.32 778.47
  L 709.38 767.03
  L 720.51 741.58
  L 726.26 728.61
  A 0.79 0.79 0.0 0 1 726.97 728.13
  L 741.69 727.97
  Z"
/>
<path fill="#af2431" d="
  M 544.62 727.95
  L 511.73 783.11
  A 0.15 0.15 0.0 0 1 511.47 783.12
  L 503.97 770.93
  L 529.25 728.41
  A 0.77 0.76 15.0 0 1 529.91 728.04
  L 544.62 727.95
  Z"
/>
<path fill="#af2431" d="
  M 815.07 727.69
  L 815.09 755.28
  L 800.20 755.39
  A 0.55 0.55 0.0 0 1 799.64 754.84
  L 799.64 728.68
  A 0.57 0.57 0.0 0 1 800.20 728.11
  L 815.07 727.69
  Z"
/>
<path fill="#af2431" d="
  M 632.80 767.65
  Q 640.32 765.61 638.50 758.29
  Q 637.82 755.54 635.20 754.15
  Q 634.32 753.68 631.66 753.25
  Q 629.86 752.96 628.11 752.29
  Q 636.34 752.00 644.33 752.25
  Q 648.55 752.38 652.03 754.76
  Q 653.76 755.95 654.11 758.87
  C 654.91 765.64 649.28 767.73 643.75 767.77
  Q 638.26 767.80 632.80 767.65
  Z"
/>
<path fill="#70625e" d="
  M 628.11 752.29
  Q 629.86 752.96 631.66 753.25
  Q 634.32 753.68 635.20 754.15
  Q 637.82 755.54 638.50 758.29
  Q 640.32 765.61 632.80 767.65
  L 630.05 767.67
  Q 630.06 766.65 629.46 766.03
  A 1.13 1.12 -22.0 0 0 628.62 765.68
  Q 627.39 765.72 626.28 765.31
  L 626.36 752.86
  A 0.56 0.55 -0.5 0 1 626.91 752.31
  L 628.11 752.29
  Z"
/>
<path fill="#af2431" d="
  M 369.84 805.19
  Q 382.40 798.51 383.95 785.26
  C 385.48 772.28 380.78 760.15 367.82 755.11
  Q 373.22 753.69 374.75 753.64
  C 388.37 753.20 397.58 762.54 399.35 775.73
  C 401.00 788.11 396.01 801.08 383.40 805.08
  Q 376.86 807.15 369.84 805.19
  Z"
/>
<path fill="#af2431" d="
  M 845.79 832.78
  L 830.98 832.99
  A 0.57 0.57 0.0 0 1 830.40 832.42
  L 830.43 755.18
  L 845.38 755.15
  A 0.41 0.41 0.0 0 1 845.79 755.56
  L 845.79 832.78
  Z"
/>
<path fill="#0c2374" d="
  M 367.82 755.11
  C 380.78 760.15 385.48 772.28 383.95 785.26
  Q 382.40 798.51 369.84 805.19
  Q 361.58 803.05 357.05 795.97
  Q 352.25 788.49 352.55 778.77
  Q 353.08 761.70 367.82 755.11
  Z"
/>
<path fill="#af2431" d="
  M 753.39 788.72
  L 751.33 782.23
  L 758.83 762.71
  A 0.18 0.18 0.0 0 1 759.16 762.71
  L 768.95 788.20
  A 0.42 0.42 0.0 0 1 768.56 788.77
  L 753.39 788.72
  Z"
/>
<path fill="#0c2374" d="
  M 630.05 767.67
  Q 628.35 768.05 626.78 767.79
  A 0.73 0.72 0.6 0 1 626.19 767.19
  Q 626.04 766.32 626.28 765.31
  Q 627.39 765.72 628.62 765.68
  A 1.13 1.12 -22.0 0 1 629.46 766.03
  Q 630.06 766.65 630.05 767.67
  Z"
/>
<path fill="#5f5b57" d="
  M 704.32 778.47
  Q 704.01 778.83 703.89 779.42
  L 694.67 779.86
  Q 687.43 777.54 681.45 780.78
  L 675.91 777.99
  A 0.33 0.33 0.0 0 1 675.90 777.40
  Q 683.39 773.56 687.45 766.21
  L 694.15 766.25
  A 0.50 0.50 0.0 0 1 694.65 766.75
  L 694.65 777.50
  A 0.56 0.56 0.0 0 0 695.19 778.06
  L 704.32 778.47
  Z"
/>
<path fill="#af2431" d="
  M 243.86 832.82
  L 228.36 832.90
  A 0.69 0.68 -8.6 0 1 227.70 832.42
  L 218.30 801.63
  L 226.05 777.21
  A 0.30 0.30 0.0 0 1 226.62 777.21
  L 243.86 832.82
  Z"
/>
<path fill="#70625e" d="
  M 694.67 779.86
  L 694.54 791.52
  A 0.61 0.60 86.7 0 1 694.02 792.11
  Q 693.22 792.23 692.30 792.02
  Q 688.71 784.84 681.45 780.78
  Q 687.43 777.54 694.67 779.86
  Z"
/>
<path fill="#0c2374" d="
  M 703.89 779.42
  L 694.66 800.17
  L 692.30 792.02
  Q 693.22 792.23 694.02 792.11
  A 0.61 0.60 86.7 0 0 694.54 791.52
  L 694.67 779.86
  L 703.89 779.42
  Z"
/>
<path fill="#0c2374" d="
  M 753.39 788.72
  L 749.35 788.83
  A 0.42 0.42 0.0 0 1 748.95 788.25
  L 751.33 782.23
  L 753.39 788.72
  Z"
/>
<path fill="#af2431" d="
  M 542.07 832.80
  L 527.07 832.92
  A 0.45 0.44 89.4 0 1 526.62 832.47
  L 526.50 810.35
  L 541.44 785.11
  A 0.19 0.19 0.0 0 1 541.79 785.20
  L 542.07 832.80
  Z"
/>
<path fill="#af2431" d="
  M 503.45 823.24
  L 488.67 823.50
  A 1.21 1.20 -16.7 0 1 487.64 822.95
  L 480.59 812.01
  L 480.58 786.85
  A 0.14 0.14 0.0 0 1 480.84 786.78
  L 503.45 823.24
  Z"
/>
<path fill="#af2431" d="
  M 638.30 807.45
  Q 643.39 805.43 643.73 800.75
  C 644.31 792.97 638.09 792.24 632.15 791.59
  Q 640.33 790.90 648.49 791.21
  Q 652.53 791.36 656.05 793.20
  C 657.73 794.08 658.96 796.67 659.08 798.58
  Q 659.53 805.93 652.24 807.29
  Q 646.50 808.36 638.30 807.45
  Z"
/>
<path fill="#0c2374" d="
  M 632.15 791.59
  C 638.09 792.24 644.31 792.97 643.73 800.75
  Q 643.39 805.43 638.30 807.45
  L 626.68 807.68
  A 0.48 0.48 0.0 0 1 626.19 807.20
  L 626.19 792.33
  A 0.65 0.64 -0.5 0 1 626.83 791.69
  L 632.15 791.59
  Z"
/>
<path fill="#af2431" d="
  M 786.04 832.77
  L 770.99 832.85
  A 0.76 0.75 -9.9 0 1 770.28 832.36
  L 763.77 815.41
  A 1.01 1.00 87.4 0 0 763.12 814.81
  L 761.93 814.46
  L 778.39 814.22
  A 0.71 0.70 -10.1 0 1 779.05 814.67
  L 786.04 832.77
  Z"
/>
<path fill="#af2431" d="
  M 249.76 832.61
  L 244.21 832.59
  L 249.76 832.61
  Z"
/>
</svg>
