<?xml version="1.0" encoding="UTF-8" standalone="no"?>
<!DOCTYPE svg PUBLIC "-//W3C//DTD SVG 1.1//EN" "http://www.w3.org/Graphics/SVG/1.1/DTD/svg11.dtd">
<svg xmlns="http://www.w3.org/2000/svg" version="1.1" viewBox="0.00 0.00 1200.00 1200.00">
<path fill="#70625e" d="
  M 719.94 404.86
  L 720.01 449.86
  L 719.98 479.12
  A 0.88 0.88 0.0 0 1 719.10 480.00
  L 690.70 480.00
  A 0.72 0.71 90.0 0 0 689.99 480.72
  L 689.99 494.35
  A 0.65 0.64 0.0 0 1 689.34 494.99
  L 675.63 494.99
  A 0.63 0.63 0.0 0 0 675.00 495.62
  L 675.00 509.27
  A 0.74 0.74 0.0 0 1 674.26 510.01
  L 660.63 510.01
  A 0.65 0.65 0.0 0 0 659.98 510.66
  L 659.89 585.21
  L 645.90 584.94
  A 0.92 0.91 -89.4 0 0 644.97 585.86
  L 644.97 689.04
  A 0.87 0.87 0.0 0 0 645.84 689.91
  L 658.77 689.91
  A 1.20 1.20 0.0 0 1 659.97 691.11
  L 659.97 718.87
  A 1.09 1.08 0.0 0 0 661.06 719.95
  L 674.02 719.95
  A 0.95 0.94 90.0 0 1 674.96 720.90
  L 674.96 733.82
  A 1.21 1.20 90.0 0 0 676.16 735.03
  L 689.04 735.03
  A 0.96 0.95 -0.0 0 1 690.00 735.98
  L 690.00 748.77
  A 1.20 1.20 0.0 0 0 691.20 749.97
  L 704.08 749.97
  A 0.93 0.92 -0.0 0 1 705.01 750.89
  L 705.01 763.97
  A 1.02 1.02 0.0 0 0 706.03 764.99
  L 718.94 764.99
  A 1.05 1.04 90.0 0 1 719.98 766.04
  L 719.98 778.97
  A 1.04 1.04 0.0 0 0 721.02 780.01
  L 734.00 780.01
  A 0.99 0.99 0.0 0 1 734.99 781.00
  L 734.99 793.94
  A 1.07 1.07 0.0 0 0 736.06 795.01
  L 809.97 794.98
  L 809.99 824.51
  A 0.50 0.49 -0.0 0 1 809.49 825.00
  L 795.52 825.00
  A 0.52 0.51 0.0 0 0 795.00 825.51
  L 795.00 884.20
  A 0.80 0.80 0.0 0 0 795.80 885.00
  L 809.36 885.00
  A 0.64 0.64 0.0 0 1 810.00 885.64
  L 810.00 899.25
  A 0.75 0.74 -90.0 0 0 810.74 900.00
  L 824.36 900.00
  A 0.64 0.64 0.0 0 1 825.00 900.64
  L 825.00 914.33
  A 0.60 0.60 0.0 0 0 825.60 914.93
  L 840.06 915.04
  L 840.04 944.81
  Q 839.44 944.95 839.89 945.15
  L 824.96 945.21
  L 750.38 944.98
  A 0.43 0.43 0.0 0 1 749.95 944.55
  L 749.95 930.90
  A 0.92 0.92 0.0 0 0 749.03 929.98
  L 705.30 929.98
  A 0.32 0.32 0.0 0 1 704.98 929.66
  L 704.98 915.65
  A 0.68 0.68 0.0 0 0 704.30 914.97
  L 690.58 914.97
  A 0.60 0.59 -0.0 0 1 689.98 914.38
  L 689.98 901.30
  A 1.31 1.31 0.0 0 0 688.67 899.99
  L 675.94 899.99
  A 0.99 0.99 0.0 0 1 674.95 899.00
  L 674.95 871.29
  A 1.43 1.42 0.0 0 0 673.52 869.87
  L 660.74 869.87
  A 0.81 0.80 -90.0 0 1 659.94 869.06
  L 659.94 841.14
  A 1.20 1.19 -0.0 0 0 658.74 839.95
  L 646.04 839.95
  A 0.96 0.96 0.0 0 1 645.08 838.99
  L 645.08 825.89
  A 0.87 0.86 0.0 0 1 645.95 825.03
  L 658.93 825.03
  A 1.03 1.03 0.0 0 0 659.96 824.00
  L 659.96 811.06
  A 1.09 1.09 0.0 0 0 658.87 809.97
  L 645.97 809.97
  A 0.93 0.92 -90.0 0 1 645.05 809.04
  L 645.05 796.02
  A 1.00 0.99 -90.0 0 1 646.04 795.02
  L 658.87 795.02
  A 1.08 1.08 0.0 0 0 659.95 793.94
  L 659.95 781.27
  A 1.22 1.22 0.0 0 0 658.73 780.05
  L 646.14 780.05
  A 1.08 1.07 -90.0 0 1 645.07 778.97
  L 645.07 765.79
  A 0.82 0.82 0.0 0 0 644.25 764.97
  L 630.97 764.97
  A 1.02 1.02 0.0 0 1 629.95 763.95
  L 629.95 751.00
  A 0.97 0.96 90.0 0 0 628.99 750.03
  L 616.04 750.03
  A 1.05 1.05 0.0 0 0 614.99 751.08
  L 614.99 764.07
  A 0.86 0.85 -90.0 0 1 614.14 764.93
  L 600.87 764.93
  A 0.94 0.93 -90.0 0 0 599.94 765.87
  L 599.94 779.25
  A 0.70 0.70 0.0 0 1 599.24 779.95
  L 586.22 779.95
  A 1.17 1.16 0.0 0 1 585.05 778.79
  L 585.05 765.79
  A 0.79 0.79 0.0 0 0 584.26 765.00
  L 570.90 765.00
  A 1.02 1.02 0.0 0 0 569.88 766.02
  L 569.88 779.08
  A 0.89 0.88 0.0 0 1 568.99 779.96
  L 556.27 779.96
  A 1.29 1.28 -0.0 0 1 554.98 778.68
  L 554.98 766.15
  A 1.19 1.19 0.0 0 0 553.79 764.96
  L 541.04 764.96
  A 1.19 1.19 0.0 0 0 539.85 766.15
  L 539.85 778.75
  A 1.26 1.26 0.0 0 1 538.59 780.01
  L 526.48 780.01
  A 1.47 1.46 -90.0 0 1 525.02 778.54
  L 525.02 766.07
  A 1.10 1.10 0.0 0 0 523.92 764.97
  L 510.90 764.97
  A 1.01 1.01 0.0 0 0 509.89 765.98
  L 509.89 779.15
  A 0.79 0.78 0.0 0 1 509.10 779.93
  L 496.14 779.93
  A 1.12 1.12 0.0 0 1 495.02 778.81
  L 495.02 765.73
  A 0.77 0.76 0.0 0 0 494.25 764.97
  L 480.82 764.97
  A 0.92 0.92 0.0 0 0 479.90 765.89
  L 479.90 778.98
  A 0.94 0.93 90.0 0 1 478.97 779.92
  L 466.15 779.92
  A 1.09 1.09 0.0 0 1 465.06 778.83
  L 465.06 765.85
  A 0.88 0.88 0.0 0 0 464.18 764.97
  L 451.11 764.97
  A 1.22 1.21 0.0 0 0 449.89 766.18
  L 449.89 779.26
  A 0.75 0.74 0.0 0 1 449.14 780.00
  L 436.07 780.00
  A 1.07 1.06 -0.0 0 1 435.00 778.94
  L 435.00 765.99
  A 1.10 1.10 0.0 0 0 433.90 764.89
  L 420.81 764.89
  A 0.88 0.87 90.0 0 1 419.94 764.01
  L 419.94 751.13
  A 1.12 1.12 0.0 0 0 418.82 750.01
  L 406.10 750.01
  A 1.08 1.08 0.0 0 1 405.02 748.93
  L 405.02 735.82
  A 0.81 0.81 0.0 0 0 404.21 735.01
  L 376.07 735.01
  A 1.09 1.09 0.0 0 1 374.98 733.92
  L 374.98 720.78
  A 0.72 0.72 0.0 0 0 374.26 720.06
  L 361.04 720.06
  A 1.08 1.07 -90.0 0 1 359.97 718.98
  L 359.97 705.79
  A 0.78 0.77 0.0 0 0 359.19 705.02
  L 345.75 705.02
  A 0.72 0.72 0.0 0 0 345.03 705.74
  L 345.07 735.08
  L 345.11 749.41
  A 0.52 0.52 0.0 0 0 345.63 749.93
  L 359.95 749.97
  L 359.95 779.30
  A 0.71 0.70 0.0 0 0 360.66 780.00
  L 374.51 780.00
  A 0.49 0.49 0.0 0 1 375.00 780.49
  L 375.00 794.42
  A 0.59 0.58 0.0 0 0 375.59 795.00
  L 389.58 795.00
  A 0.42 0.42 0.0 0 1 390.00 795.42
  L 390.00 809.31
  A 0.69 0.69 0.0 0 0 390.69 810.00
  L 404.32 810.00
  A 0.71 0.70 0.4 0 1 405.03 810.71
  L 405.02 929.55
  L 285.54 929.97
  A 0.55 0.55 0.0 0 1 284.99 929.42
  L 284.99 901.15
  A 1.12 1.12 0.0 0 0 283.87 900.03
  L 270.31 900.03
  A 0.39 0.38 -0.0 0 1 269.92 899.65
  L 269.92 795.96
  A 0.92 0.92 0.0 0 0 269.00 795.04
  L 255.99 795.04
  A 0.98 0.98 0.0 0 1 255.01 794.06
  L 255.01 765.65
  A 0.69 0.68 0.0 0 0 254.32 764.97
  L 240.72 764.97
  A 0.80 0.79 -90.0 0 1 239.93 764.17
  L 239.93 751.10
  A 1.05 1.05 0.0 0 0 238.88 750.05
  L 225.93 750.05
  A 0.92 0.91 0.0 0 1 225.01 749.14
  L 225.01 735.68
  A 0.65 0.65 0.0 0 0 224.36 735.03
  L 210.85 735.03
  A 0.94 0.94 0.0 0 1 209.91 734.09
  L 209.91 691.20
  A 1.24 1.24 0.0 0 0 208.67 689.96
  L 195.43 689.96
  A 0.45 0.45 0.0 0 1 194.98 689.51
  L 194.98 675.79
  A 0.77 0.77 0.0 0 0 194.22 675.02
  L 180.03 674.77
  L 180.04 601.07
  A 1.07 1.07 0.0 0 1 181.11 600.00
  L 194.40 600.00
  A 0.60 0.60 0.0 0 0 195.00 599.40
  L 195.00 555.90
  A 0.91 0.90 -0.0 0 1 195.91 555.00
  L 209.59 555.00
  A 0.43 0.42 -90.0 0 0 210.01 554.57
  L 210.01 525.95
  A 0.96 0.95 0.0 0 1 210.97 525.00
  L 224.40 525.00
  A 0.60 0.60 0.0 0 0 225.00 524.40
  L 225.00 510.76
  A 0.76 0.75 -90.0 0 1 225.75 510.00
  L 239.68 510.00
  A 0.33 0.33 0.0 0 0 240.01 509.67
  L 240.01 495.91
  A 0.92 0.92 0.0 0 1 240.93 494.99
  L 254.39 494.99
  A 0.61 0.60 -0.0 0 0 255.00 494.39
  L 255.00 480.73
  A 0.72 0.72 0.0 0 1 255.72 480.01
  L 269.45 480.01
  A 0.57 0.57 0.0 0 0 270.02 479.44
  L 270.02 465.86
  A 0.87 0.87 0.0 0 1 270.89 464.99
  L 284.22 464.99
  A 0.76 0.75 0.0 0 0 284.98 464.24
  L 284.98 450.69
  A 0.69 0.69 0.0 0 1 285.67 450.00
  L 299.40 450.00
  A 0.61 0.60 -90.0 0 0 300.00 449.39
  L 300.00 435.87
  A 0.89 0.89 0.0 0 1 300.89 434.98
  L 314.30 434.98
  A 0.69 0.69 0.0 0 0 314.99 434.29
  L 314.99 420.78
  A 0.78 0.77 -0.0 0 1 315.77 420.01
  L 344.38 420.01
  A 0.63 0.63 0.0 0 0 345.01 419.38
  L 345.01 405.85
  A 0.85 0.85 0.0 0 1 345.86 405.00
  L 359.29 405.00
  A 0.72 0.71 0.0 0 0 360.01 404.29
  L 360.01 390.90
  A 0.89 0.89 0.0 0 1 360.90 390.01
  L 389.69 390.01
  A 0.33 0.33 0.0 0 0 390.02 389.68
  L 390.02 375.88
  A 0.88 0.88 0.0 0 1 390.90 375.00
  L 419.48 375.00
  A 0.53 0.53 0.0 0 0 420.01 374.47
  L 420.01 360.95
  A 0.95 0.94 90.0 0 1 420.95 360.00
  L 614.40 360.00
  A 0.60 0.60 0.0 0 1 615.00 360.60
  L 615.00 374.42
  A 0.58 0.58 0.0 0 0 615.58 375.00
  L 644.41 375.00
  A 0.59 0.59 0.0 0 1 645.00 375.59
  L 645.00 389.42
  A 0.58 0.58 0.0 0 0 645.58 390.00
  L 704.47 390.00
  A 0.53 0.53 0.0 0 1 705.00 390.53
  L 705.00 404.35
  A 0.57 0.57 0.0 0 0 705.57 404.92
  L 719.94 404.86
  Z"
/>
<path fill="#53494a" d="
  M 1004.90 435.11
  L 990.74 435.30
  A 0.54 0.54 0.0 0 0 990.21 435.84
  L 990.11 449.46
  L 990.02 479.04
  A 0.97 0.96 -0.0 0 0 990.99 480.00
  L 1004.45 480.00
  A 0.55 0.55 0.0 0 1 1005.00 480.55
  L 1005.00 509.41
  A 0.59 0.59 0.0 0 0 1005.59 510.00
  L 1019.36 510.00
  A 0.64 0.64 0.0 0 1 1020.00 510.64
  L 1020.00 524.36
  A 0.65 0.65 0.0 0 0 1020.65 525.01
  L 1034.16 525.01
  A 0.87 0.87 0.0 0 1 1035.03 525.88
  L 1035.03 569.82
  L 1034.93 570.96
  Q 1034.72 570.06 1034.00 570.05
  Q 1028.00 569.94 1020.80 569.98
  A 0.79 0.79 0.0 0 1 1020.01 569.19
  L 1020.01 540.83
  A 0.87 0.86 0.0 0 0 1019.14 539.97
  L 1005.80 539.97
  A 0.82 0.81 -90.0 0 1 1004.99 539.15
  L 1004.99 525.71
  A 0.71 0.71 0.0 0 0 1004.28 525.00
  L 990.82 525.00
  A 0.82 0.82 0.0 0 1 990.00 524.18
  L 990.00 495.68
  A 0.68 0.68 0.0 0 0 989.32 495.00
  L 975.57 495.00
  A 0.57 0.57 0.0 0 1 975.00 494.43
  L 975.00 450.87
  A 0.89 0.89 0.0 0 0 974.11 449.98
  L 960.74 449.98
  A 0.75 0.74 -0.0 0 1 959.99 449.24
  L 959.92 419.89
  L 959.79 405.66
  A 0.52 0.52 0.0 0 0 959.27 405.14
  L 945.11 405.01
  L 780.71 405.19
  A 0.79 0.79 0.0 0 0 779.92 405.98
  L 779.92 419.36
  A 0.63 0.63 0.0 0 1 779.29 419.99
  L 766.19 419.99
  A 1.22 1.22 0.0 0 0 764.97 421.21
  L 764.97 449.34
  A 0.65 0.65 0.0 0 1 764.32 449.99
  L 751.08 449.99
  A 1.17 1.16 0.0 0 0 749.91 451.15
  L 749.91 479.23
  A 0.78 0.77 -90.0 0 1 749.14 480.01
  L 736.04 480.01
  A 1.02 1.01 0.0 0 0 735.02 481.02
  L 735.02 494.39
  A 0.61 0.61 0.0 0 1 734.41 495.00
  L 721.13 495.00
  A 1.15 1.15 0.0 0 0 719.98 496.15
  L 719.98 524.40
  A 0.60 0.59 90.0 0 1 719.39 525.00
  L 691.20 525.00
  A 1.22 1.21 90.0 0 0 689.99 526.22
  L 689.99 539.22
  A 0.79 0.79 0.0 0 1 689.20 540.01
  L 675.90 540.01
  A 0.88 0.88 0.0 0 0 675.02 540.89
  L 675.02 658.94
  A 1.07 1.07 0.0 0 0 676.09 660.01
  L 688.81 660.01
  A 1.14 1.14 0.0 0 1 689.95 661.15
  L 689.95 673.57
  A 1.41 1.41 0.0 0 0 691.36 674.98
  L 704.05 674.98
  A 0.95 0.95 0.0 0 1 705.00 675.93
  L 705.00 704.05
  A 0.93 0.92 -90.0 0 0 705.92 704.98
  L 718.98 704.98
  A 0.97 0.97 0.0 0 1 719.95 705.95
  L 719.95 718.85
  A 1.14 1.14 0.0 0 0 721.09 719.99
  L 734.09 719.99
  A 0.92 0.92 0.0 0 1 735.01 720.91
  L 735.01 733.90
  A 1.11 1.10 90.0 0 0 736.11 735.01
  L 748.88 735.01
  A 1.06 1.06 0.0 0 1 749.94 736.07
  L 749.94 748.67
  A 1.38 1.38 0.0 0 0 751.32 750.05
  L 763.99 750.05
  A 1.02 1.01 -0.0 0 1 765.01 751.06
  L 765.01 764.06
  A 0.92 0.92 0.0 0 0 765.93 764.98
  L 869.35 764.98
  A 0.55 0.54 -89.5 0 0 869.89 764.44
  L 869.97 750.00
  L 884.49 749.97
  A 0.53 0.53 0.0 0 0 885.02 749.44
  L 885.02 735.51
  A 0.50 0.50 0.0 0 1 885.52 735.01
  L 914.86 734.98
  L 914.83 749.45
  A 0.55 0.55 0.0 0 1 914.28 750.00
  L 885.89 750.00
  A 0.88 0.88 0.0 0 0 885.01 750.88
  L 885.01 764.26
  A 0.74 0.73 0.0 0 0 885.75 764.99
  L 929.46 764.99
  A 0.52 0.51 0.0 0 0 929.98 764.48
  L 929.98 750.77
  A 0.76 0.76 0.0 0 1 930.74 750.01
  Q 944.51 750.05 959.01 750.00
  Q 959.74 750.00 959.99 748.77
  L 960.03 750.18
  L 960.06 764.85
  Q 959.93 764.99 959.80 765.14
  L 945.63 765.14
  A 0.53 0.52 90.0 0 0 945.11 765.67
  L 945.12 779.79
  L 944.75 780.01
  L 885.08 780.02
  L 810.02 780.01
  L 751.14 779.94
  A 1.17 1.17 0.0 0 1 749.97 778.77
  L 749.97 765.98
  A 1.00 1.00 0.0 0 0 748.97 764.98
  L 736.25 764.98
  A 1.25 1.24 -0.0 0 1 735.00 763.74
  L 735.00 750.98
  A 0.95 0.95 0.0 0 0 734.05 750.03
  L 721.17 750.03
  A 1.18 1.17 90.0 0 1 720.00 748.85
  L 720.00 736.01
  A 1.00 1.00 0.0 0 0 719.00 735.01
  L 706.07 735.01
  A 1.07 1.07 0.0 0 1 705.00 733.94
  L 705.00 720.97
  A 0.95 0.95 0.0 0 0 704.05 720.02
  L 691.10 720.02
  A 1.17 1.17 0.0 0 1 689.93 718.85
  L 689.93 705.90
  A 0.88 0.87 -90.0 0 0 689.06 705.02
  L 676.18 705.02
  A 1.23 1.23 0.0 0 1 674.95 703.79
  L 674.95 676.07
  A 1.07 1.07 0.0 0 0 673.88 675.00
  L 661.00 675.00
  A 0.90 0.89 -90.0 0 1 660.11 674.10
  L 659.89 585.21
  L 659.98 510.66
  A 0.65 0.65 0.0 0 1 660.63 510.01
  L 674.26 510.01
  A 0.74 0.74 0.0 0 0 675.00 509.27
  L 675.00 495.62
  A 0.63 0.63 0.0 0 1 675.63 494.99
  L 689.34 494.99
  A 0.65 0.64 0.0 0 0 689.99 494.35
  L 689.99 480.72
  A 0.72 0.71 90.0 0 1 690.70 480.00
  L 719.10 480.00
  A 0.88 0.88 0.0 0 0 719.98 479.12
  L 720.01 449.86
  L 734.31 449.87
  A 0.77 0.77 0.0 0 0 735.08 449.10
  L 735.08 420.60
  A 0.57 0.57 0.0 0 1 735.65 420.03
  L 749.44 420.03
  A 0.61 0.61 0.0 0 0 750.05 419.42
  L 750.05 390.61
  A 0.63 0.63 0.0 0 0 749.42 389.98
  L 735.77 389.98
  A 0.74 0.74 0.0 0 1 735.03 389.24
  L 735.03 375.65
  A 0.59 0.59 0.0 0 0 734.44 375.06
  L 720.01 375.02
  L 720.07 360.71
  A 0.71 0.70 -0.0 0 1 720.78 360.01
  L 764.40 360.01
  A 0.60 0.59 -0.0 0 1 765.00 360.60
  L 765.00 374.42
  A 0.58 0.58 0.0 0 0 765.58 375.00
  L 794.42 375.00
  A 0.59 0.58 -90.0 0 1 795.00 375.59
  L 795.00 389.38
  A 0.62 0.62 0.0 0 0 795.62 390.00
  L 944.42 390.00
  A 0.58 0.58 0.0 0 0 945.00 389.42
  L 945.00 375.88
  A 0.88 0.87 0.0 0 1 945.88 375.01
  L 989.41 375.01
  A 0.59 0.58 0.0 0 1 990.00 375.59
  L 990.00 388.98
  A 1.02 1.02 0.0 0 0 991.02 390.00
  L 1004.35 390.00
  A 0.60 0.60 0.0 0 1 1004.95 390.60
  L 1004.90 435.11
  Z"
/>
<path fill="#ab8468" d="
  M 720.01 449.86
  L 719.94 404.86
  L 720.01 375.02
  L 734.44 375.06
  A 0.59 0.59 0.0 0 1 735.03 375.65
  L 735.03 389.24
  A 0.74 0.74 0.0 0 0 735.77 389.98
  L 749.42 389.98
  A 0.63 0.63 0.0 0 1 750.05 390.61
  L 750.05 419.42
  A 0.61 0.61 0.0 0 1 749.44 420.03
  L 735.65 420.03
  A 0.57 0.57 0.0 0 0 735.08 420.60
  L 735.08 449.10
  A 0.77 0.77 0.0 0 1 734.31 449.87
  L 720.01 449.86
  Z"
/>
<rect fill="#5f5b57" x="-7.31" y="-7.30" transform="translate(592.33,397.54) rotate(-0.3)" width="14.62" height="14.60" rx="0.97"/>
<rect fill="#5f5b57" x="-7.33" y="-7.32" transform="translate(577.46,412.45) rotate(-0.1)" width="14.66" height="14.64" rx="0.97"/>
<path fill="#70625e" d="
  M 945.11 405.01
  L 945.19 419.32
  A 0.52 0.52 0.0 0 0 945.71 419.84
  L 959.92 419.89
  L 959.99 449.24
  A 0.75 0.74 -0.0 0 0 960.74 449.98
  L 974.11 449.98
  A 0.89 0.89 0.0 0 1 975.00 450.87
  L 975.00 494.43
  A 0.57 0.57 0.0 0 0 975.57 495.00
  L 989.32 495.00
  A 0.68 0.68 0.0 0 1 990.00 495.68
  L 990.00 524.18
  A 0.82 0.82 0.0 0 0 990.82 525.00
  L 1004.28 525.00
  A 0.71 0.71 0.0 0 1 1004.99 525.71
  L 1004.99 539.15
  A 0.82 0.81 -90.0 0 0 1005.80 539.97
  L 1019.14 539.97
  A 0.87 0.86 -0.0 0 1 1020.01 540.83
  L 1020.01 569.19
  A 0.79 0.79 0.0 0 0 1020.80 569.98
  Q 1028.00 569.94 1034.00 570.05
  Q 1034.72 570.06 1034.93 570.96
  L 1034.97 585.02
  L 1020.51 584.99
  A 0.49 0.48 -90.0 0 0 1020.03 585.48
  L 1020.03 599.20
  A 0.66 0.66 0.0 0 0 1020.69 599.86
  L 1034.95 599.87
  L 1048.73 600.00
  A 1.29 1.28 0.2 0 1 1050.01 601.28
  L 1050.01 629.31
  A 0.70 0.70 0.0 0 1 1049.31 630.01
  L 1035.70 630.01
  A 0.67 0.66 -0.0 0 0 1035.03 630.67
  L 1035.03 674.47
  A 0.51 0.50 -90.0 0 1 1034.53 674.98
  L 1020.34 674.98
  A 0.36 0.36 0.0 0 0 1019.98 675.34
  L 1019.98 689.36
  A 0.63 0.63 0.0 0 1 1019.35 689.99
  L 1005.81 689.99
  A 0.79 0.79 0.0 0 0 1005.02 690.78
  L 1005.02 704.22
  A 0.75 0.75 0.0 0 1 1004.27 704.97
  L 975.70 704.97
  A 0.64 0.64 0.0 0 0 975.06 705.61
  L 975.06 733.88
  A 1.06 1.05 0.0 0 1 974.00 734.93
  L 960.59 734.93
  A 0.61 0.61 0.0 0 0 959.98 735.54
  L 959.99 748.77
  Q 959.74 750.00 959.01 750.00
  Q 944.51 750.05 930.74 750.01
  A 0.76 0.76 0.0 0 0 929.98 750.77
  L 929.98 764.48
  A 0.52 0.51 0.0 0 1 929.46 764.99
  L 885.75 764.99
  A 0.74 0.73 -0.0 0 1 885.01 764.26
  L 885.01 750.88
  A 0.88 0.88 0.0 0 1 885.89 750.00
  L 914.28 750.00
  A 0.55 0.55 0.0 0 0 914.83 749.45
  L 914.86 734.98
  Q 914.96 734.95 915.06 734.93
  L 944.48 735.00
  A 0.51 0.51 0.0 0 0 944.99 734.49
  L 944.99 720.95
  A 0.98 0.97 -0.0 0 1 945.97 719.98
  L 959.42 719.98
  A 0.56 0.56 0.0 0 0 959.98 719.42
  L 959.98 705.64
  A 0.66 0.65 0.0 0 0 959.32 704.99
  L 930.00 705.03
  L 915.07 704.98
  L 914.76 690.01
  Q 914.86 689.88 914.96 689.69
  A 0.43 0.38 62.9 0 0 915.01 689.49
  L 915.01 660.59
  A 0.58 0.58 0.0 0 0 914.43 660.01
  L 900.61 660.01
  A 0.60 0.60 0.0 0 1 900.01 659.41
  L 900.01 645.62
  A 0.62 0.61 -90.0 0 0 899.40 645.00
  L 855.63 645.00
  A 0.64 0.63 -90.0 0 0 855.00 645.64
  L 855.00 659.29
  A 0.72 0.72 0.0 0 1 854.28 660.01
  L 840.53 660.01
  A 0.47 0.47 0.0 0 0 840.06 660.48
  L 840.01 689.95
  L 839.95 704.98
  L 825.55 705.02
  A 0.54 0.53 -89.4 0 0 825.02 705.55
  L 825.01 719.89
  L 810.93 719.92
  A 0.93 0.93 0.0 0 0 810.00 720.85
  L 810.00 734.30
  A 0.70 0.69 -90.0 0 0 810.69 735.00
  L 824.36 735.00
  A 0.64 0.63 -0.0 0 1 825.00 735.63
  L 825.00 749.24
  A 0.74 0.74 0.0 0 0 825.74 749.98
  L 869.97 750.00
  L 869.89 764.44
  A 0.55 0.54 -89.5 0 1 869.35 764.98
  L 765.93 764.98
  A 0.92 0.92 0.0 0 1 765.01 764.06
  L 765.01 751.06
  A 1.02 1.01 0.0 0 0 763.99 750.05
  L 751.32 750.05
  A 1.38 1.38 0.0 0 1 749.94 748.67
  L 749.94 736.07
  A 1.06 1.06 0.0 0 0 748.88 735.01
  L 736.11 735.01
  A 1.11 1.10 -90.0 0 1 735.01 733.90
  L 735.01 720.91
  A 0.92 0.92 0.0 0 0 734.09 719.99
  L 721.09 719.99
  A 1.14 1.14 0.0 0 1 719.95 718.85
  L 719.95 705.95
  A 0.97 0.97 0.0 0 0 718.98 704.98
  L 705.92 704.98
  A 0.93 0.92 90.0 0 1 705.00 704.05
  L 705.00 675.93
  A 0.95 0.95 0.0 0 0 704.05 674.98
  L 691.36 674.98
  A 1.41 1.41 0.0 0 1 689.95 673.57
  L 689.95 661.15
  A 1.14 1.14 0.0 0 0 688.81 660.01
  L 676.09 660.01
  A 1.07 1.07 0.0 0 1 675.02 658.94
  L 675.02 540.89
  A 0.88 0.88 0.0 0 1 675.90 540.01
  L 689.20 540.01
  A 0.79 0.79 0.0 0 0 689.99 539.22
  L 689.99 526.22
  A 1.22 1.21 -90.0 0 1 691.20 525.00
  L 719.39 525.00
  A 0.60 0.59 -90.0 0 0 719.98 524.40
  L 719.98 496.15
  A 1.15 1.15 0.0 0 1 721.13 495.00
  L 734.41 495.00
  A 0.61 0.61 0.0 0 0 735.02 494.39
  L 735.02 481.02
  A 1.02 1.01 -0.0 0 1 736.04 480.01
  L 749.14 480.01
  A 0.78 0.77 90.0 0 0 749.91 479.23
  L 749.91 451.15
  A 1.17 1.16 -0.0 0 1 751.08 449.99
  L 764.32 449.99
  A 0.65 0.65 0.0 0 0 764.97 449.34
  L 764.97 421.21
  A 1.22 1.22 0.0 0 1 766.19 419.99
  L 779.29 419.99
  A 0.63 0.63 0.0 0 0 779.92 419.36
  L 779.92 405.98
  A 0.79 0.79 0.0 0 1 780.71 405.19
  L 945.11 405.01
  Z"
/>
<g stroke-width="2.00" fill="none" stroke-linecap="butt">
<path stroke="#45402c" vector-effect="non-scaling-stroke" d="
  M 795.01 585.05
  L 794.98 570.63
  A 0.61 0.60 0.5 0 0 794.38 570.03
  L 780.04 569.93"
/>
<path stroke="#45402c" vector-effect="non-scaling-stroke" d="
  M 974.95 570.04
  L 960.68 570.04
  A 0.52 0.51 -0.6 0 0 960.17 570.55
  L 960.04 584.91"
/>
</g>
<path fill="#4a453a" d="
  M 959.92 419.89
  L 945.71 419.84
  A 0.52 0.52 0.0 0 1 945.19 419.32
  L 945.11 405.01
  L 959.27 405.14
  A 0.52 0.52 0.0 0 1 959.79 405.66
  L 959.92 419.89
  Z"
/>
<path fill="#5f5b57" d="
  M 659.98 433.67
  L 659.98 421.38
  A 1.32 1.32 0.0 0 1 661.30 420.06
  L 673.58 420.06
  A 1.32 1.32 0.0 0 1 674.90 421.38
  L 674.90 433.67
  A 1.32 1.32 0.0 0 1 673.58 434.99
  L 661.30 434.99
  A 1.32 1.32 0.0 0 1 659.98 433.67
  Z"
/>
<rect fill="#5f5b57" x="-7.49" y="-7.51" transform="translate(427.51,442.46) rotate(0.4)" width="14.98" height="15.02" rx="1.05"/>
<rect fill="#5f5b57" x="644.95" y="434.94" width="14.96" height="14.96" rx="1.48"/>
<rect fill="#5f5b57" x="-7.43" y="-7.43" transform="translate(832.41,442.44) rotate(-0.2)" width="14.86" height="14.86" rx="1.00"/>
<path fill="#5f5b57" d="
  M 930.19 449.77
  Q 930.37 449.95 930.71 449.95
  Q 936.37 449.91 943.92 450.03
  A 0.97 0.96 89.7 0 1 944.87 450.98
  Q 945.03 457.03 944.88 464.31
  Q 944.88 464.40 944.68 464.60
  Q 944.49 464.79 944.39 464.80
  Q 937.11 464.97 931.06 464.83
  A 0.97 0.96 0.1 0 1 930.11 463.88
  Q 929.97 456.33 929.99 450.66
  Q 929.99 450.33 929.77 450.11
  Q 929.59 449.93 929.26 449.93
  Q 923.59 449.97 916.04 449.85
  A 0.97 0.96 89.7 0 1 915.09 448.90
  Q 914.93 442.85 915.08 435.57
  Q 915.08 435.47 915.27 435.28
  Q 915.47 435.08 915.57 435.08
  Q 922.85 434.91 928.90 435.05
  A 0.97 0.96 0.1 0 1 929.85 436.00
  Q 930.00 443.55 929.97 449.21
  Q 929.97 449.55 930.19 449.77
  Z"
/>
<path fill="#000000" fill-opacity="0.200" d="
  M 1004.90 435.11
  L 1004.73 449.32
  A 0.52 0.52 0.0 0 1 1004.20 449.83
  L 990.11 449.46
  L 990.21 435.84
  A 0.54 0.54 0.0 0 1 990.74 435.30
  L 1004.90 435.11
  Z"
/>
<rect fill="#5f5b57" x="-7.58" y="-7.57" transform="translate(307.46,457.43) rotate(0.2)" width="15.16" height="15.14" rx="1.00"/>
<rect fill="#5f5b57" x="-7.39" y="-7.39" transform="translate(442.43,457.38) rotate(-0.1)" width="14.78" height="14.78" rx="1.05"/>
<rect fill="#5f5b57" x="-7.35" y="-7.35" transform="translate(532.43,457.51) rotate(-0.3)" width="14.70" height="14.70" rx="1.14"/>
<rect fill="#5f5b57" x="-7.30" y="-7.29" transform="translate(817.51,457.40) rotate(-0.2)" width="14.60" height="14.58" rx="0.82"/>
<path fill="#5f5b57" d="
  M 315.17 479.79
  A 0.23 0.23 0.0 0 1 314.94 479.55
  L 315.12 466.79
  A 1.96 1.94 0.8 0 1 317.10 464.87
  L 328.12 465.03
  A 1.96 1.94 0.8 0 1 330.06 466.99
  L 329.88 479.76
  A 0.23 0.23 0.0 0 1 329.64 479.99
  L 315.17 479.79
  Z"
/>
<path fill="#5f5b57" d="
  M 523.73 479.50
  L 511.31 479.50
  A 0.96 0.96 0.0 0 1 510.35 478.54
  L 510.35 466.13
  A 0.96 0.96 0.0 0 1 511.31 465.17
  L 523.73 465.17
  A 0.96 0.96 0.0 0 1 524.69 466.13
  L 524.69 478.54
  A 0.96 0.96 0.0 0 1 523.73 479.50
  Z"
/>
<rect fill="#5f5b57" x="-7.41" y="-7.40" transform="translate(337.46,487.54) rotate(-0.6)" width="14.82" height="14.80" rx="1.22"/>
<rect fill="#5f5b57" x="-7.41" y="-7.41" transform="translate(877.53,502.48) rotate(-0.2)" width="14.82" height="14.82" rx="0.58"/>
<rect fill="#5f5b57" x="855.29" y="510.30" width="14.52" height="14.52" rx="0.80"/>
<rect fill="#5f5b57" x="-7.45" y="-7.45" transform="translate(277.45,532.48) rotate(-0.2)" width="14.90" height="14.90" rx="0.98"/>
<rect fill="#5f5b57" x="-7.48" y="-7.48" transform="translate(532.44,532.38) rotate(0.1)" width="14.96" height="14.96" rx="1.84"/>
<rect fill="#5f5b57" x="-7.39" y="-7.39" transform="translate(262.45,547.57) rotate(-0.3)" width="14.78" height="14.78" rx="1.09"/>
<rect fill="#5f5b57" x="-7.42" y="-7.41" transform="translate(352.41,547.52) rotate(-0.2)" width="14.84" height="14.82" rx="1.06"/>
<rect fill="#5f5b57" x="-7.45" y="-7.45" transform="translate(517.45,547.52) rotate(-0.2)" width="14.90" height="14.90" rx="1.51"/>
<rect fill="#5f5b57" x="240.13" y="555.08" width="14.70" height="14.70" rx="0.86"/>
<rect fill="#5f5b57" x="-7.41" y="-7.41" transform="translate(337.49,562.43) rotate(0.1)" width="14.82" height="14.82" rx="0.85"/>
<path fill="#000000" d="
  M 795.01 585.05
  L 794.98 570.63
  A 0.61 0.60 0.5 0 0 794.38 570.03
  L 780.04 569.93
  L 780.09 555.56
  A 0.56 0.55 0.0 0 1 780.65 555.01
  L 824.37 555.01
  A 0.66 0.65 -0.0 0 1 825.03 555.66
  L 825.03 569.09
  A 0.91 0.90 -90.0 0 0 825.93 570.00
  L 839.58 570.00
  A 0.42 0.42 0.0 0 1 840.00 570.42
  L 840.00 614.57
  A 0.44 0.43 -90.0 0 1 839.57 615.01
  L 810.52 615.01
  A 0.53 0.52 -90.0 0 1 810.00 614.48
  L 810.00 600.67
  A 0.65 0.64 90.0 0 0 809.36 600.02
  L 795.51 600.02
  A 0.52 0.52 0.0 0 1 794.99 599.50
  L 795.01 585.05
  Z"
/>
<path fill="#000000" d="
  M 974.95 570.04
  L 960.68 570.04
  A 0.52 0.51 -0.6 0 0 960.17 570.55
  L 960.04 584.91
  L 960.05 599.06
  A 0.97 0.97 0.0 0 1 959.08 600.03
  L 945.62 600.03
  A 0.61 0.61 0.0 0 0 945.01 600.64
  L 945.01 614.59
  A 0.42 0.42 0.0 0 1 944.59 615.01
  L 915.55 615.01
  A 0.55 0.54 -0.0 0 1 915.00 614.47
  L 915.00 570.60
  A 0.64 0.64 0.0 0 1 915.64 569.96
  L 929.32 569.96
  A 0.66 0.66 0.0 0 0 929.98 569.30
  L 929.98 555.43
  A 0.42 0.42 0.0 0 1 930.40 555.01
  L 974.42 555.01
  A 0.52 0.52 0.0 0 1 974.94 555.53
  L 974.95 570.04
  Z"
/>
<path fill="#4a453a" d="
  M 1064.98 645.02
  L 1050.98 644.89
  A 0.83 0.82 90.0 0 0 1050.15 645.73
  L 1050.26 659.41
  L 1049.89 689.96
  L 1035.46 690.04
  A 0.44 0.43 -90.0 0 0 1035.03 690.48
  L 1035.03 704.66
  A 0.33 0.33 0.0 0 1 1034.70 704.99
  L 1020.68 704.99
  A 0.66 0.66 0.0 0 0 1020.02 705.65
  L 1020.02 719.62
  A 0.36 0.36 0.0 0 1 1019.66 719.98
  L 990.70 719.98
  A 0.60 0.59 -89.5 0 0 990.11 720.57
  L 990.08 734.52
  L 989.77 735.11
  L 975.64 735.09
  A 0.55 0.55 0.0 0 0 975.09 735.64
  L 975.09 749.75
  Q 975.04 749.50 974.78 750.12
  L 960.03 750.18
  L 959.99 748.77
  L 959.98 735.54
  A 0.61 0.61 0.0 0 1 960.59 734.93
  L 974.00 734.93
  A 1.06 1.05 0.0 0 0 975.06 733.88
  L 975.06 705.61
  A 0.64 0.64 0.0 0 1 975.70 704.97
  L 1004.27 704.97
  A 0.75 0.75 0.0 0 0 1005.02 704.22
  L 1005.02 690.78
  A 0.79 0.79 0.0 0 1 1005.81 689.99
  L 1019.35 689.99
  A 0.63 0.63 0.0 0 0 1019.98 689.36
  L 1019.98 675.34
  A 0.36 0.36 0.0 0 1 1020.34 674.98
  L 1034.53 674.98
  A 0.51 0.50 -90.0 0 0 1035.03 674.47
  L 1035.03 630.67
  A 0.67 0.66 0.0 0 1 1035.70 630.01
  L 1049.31 630.01
  A 0.70 0.70 0.0 0 0 1050.01 629.31
  L 1050.01 601.28
  A 1.29 1.28 0.2 0 0 1048.73 600.00
  L 1034.95 599.87
  L 1034.97 585.02
  L 1034.93 570.96
  L 1035.03 569.82
  L 1049.62 570.04
  A 0.39 0.39 0.0 0 1 1050.01 570.43
  L 1050.01 599.01
  A 0.98 0.97 90.0 0 0 1050.98 599.99
  L 1064.14 599.99
  A 0.88 0.88 0.0 0 1 1065.02 600.87
  L 1064.98 645.02
  Z"
/>
<rect fill="#5f5b57" x="-7.39" y="-7.38" transform="translate(742.46,577.56) rotate(-0.3)" width="14.78" height="14.76" rx="1.17"/>
<path fill="#8a8057" d="
  M 780.04 569.93
  L 794.38 570.03
  A 0.61 0.60 0.5 0 1 794.98 570.63
  L 795.01 585.05
  L 780.60 584.95
  A 0.59 0.59 0.0 0 1 780.02 584.36
  L 780.04 569.93
  Z"
/>
<rect fill="#b4b4b4" x="-7.49" y="-7.49" transform="translate(817.50,577.50) rotate(-0.1)" width="14.98" height="14.98" rx="0.85"/>
<rect fill="#b4b4b4" x="-7.49" y="-7.49" transform="translate(937.50,577.50) rotate(-0.1)" width="14.98" height="14.98" rx="0.83"/>
<path fill="#8a8057" d="
  M 974.95 570.04
  L 974.93 584.36
  A 0.52 0.51 0.0 0 1 974.41 584.87
  L 960.04 584.91
  L 960.17 570.55
  A 0.52 0.51 -0.6 0 1 960.68 570.04
  L 974.95 570.04
  Z"
/>
<path fill="#5f5b57" d="
  M 1034.97 585.02
  L 1034.95 599.87
  L 1020.69 599.86
  A 0.66 0.66 0.0 0 1 1020.03 599.20
  L 1020.03 585.48
  A 0.49 0.48 -90.0 0 1 1020.51 584.99
  L 1034.97 585.02
  Z"
/>
<path fill="#5f5b57" d="
  M 659.89 585.21
  L 660.11 674.10
  A 0.90 0.89 -90.0 0 0 661.00 675.00
  L 673.88 675.00
  A 1.07 1.07 0.0 0 1 674.95 676.07
  L 674.95 703.79
  A 1.23 1.23 0.0 0 0 676.18 705.02
  L 689.06 705.02
  A 0.88 0.87 -90.0 0 1 689.93 705.90
  L 689.93 718.85
  A 1.17 1.17 0.0 0 0 691.10 720.02
  L 704.05 720.02
  A 0.95 0.95 0.0 0 1 705.00 720.97
  L 705.00 733.94
  A 1.07 1.07 0.0 0 0 706.07 735.01
  L 719.00 735.01
  A 1.00 1.00 0.0 0 1 720.00 736.01
  L 720.00 748.85
  A 1.18 1.17 -90.0 0 0 721.17 750.03
  L 734.05 750.03
  A 0.95 0.95 0.0 0 1 735.00 750.98
  L 735.00 763.74
  A 1.25 1.24 0.0 0 0 736.25 764.98
  L 748.97 764.98
  A 1.00 1.00 0.0 0 1 749.97 765.98
  L 749.97 778.77
  A 1.17 1.17 0.0 0 0 751.14 779.94
  L 810.02 780.01
  L 809.97 794.98
  L 736.06 795.01
  A 1.07 1.07 0.0 0 1 734.99 793.94
  L 734.99 781.00
  A 0.99 0.99 0.0 0 0 734.00 780.01
  L 721.02 780.01
  A 1.04 1.04 0.0 0 1 719.98 778.97
  L 719.98 766.04
  A 1.05 1.04 90.0 0 0 718.94 764.99
  L 706.03 764.99
  A 1.02 1.02 0.0 0 1 705.01 763.97
  L 705.01 750.89
  A 0.93 0.92 0.0 0 0 704.08 749.97
  L 691.20 749.97
  A 1.20 1.20 0.0 0 1 690.00 748.77
  L 690.00 735.98
  A 0.96 0.95 0.0 0 0 689.04 735.03
  L 676.16 735.03
  A 1.21 1.20 -90.0 0 1 674.96 733.82
  L 674.96 720.90
  A 0.95 0.94 90.0 0 0 674.02 719.95
  L 661.06 719.95
  A 1.09 1.08 0.0 0 1 659.97 718.87
  L 659.97 691.11
  A 1.20 1.20 0.0 0 0 658.77 689.91
  L 645.84 689.91
  A 0.87 0.87 0.0 0 1 644.97 689.04
  L 644.97 585.86
  A 0.92 0.91 -89.4 0 1 645.90 584.94
  L 659.89 585.21
  Z"
/>
<path fill="#5f5b57" d="
  M 720.27 598.41
  L 720.27 586.27
  A 1.19 1.19 0.0 0 1 721.46 585.08
  L 733.56 585.08
  A 1.19 1.19 0.0 0 1 734.75 586.27
  L 734.75 598.41
  A 1.19 1.19 0.0 0 1 733.56 599.60
  L 721.46 599.60
  A 1.19 1.19 0.0 0 1 720.27 598.41
  Z"
/>
<rect fill="#5f5b57" x="210.01" y="600.04" width="15.02" height="14.98" rx="0.90"/>
<rect fill="#5f5b57" x="-7.43" y="-7.42" transform="translate(397.60,607.61) rotate(-0.2)" width="14.86" height="14.84" rx="0.87"/>
<rect fill="#5f5b57" x="-7.36" y="-7.36" transform="translate(1012.38,607.52) rotate(-0.3)" width="14.72" height="14.72" rx="1.01"/>
<path fill="#5f5b57" d="
  M 239.94 616.01
  L 239.94 628.96
  A 0.99 0.99 0.0 0 1 238.95 629.95
  L 225.99 629.95
  A 0.99 0.99 0.0 0 1 225.00 628.96
  L 225.00 616.01
  A 0.99 0.99 0.0 0 1 225.99 615.02
  L 238.95 615.02
  A 0.99 0.99 0.0 0 1 239.94 616.01
  Z"
/>
<path fill="#5f5b57" d="
  M 405.28 615.29
  Q 405.48 615.09 405.58 615.09
  Q 412.85 614.93 418.90 615.09
  A 0.97 0.96 0.3 0 1 419.85 616.04
  Q 419.98 623.59 419.95 629.25
  Q 419.94 629.58 420.17 629.81
  Q 420.35 629.99 420.68 629.99
  Q 426.34 629.96 433.89 630.09
  A 0.97 0.96 89.8 0 1 434.84 631.05
  Q 434.99 637.09 434.82 644.37
  Q 434.82 644.47 434.62 644.67
  Q 434.43 644.86 434.33 644.86
  Q 427.05 645.02 421.00 644.87
  A 0.97 0.96 0.3 0 1 420.05 643.92
  Q 419.93 636.37 419.96 630.70
  Q 419.96 630.37 419.74 630.15
  Q 419.56 629.97 419.23 629.97
  Q 413.56 630.00 406.01 629.86
  A 0.97 0.96 89.8 0 1 405.07 628.91
  Q 404.92 622.86 405.09 615.58
  Q 405.09 615.48 405.28 615.29
  Z"
/>
<path fill="#5f5b57" d="
  M 553.94 629.96
  L 541.03 629.96
  A 1.03 1.03 0.0 0 1 540.00 628.93
  L 540.00 616.00
  A 1.03 1.03 0.0 0 1 541.03 614.97
  L 553.94 614.97
  A 1.03 1.03 0.0 0 1 554.97 616.00
  L 554.97 628.93
  A 1.03 1.03 0.0 0 1 553.94 629.96
  Z"
/>
<rect fill="#5f5b57" x="-7.37" y="-7.36" transform="translate(247.42,637.45) rotate(-0.1)" width="14.74" height="14.72" rx="1.01"/>
<path fill="#5f5b57" d="
  M 569.13 645.00
  L 555.84 645.00
  A 0.85 0.85 0.0 0 1 554.99 644.15
  L 554.99 630.87
  A 0.85 0.85 0.0 0 1 555.84 630.02
  L 569.13 630.02
  A 0.85 0.85 0.0 0 1 569.98 630.87
  L 569.98 644.15
  A 0.85 0.85 0.0 0 1 569.13 645.00
  Z"
/>
<path fill="#000000" fill-opacity="0.200" d="
  M 1064.98 645.02
  L 1064.83 659.02
  A 0.87 0.87 0.0 0 1 1063.93 659.88
  L 1050.26 659.41
  L 1050.15 645.73
  A 0.83 0.82 90.0 0 1 1050.98 644.89
  L 1064.98 645.02
  Z"
/>
<path fill="#5f5b57" d="
  M 343.98 659.94
  L 331.15 659.94
  A 1.06 1.06 0.0 0 1 330.09 658.88
  L 330.09 646.03
  A 1.06 1.06 0.0 0 1 331.15 644.97
  L 343.98 644.97
  A 1.06 1.06 0.0 0 1 345.04 646.03
  L 345.04 658.88
  A 1.06 1.06 0.0 0 1 343.98 659.94
  Z"
/>
<rect fill="#5f5b57" x="-7.44" y="-7.44" transform="translate(577.49,652.40) rotate(-0.1)" width="14.88" height="14.88" rx="1.14"/>
<path fill="#b4b4b4" d="
  M 914.76 690.01
  L 900.75 690.01
  A 0.76 0.75 0.0 0 0 899.99 690.76
  L 899.98 704.91
  L 884.99 704.95
  L 885.03 690.56
  A 0.57 0.56 0.0 0 1 885.60 690.00
  L 899.35 690.00
  A 0.66 0.65 -90.0 0 0 900.00 689.34
  L 900.00 660.53
  A 0.53 0.53 0.0 0 0 899.47 660.00
  L 855.61 660.00
  A 0.62 0.61 -90.0 0 0 855.00 660.62
  L 855.00 689.44
  A 0.55 0.55 0.0 0 0 855.55 689.99
  L 869.55 689.99
  A 0.43 0.42 89.3 0 1 869.97 690.41
  L 870.00 704.97
  L 855.02 704.98
  L 854.99 690.74
  A 0.77 0.77 0.0 0 0 854.23 689.98
  L 840.01 689.95
  L 840.06 660.48
  A 0.47 0.47 0.0 0 1 840.53 660.01
  L 854.28 660.01
  A 0.72 0.72 0.0 0 0 855.00 659.29
  L 855.00 645.64
  A 0.64 0.63 90.0 0 1 855.63 645.00
  L 899.40 645.00
  A 0.62 0.61 90.0 0 1 900.01 645.62
  L 900.01 659.41
  A 0.60 0.60 0.0 0 0 900.61 660.01
  L 914.43 660.01
  A 0.58 0.58 0.0 0 1 915.01 660.59
  L 915.01 689.49
  A 0.43 0.38 62.9 0 1 914.96 689.69
  Q 914.86 689.88 914.76 690.01
  Z"
/>
<path fill="#5f5b57" d="
  M 990.06 660.04
  Q 990.01 660.09 989.79 660.08
  Q 983.83 659.95 975.96 659.75
  A 0.79 0.79 0.0 0 1 975.18 658.98
  Q 975.01 653.80 975.04 646.99
  Q 975.04 645.62 975.39 645.27
  Q 975.75 644.92 977.12 644.92
  Q 983.93 644.94 989.11 645.14
  A 0.79 0.79 0.0 0 1 989.87 645.92
  Q 990.02 653.80 990.12 659.76
  Q 990.12 659.98 990.06 660.04
  Z"
/>
<rect fill="#5f5b57" x="-7.41" y="-7.41" transform="translate(352.42,667.50) rotate(-0.1)" width="14.82" height="14.82" rx="1.19"/>
<rect fill="#5f5b57" x="-7.49" y="-7.49" transform="translate(742.54,667.55) rotate(-0.1)" width="14.98" height="14.98" rx="0.84"/>
<path fill="#4a453a" d="
  M 884.99 704.95
  L 884.99 719.87
  L 870.03 719.86
  L 870.00 704.97
  L 869.97 690.41
  A 0.43 0.42 89.3 0 0 869.55 689.99
  L 855.55 689.99
  A 0.55 0.55 0.0 0 1 855.00 689.44
  L 855.00 660.62
  A 0.62 0.61 90.0 0 1 855.61 660.00
  L 899.47 660.00
  A 0.53 0.53 0.0 0 1 900.00 660.53
  L 900.00 689.34
  A 0.66 0.65 90.0 0 1 899.35 690.00
  L 885.60 690.00
  A 0.57 0.56 0.0 0 0 885.03 690.56
  L 884.99 704.95
  Z"
/>
<rect fill="#5f5b57" x="-7.50" y="-7.50" transform="translate(997.51,667.55) rotate(-0.2)" width="15.00" height="15.00" rx="1.25"/>
<path fill="#5f5b57" d="
  M 405.02 929.55
  Q 405.21 929.56 405.28 929.96
  Q 405.23 930.03 405.11 930.16
  A 0.52 0.49 66.3 0 0 404.99 930.49
  L 404.99 944.19
  A 0.82 0.82 0.0 0 1 404.17 945.01
  L 390.85 945.01
  A 0.91 0.90 -90.0 0 0 389.95 945.92
  L 390.01 959.98
  L 374.89 959.96
  L 374.85 945.61
  A 0.63 0.62 0.0 0 0 374.22 944.99
  L 360.75 944.99
  A 0.64 0.64 0.0 0 0 360.11 945.63
  L 360.10 959.97
  L 344.97 959.97
  L 344.90 945.55
  A 0.51 0.51 0.0 0 0 344.39 945.04
  L 330.02 945.03
  L 285.72 945.01
  A 0.74 0.74 0.0 0 1 284.98 944.27
  L 284.98 930.90
  A 0.88 0.88 0.0 0 0 284.10 930.02
  L 270.09 930.00
  L 269.93 914.92
  L 269.98 901.07
  A 0.96 0.95 90.0 0 0 269.03 900.11
  L 255.10 900.07
  L 254.94 825.03
  L 254.86 810.71
  A 0.67 0.66 0.0 0 0 254.19 810.05
  L 240.19 810.03
  L 239.91 794.88
  L 239.86 780.70
  A 0.52 0.52 0.0 0 0 239.34 780.18
  L 225.25 780.11
  Q 225.21 779.80 224.92 779.78
  L 224.85 765.64
  A 0.53 0.53 0.0 0 0 224.32 765.12
  L 210.21 765.09
  Q 210.21 764.79 209.91 764.81
  L 209.83 750.69
  A 0.53 0.52 -0.0 0 0 209.30 750.17
  L 195.11 750.15
  L 194.88 704.86
  L 194.86 690.55
  A 0.45 0.44 0.0 0 0 194.41 690.11
  L 180.33 690.08
  L 180.03 674.77
  L 194.22 675.02
  A 0.77 0.77 0.0 0 1 194.98 675.79
  L 194.98 689.51
  A 0.45 0.45 0.0 0 0 195.43 689.96
  L 208.67 689.96
  A 1.24 1.24 0.0 0 1 209.91 691.20
  L 209.91 734.09
  A 0.94 0.94 0.0 0 0 210.85 735.03
  L 224.36 735.03
  A 0.65 0.65 0.0 0 1 225.01 735.68
  L 225.01 749.14
  A 0.92 0.91 0.0 0 0 225.93 750.05
  L 238.88 750.05
  A 1.05 1.05 0.0 0 1 239.93 751.10
  L 239.93 764.17
  A 0.80 0.79 -90.0 0 0 240.72 764.97
  L 254.32 764.97
  A 0.69 0.68 0.0 0 1 255.01 765.65
  L 255.01 794.06
  A 0.98 0.98 0.0 0 0 255.99 795.04
  L 269.00 795.04
  A 0.92 0.92 0.0 0 1 269.92 795.96
  L 269.92 899.65
  A 0.39 0.38 -0.0 0 0 270.31 900.03
  L 283.87 900.03
  A 1.12 1.12 0.0 0 1 284.99 901.15
  L 284.99 929.42
  A 0.55 0.55 0.0 0 0 285.54 929.97
  L 405.02 929.55
  Z"
/>
<path fill="#5f5b57" d="
  M 255.32 675.30
  Q 255.52 675.10 255.61 675.10
  Q 262.89 674.93 268.94 675.08
  A 0.97 0.96 0.2 0 1 269.89 676.03
  Q 270.02 683.57 270.00 689.24
  Q 269.99 689.57 270.22 689.79
  Q 270.40 689.97 270.73 689.97
  Q 276.39 689.93 283.94 690.06
  A 0.97 0.96 89.7 0 1 284.88 691.01
  Q 285.04 697.05 284.88 704.33
  Q 284.88 704.43 284.68 704.63
  Q 284.49 704.82 284.39 704.82
  Q 277.12 704.99 271.07 704.84
  A 0.97 0.96 0.2 0 1 270.12 703.89
  Q 269.99 696.35 270.01 690.68
  Q 270.01 690.35 269.79 690.13
  Q 269.61 689.95 269.28 689.95
  Q 263.62 689.99 256.07 689.86
  A 0.97 0.96 89.7 0 1 255.12 688.91
  Q 254.97 682.86 255.13 675.59
  Q 255.13 675.49 255.32 675.30
  Z"
/>
<rect fill="#5f5b57" x="-7.50" y="-7.48" transform="translate(757.49,682.46) rotate(0.1)" width="15.00" height="14.96" rx="1.05"/>
<path fill="#4a453a" d="
  M 840.01 689.95
  L 854.23 689.98
  A 0.77 0.77 0.0 0 1 854.99 690.74
  L 855.02 704.98
  L 855.01 719.99
  L 841.08 719.99
  A 1.09 1.08 0.0 0 1 839.99 718.91
  L 839.95 704.98
  L 840.01 689.95
  Z"
/>
<path fill="#000000" fill-opacity="0.200" d="
  M 990.08 734.52
  L 990.11 720.57
  A 0.60 0.59 -89.5 0 1 990.70 719.98
  L 1019.66 719.98
  A 0.36 0.36 0.0 0 0 1020.02 719.62
  L 1020.02 705.65
  A 0.66 0.66 0.0 0 1 1020.68 704.99
  L 1034.70 704.99
  A 0.33 0.33 0.0 0 0 1035.03 704.66
  L 1035.03 690.48
  A 0.44 0.43 -90.0 0 1 1035.46 690.04
  L 1049.89 689.96
  L 1049.86 704.20
  A 0.87 0.86 -0.0 0 1 1048.99 705.06
  L 1035.54 705.06
  A 0.67 0.66 90.0 0 0 1034.88 705.73
  L 1034.88 719.15
  A 0.85 0.85 0.0 0 1 1034.03 720.00
  L 1020.63 720.00
  A 0.73 0.73 0.0 0 0 1019.90 720.73
  L 1019.90 734.06
  A 0.88 0.88 0.0 0 1 1019.04 734.94
  Q 1011.33 735.10 997.50 735.08
  Q 993.00 735.07 990.08 734.52
  Z"
/>
<path fill="#000000" fill-opacity="0.200" d="
  M 194.88 704.86
  L 181.00 704.77
  A 0.82 0.82 0.0 0 1 180.18 703.94
  L 180.33 690.08
  L 194.41 690.11
  A 0.45 0.44 0.0 0 1 194.86 690.55
  L 194.88 704.86
  Z"
/>
<rect fill="#5f5b57" x="-7.40" y="-7.39" transform="translate(502.48,697.55) rotate(-0.3)" width="14.80" height="14.78" rx="1.17"/>
<path fill="#4a453a" d="
  M 914.76 690.01
  L 915.07 704.98
  L 915.02 719.21
  A 0.77 0.77 0.0 0 1 914.25 719.98
  L 900.07 719.99
  L 899.98 704.91
  L 899.99 690.76
  A 0.76 0.75 -0.0 0 1 900.75 690.01
  L 914.76 690.01
  Z"
/>
<path fill="#000000" d="
  M 884.99 704.95
  L 899.98 704.91
  L 900.07 719.99
  L 885.06 720.04
  Q 885.03 719.95 884.99 719.87
  L 884.99 704.95
  Z"
/>
<path fill="#5f5b57" d="
  M 824.96 945.21
  L 825.07 959.36
  A 0.60 0.60 0.0 0 1 824.48 959.97
  Q 818.00 960.09 811.75 960.02
  Q 810.66 960.01 809.92 960.43
  Q 809.14 960.04 808.52 960.04
  Q 791.03 959.90 751.76 960.11
  Q 751.00 960.12 750.17 960.32
  Q 749.95 959.47 749.97 959.92
  L 749.96 945.72
  A 0.73 0.73 0.0 0 0 749.23 944.99
  L 705.51 944.99
  A 0.53 0.53 0.0 0 1 704.98 944.46
  L 704.98 930.75
  A 0.75 0.75 0.0 0 0 704.23 930.00
  L 690.31 930.00
  A 0.35 0.35 0.0 0 1 689.96 929.65
  L 689.96 915.69
  A 0.71 0.71 0.0 0 0 689.25 914.98
  L 675.54 914.98
  A 0.57 0.56 0.0 0 1 674.97 914.42
  L 674.97 900.86
  A 0.78 0.77 -90.0 0 0 674.20 900.08
  L 660.27 900.04
  L 659.86 884.71
  L 659.92 870.96
  A 0.89 0.88 1.0 0 0 659.05 870.07
  L 644.99 869.87
  L 644.95 854.97
  L 644.88 840.86
  A 0.86 0.86 0.0 0 0 644.02 840.01
  L 631.03 840.01
  A 1.06 1.05 -0.0 0 1 629.97 838.96
  L 629.97 780.91
  A 0.88 0.88 0.0 0 0 629.09 780.03
  L 615.88 780.03
  A 0.84 0.83 -0.0 0 0 615.04 780.86
  L 615.04 794.33
  A 0.67 0.67 0.0 0 1 614.37 795.00
  L 600.62 795.00
  A 0.62 0.62 0.0 0 0 600.00 795.62
  L 600.00 809.30
  A 0.70 0.70 0.0 0 1 599.30 810.00
  L 570.50 810.00
  A 0.52 0.51 90.0 0 0 569.99 810.52
  L 569.99 824.54
  A 0.45 0.44 -0.0 0 1 569.54 824.98
  L 465.67 824.98
  A 0.67 0.67 0.0 0 1 465.00 824.31
  L 465.00 810.71
  A 0.71 0.71 0.0 0 0 464.29 810.00
  L 450.90 810.00
  A 0.91 0.90 -0.0 0 1 449.99 809.10
  L 449.99 795.79
  A 0.82 0.81 90.0 0 0 449.18 794.97
  L 421.04 794.97
  A 1.05 1.05 0.0 0 1 419.99 793.92
  L 419.99 780.89
  A 0.92 0.91 0.0 0 0 419.07 779.98
  L 405.89 779.98
  A 0.88 0.88 0.0 0 1 405.01 779.10
  L 405.01 765.78
  A 0.79 0.79 0.0 0 0 404.22 764.99
  L 391.01 764.99
  A 1.00 1.00 0.0 0 1 390.01 763.99
  L 390.01 750.91
  A 0.93 0.92 -0.0 0 0 389.08 749.99
  L 359.95 749.97
  L 359.86 735.64
  A 0.52 0.52 0.0 0 0 359.34 735.12
  L 345.07 735.08
  L 345.03 705.74
  A 0.72 0.72 0.0 0 1 345.75 705.02
  L 359.19 705.02
  A 0.78 0.77 -0.0 0 1 359.97 705.79
  L 359.97 718.98
  A 1.08 1.07 90.0 0 0 361.04 720.06
  L 374.26 720.06
  A 0.72 0.72 0.0 0 1 374.98 720.78
  L 374.98 733.92
  A 1.09 1.09 0.0 0 0 376.07 735.01
  L 404.21 735.01
  A 0.81 0.81 0.0 0 1 405.02 735.82
  L 405.02 748.93
  A 1.08 1.08 0.0 0 0 406.10 750.01
  L 418.82 750.01
  A 1.12 1.12 0.0 0 1 419.94 751.13
  L 419.94 764.01
  A 0.88 0.87 90.0 0 0 420.81 764.89
  L 433.90 764.89
  A 1.10 1.10 0.0 0 1 435.00 765.99
  L 435.00 778.94
  A 1.07 1.06 0.0 0 0 436.07 780.00
  L 449.14 780.00
  A 0.75 0.74 0.0 0 0 449.89 779.26
  L 449.89 766.18
  A 1.22 1.21 -0.0 0 1 451.11 764.97
  L 464.18 764.97
  A 0.88 0.88 0.0 0 1 465.06 765.85
  L 465.06 778.83
  A 1.09 1.09 0.0 0 0 466.15 779.92
  L 478.97 779.92
  A 0.94 0.93 -90.0 0 0 479.90 778.98
  L 479.90 765.89
  A 0.92 0.92 0.0 0 1 480.82 764.97
  L 494.25 764.97
  A 0.77 0.76 0.0 0 1 495.02 765.73
  L 495.02 778.81
  A 1.12 1.12 0.0 0 0 496.14 779.93
  L 509.10 779.93
  A 0.79 0.78 0.0 0 0 509.89 779.15
  L 509.89 765.98
  A 1.01 1.01 0.0 0 1 510.90 764.97
  L 523.92 764.97
  A 1.10 1.10 0.0 0 1 525.02 766.07
  L 525.02 778.54
  A 1.47 1.46 -90.0 0 0 526.48 780.01
  L 538.59 780.01
  A 1.26 1.26 0.0 0 0 539.85 778.75
  L 539.85 766.15
  A 1.19 1.19 0.0 0 1 541.04 764.96
  L 553.79 764.96
  A 1.19 1.19 0.0 0 1 554.98 766.15
  L 554.98 778.68
  A 1.29 1.28 -0.0 0 0 556.27 779.96
  L 568.99 779.96
  A 0.89 0.88 0.0 0 0 569.88 779.08
  L 569.88 766.02
  A 1.02 1.02 0.0 0 1 570.90 765.00
  L 584.26 765.00
  A 0.79 0.79 0.0 0 1 585.05 765.79
  L 585.05 778.79
  A 1.17 1.16 0.0 0 0 586.22 779.95
  L 599.24 779.95
  A 0.70 0.70 0.0 0 0 599.94 779.25
  L 599.94 765.87
  A 0.94 0.93 -90.0 0 1 600.87 764.93
  L 614.14 764.93
  A 0.86 0.85 -90.0 0 0 614.99 764.07
  L 614.99 751.08
  A 1.05 1.05 0.0 0 1 616.04 750.03
  L 628.99 750.03
  A 0.97 0.96 90.0 0 1 629.95 751.00
  L 629.95 763.95
  A 1.02 1.02 0.0 0 0 630.97 764.97
  L 644.25 764.97
  A 0.82 0.82 0.0 0 1 645.07 765.79
  L 645.07 778.97
  A 1.08 1.07 90.0 0 0 646.14 780.05
  L 658.73 780.05
  A 1.22 1.22 0.0 0 1 659.95 781.27
  L 659.95 793.94
  A 1.08 1.08 0.0 0 1 658.87 795.02
  L 646.04 795.02
  A 1.00 0.99 90.0 0 0 645.05 796.02
  L 645.05 809.04
  A 0.93 0.92 90.0 0 0 645.97 809.97
  L 658.87 809.97
  A 1.09 1.09 0.0 0 1 659.96 811.06
  L 659.96 824.00
  A 1.03 1.03 0.0 0 1 658.93 825.03
  L 645.95 825.03
  A 0.87 0.86 0.0 0 0 645.08 825.89
  L 645.08 838.99
  A 0.96 0.96 0.0 0 0 646.04 839.95
  L 658.74 839.95
  A 1.20 1.19 -0.0 0 1 659.94 841.14
  L 659.94 869.06
  A 0.81 0.80 -90.0 0 0 660.74 869.87
  L 673.52 869.87
  A 1.43 1.42 0.0 0 1 674.95 871.29
  L 674.95 899.00
  A 0.99 0.99 0.0 0 0 675.94 899.99
  L 688.67 899.99
  A 1.31 1.31 0.0 0 1 689.98 901.30
  L 689.98 914.38
  A 0.60 0.59 0.0 0 0 690.58 914.97
  L 704.30 914.97
  A 0.68 0.68 0.0 0 1 704.98 915.65
  L 704.98 929.66
  A 0.32 0.32 0.0 0 0 705.30 929.98
  L 749.03 929.98
  A 0.92 0.92 0.0 0 1 749.95 930.90
  L 749.95 944.55
  A 0.43 0.43 0.0 0 0 750.38 944.98
  L 824.96 945.21
  Z"
/>
<path fill="#5f5b57" d="
  M 480.27 718.42
  L 480.27 706.27
  A 1.19 1.19 0.0 0 1 481.46 705.08
  L 493.56 705.08
  A 1.19 1.19 0.0 0 1 494.75 706.27
  L 494.75 718.42
  A 1.19 1.19 0.0 0 1 493.56 719.61
  L 481.46 719.61
  A 1.19 1.19 0.0 0 1 480.27 718.42
  Z"
/>
<rect fill="#53494a" x="795.03" y="705.02" width="14.96" height="14.96" rx="0.77"/>
<path fill="#ab8468" d="
  M 839.95 704.98
  L 839.99 718.91
  A 1.09 1.08 -0.0 0 0 841.08 719.99
  L 855.01 719.99
  L 870.00 720.01
  L 870.03 734.33
  A 0.59 0.59 0.0 0 0 870.62 734.91
  L 884.45 734.91
  A 0.56 0.56 0.0 0 0 885.01 734.35
  L 885.06 720.04
  L 900.07 719.99
  L 914.25 719.98
  A 0.77 0.77 0.0 0 0 915.02 719.21
  L 915.07 704.98
  L 930.00 705.03
  L 930.00 719.29
  A 0.71 0.71 0.0 0 1 929.29 720.00
  L 915.67 720.00
  A 0.63 0.63 0.0 0 0 915.04 720.63
  L 915.06 734.93
  Q 914.96 734.95 914.86 734.98
  L 885.52 735.01
  A 0.50 0.50 0.0 0 0 885.02 735.51
  L 885.02 749.44
  A 0.53 0.53 0.0 0 1 884.49 749.97
  L 869.97 750.00
  L 869.96 735.59
  A 0.58 0.58 0.0 0 0 869.38 735.01
  L 840.59 735.01
  A 0.60 0.60 0.0 0 1 839.99 734.41
  L 839.99 720.70
  A 0.67 0.66 0.4 0 0 839.33 720.04
  L 825.01 719.89
  L 825.02 705.55
  A 0.54 0.53 -89.4 0 1 825.55 705.02
  L 839.95 704.98
  Z"
/>
<path fill="#000000" d="
  M 870.00 704.97
  L 870.03 719.86
  Q 870.30 719.70 870.00 720.01
  L 855.01 719.99
  L 855.02 704.98
  L 870.00 704.97
  Z"
/>
<path fill="#53494a" d="
  M 915.06 734.93
  L 915.04 720.63
  A 0.63 0.63 0.0 0 1 915.67 720.00
  L 929.29 720.00
  A 0.71 0.71 0.0 0 0 930.00 719.29
  L 930.00 705.03
  L 959.32 704.99
  A 0.66 0.65 -0.0 0 1 959.98 705.64
  L 959.98 719.42
  A 0.56 0.56 0.0 0 1 959.42 719.98
  L 945.97 719.98
  A 0.98 0.97 0.0 0 0 944.99 720.95
  L 944.99 734.49
  A 0.51 0.51 0.0 0 1 944.48 735.00
  L 915.06 734.93
  Z"
/>
<path fill="#53494a" d="
  M 825.01 719.89
  L 839.33 720.04
  A 0.67 0.66 0.4 0 1 839.99 720.70
  L 839.99 734.41
  A 0.60 0.60 0.0 0 0 840.59 735.01
  L 869.38 735.01
  A 0.58 0.58 0.0 0 1 869.96 735.59
  L 869.97 750.00
  L 825.74 749.98
  A 0.74 0.74 0.0 0 1 825.00 749.24
  L 825.00 735.63
  A 0.64 0.63 0.0 0 0 824.36 735.00
  L 810.69 735.00
  A 0.70 0.69 -90.0 0 1 810.00 734.30
  L 810.00 720.85
  A 0.93 0.93 0.0 0 1 810.93 719.92
  L 825.01 719.89
  Z"
/>
<path fill="#8a8057" d="
  M 870.03 719.86
  L 884.99 719.87
  Q 885.03 719.95 885.06 720.04
  L 885.01 734.35
  A 0.56 0.56 0.0 0 1 884.45 734.91
  L 870.62 734.91
  A 0.59 0.59 0.0 0 1 870.03 734.33
  L 870.00 720.01
  Q 870.30 719.70 870.03 719.86
  Z"
/>
<path fill="#312823" d="
  M 359.95 749.97
  L 345.63 749.93
  A 0.52 0.52 0.0 0 1 345.11 749.41
  L 345.07 735.08
  L 359.34 735.12
  A 0.52 0.52 0.0 0 1 359.86 735.64
  L 359.95 749.97
  Z"
/>
<path fill="#000000" fill-opacity="0.200" d="
  M 989.77 735.11
  L 989.73 749.25
  A 0.53 0.53 0.0 0 1 989.20 749.78
  L 975.09 749.75
  L 975.09 735.64
  A 0.55 0.55 0.0 0 1 975.64 735.09
  L 989.77 735.11
  Z"
/>
<path fill="#000000" fill-opacity="0.200" d="
  M 209.91 764.81
  L 195.79 764.78
  A 0.54 0.53 0.6 0 1 195.26 764.25
  L 195.11 750.15
  L 209.30 750.17
  A 0.53 0.52 -0.0 0 1 209.83 750.69
  L 209.91 764.81
  Z"
/>
<path fill="#312823" d="
  M 644.95 854.97
  L 540.70 855.01
  A 0.63 0.63 0.0 0 0 540.07 855.64
  L 540.07 869.77
  Q 539.91 869.87 539.84 870.12
  L 525.64 870.13
  A 0.52 0.52 0.0 0 0 525.12 870.65
  L 525.06 884.79
  L 525.05 914.69
  A 0.31 0.31 0.0 0 0 525.36 915.00
  L 539.30 915.00
  A 0.67 0.66 -90.0 0 1 539.96 915.67
  L 539.92 930.08
  L 525.59 930.09
  A 0.52 0.51 0.0 0 0 525.07 930.60
  L 525.03 944.95
  L 509.93 944.96
  L 509.92 930.56
  A 0.57 0.56 -90.0 0 0 509.36 929.99
  L 495.65 929.99
  A 0.58 0.58 0.0 0 0 495.07 930.57
  L 495.05 944.95
  L 479.92 944.93
  L 479.86 930.65
  A 0.66 0.65 89.6 0 0 479.21 930.00
  L 465.46 930.00
  A 0.32 0.31 -78.8 0 0 465.17 930.20
  Q 465.10 930.36 465.03 930.52
  Q 464.39 930.02 463.50 930.02
  Q 441.77 929.90 419.99 930.02
  L 405.28 929.96
  Q 405.21 929.56 405.02 929.55
  L 405.03 810.71
  A 0.71 0.70 0.4 0 0 404.32 810.00
  L 390.69 810.00
  A 0.69 0.69 0.0 0 1 390.00 809.31
  L 390.00 795.42
  A 0.42 0.42 0.0 0 0 389.58 795.00
  L 375.59 795.00
  A 0.59 0.58 0.0 0 1 375.00 794.42
  L 375.00 780.49
  A 0.49 0.49 0.0 0 0 374.51 780.00
  L 360.66 780.00
  A 0.71 0.70 -0.0 0 1 359.95 779.30
  L 359.95 749.97
  L 389.08 749.99
  A 0.93 0.92 -0.0 0 1 390.01 750.91
  L 390.01 763.99
  A 1.00 1.00 0.0 0 0 391.01 764.99
  L 404.22 764.99
  A 0.79 0.79 0.0 0 1 405.01 765.78
  L 405.01 779.10
  A 0.88 0.88 0.0 0 0 405.89 779.98
  L 419.07 779.98
  A 0.92 0.91 0.0 0 1 419.99 780.89
  L 419.99 793.92
  A 1.05 1.05 0.0 0 0 421.04 794.97
  L 449.18 794.97
  A 0.82 0.81 -90.0 0 1 449.99 795.79
  L 449.99 809.10
  A 0.91 0.90 -0.0 0 0 450.90 810.00
  L 464.29 810.00
  A 0.71 0.71 0.0 0 1 465.00 810.71
  L 465.00 824.31
  A 0.67 0.67 0.0 0 0 465.67 824.98
  L 569.54 824.98
  A 0.45 0.44 -0.0 0 0 569.99 824.54
  L 569.99 810.52
  A 0.52 0.51 90.0 0 1 570.50 810.00
  L 599.30 810.00
  A 0.70 0.70 0.0 0 0 600.00 809.30
  L 600.00 795.62
  A 0.62 0.62 0.0 0 1 600.62 795.00
  L 614.37 795.00
  A 0.67 0.67 0.0 0 0 615.04 794.33
  L 615.04 780.86
  A 0.84 0.83 0.0 0 1 615.88 780.03
  L 629.09 780.03
  A 0.88 0.88 0.0 0 1 629.97 780.91
  L 629.97 838.96
  A 1.06 1.05 0.0 0 0 631.03 840.01
  L 644.02 840.01
  A 0.86 0.86 0.0 0 1 644.88 840.86
  L 644.95 854.97
  Z"
/>
<path fill="#000000" fill-opacity="0.200" d="
  M 974.78 750.12
  L 974.82 764.26
  A 0.53 0.53 0.0 0 1 974.29 764.79
  L 960.06 764.85
  L 960.03 750.18
  L 974.78 750.12
  Z"
/>
<path fill="#000000" fill-opacity="0.200" d="
  M 224.92 779.78
  L 210.78 779.77
  A 0.52 0.52 0.0 0 1 210.26 779.25
  L 210.21 765.09
  L 224.32 765.12
  A 0.53 0.53 0.0 0 1 224.85 765.64
  L 224.92 779.78
  Z"
/>
<rect fill="#5f5b57" x="-7.49" y="-7.49" transform="translate(322.42,772.45) rotate(0.1)" width="14.98" height="14.98" rx="1.52"/>
<path fill="#000000" fill-opacity="0.200" d="
  M 959.80 765.14
  L 959.82 779.25
  A 0.53 0.52 -0.0 0 1 959.29 779.77
  L 945.12 779.79
  L 945.11 765.67
  A 0.53 0.52 90.0 0 1 945.63 765.14
  L 959.80 765.14
  Z"
/>
<path fill="#000000" fill-opacity="0.200" d="
  M 239.91 794.88
  L 225.75 794.80
  A 0.54 0.54 0.0 0 1 225.22 794.26
  L 225.25 780.11
  L 239.34 780.18
  A 0.52 0.52 0.0 0 1 239.86 780.70
  L 239.91 794.88
  Z"
/>
<rect fill="#5f5b57" x="-7.47" y="-7.48" transform="translate(307.42,787.50) rotate(-0.5)" width="14.94" height="14.96" rx="1.58"/>
<rect fill="#5f5b57" x="690.03" y="780.09" width="14.98" height="14.96" rx="1.00"/>
<path fill="#312823" d="
  M 885.08 780.02
  L 885.07 794.95
  L 884.93 825.03
  L 870.62 824.99
  A 0.55 0.55 0.0 0 0 870.07 825.54
  L 870.09 839.91
  L 870.03 898.73
  A 1.28 1.28 0.0 0 0 871.31 900.01
  L 884.38 900.01
  A 0.62 0.62 0.0 0 1 885.00 900.63
  L 885.00 914.45
  A 0.55 0.55 0.0 0 0 885.55 915.00
  L 899.22 915.00
  A 0.74 0.74 0.0 0 1 899.96 915.74
  L 899.93 930.09
  L 885.60 930.09
  A 0.52 0.52 0.0 0 0 885.08 930.61
  L 885.02 944.96
  L 870.10 945.01
  L 869.99 930.68
  A 0.65 0.64 89.5 0 0 869.35 930.04
  L 855.05 930.03
  L 854.90 915.61
  A 0.50 0.50 0.0 0 0 854.40 915.11
  L 840.06 915.04
  L 825.60 914.93
  A 0.60 0.60 0.0 0 1 825.00 914.33
  L 825.00 900.64
  A 0.64 0.64 0.0 0 0 824.36 900.00
  L 810.74 900.00
  A 0.75 0.74 -90.0 0 1 810.00 899.25
  L 810.00 885.64
  A 0.64 0.64 0.0 0 0 809.36 885.00
  L 795.80 885.00
  A 0.80 0.80 0.0 0 1 795.00 884.20
  L 795.00 825.51
  A 0.52 0.51 0.0 0 1 795.52 825.00
  L 809.49 825.00
  A 0.50 0.49 -0.0 0 0 809.99 824.51
  L 809.97 794.98
  L 810.02 780.01
  L 885.08 780.02
  Z"
/>
<path fill="#000000" fill-opacity="0.200" d="
  M 944.75 780.01
  L 944.72 794.37
  A 0.51 0.51 0.0 0 1 944.21 794.88
  L 885.07 794.95
  L 885.08 780.02
  L 944.75 780.01
  Z"
/>
<rect fill="#5f5b57" x="-7.49" y="-7.48" transform="translate(712.48,802.49) rotate(-0.1)" width="14.98" height="14.96" rx="0.95"/>
<path fill="#000000" fill-opacity="0.200" d="
  M 254.94 825.03
  L 241.04 824.78
  A 0.86 0.86 0.0 0 1 240.19 823.92
  L 240.19 810.03
  L 254.19 810.05
  A 0.67 0.66 0.0 0 1 254.86 810.71
  L 254.94 825.03
  Z"
/>
<rect fill="#5f5b57" x="-7.38" y="-7.38" transform="translate(727.44,817.35) rotate(-0.1)" width="14.76" height="14.76" rx="1.21"/>
<path fill="#5f5b57" d="
  M 315.39 825.32
  Q 315.74 824.97 317.10 824.97
  Q 323.88 824.97 329.03 825.16
  A 0.79 0.79 0.0 0 1 329.79 825.94
  Q 329.95 833.77 330.05 839.70
  Q 330.06 839.92 330.00 839.98
  Q 329.95 840.03 329.73 840.02
  Q 323.80 839.90 315.97 839.71
  A 0.79 0.79 0.0 0 1 315.20 838.95
  Q 315.02 833.80 315.04 827.02
  Q 315.04 825.66 315.39 825.32
  Z"
/>
<path fill="#000000" fill-opacity="0.200" d="
  M 884.93 825.03
  L 884.90 839.05
  A 0.90 0.89 -0.0 0 1 884.00 839.94
  L 870.09 839.91
  L 870.07 825.54
  A 0.55 0.55 0.0 0 1 870.62 824.99
  L 884.93 825.03
  Z"
/>
<rect fill="#5f5b57" x="-7.50" y="-7.45" transform="translate(337.53,847.57) rotate(-0.3)" width="15.00" height="14.90" rx="1.20"/>
<rect fill="#5f5b57" x="-7.44" y="-7.44" transform="translate(352.42,862.48) rotate(-0.3)" width="14.88" height="14.88" rx="0.96"/>
<path fill="#000000" fill-opacity="0.200" d="
  M 644.95 854.97
  L 644.99 869.87
  L 540.07 869.77
  L 540.07 855.64
  A 0.63 0.63 0.0 0 1 540.70 855.01
  L 644.95 854.97
  Z"
/>
<path fill="#000000" fill-opacity="0.200" d="
  M 659.86 884.71
  L 645.94 884.82
  A 0.89 0.89 0.0 0 1 645.04 883.94
  L 644.99 869.87
  L 659.05 870.07
  A 0.89 0.88 1.0 0 1 659.92 870.96
  L 659.86 884.71
  Z"
/>
<path fill="#000000" fill-opacity="0.200" d="
  M 539.84 870.12
  L 539.83 884.25
  A 0.53 0.53 0.0 0 1 539.30 884.78
  L 525.06 884.79
  L 525.12 870.65
  A 0.52 0.52 0.0 0 1 525.64 870.13
  L 539.84 870.12
  Z"
/>
<rect fill="#5f5b57" x="-7.48" y="-7.49" transform="translate(727.56,892.47) rotate(0.3)" width="14.96" height="14.98" rx="1.07"/>
<path fill="#000000" fill-opacity="0.200" d="
  M 255.10 900.07
  L 269.03 900.11
  A 0.96 0.95 -90.0 0 1 269.98 901.07
  L 269.93 914.92
  L 256.09 914.89
  A 0.95 0.95 0.0 0 1 255.14 913.95
  L 255.10 900.07
  Z"
/>
<path fill="#000000" fill-opacity="0.200" d="
  M 749.97 959.92
  L 705.81 959.86
  A 0.68 0.67 0.4 0 1 705.14 959.19
  L 705.14 945.72
  A 0.75 0.75 0.0 0 0 704.39 944.97
  L 691.00 944.97
  A 0.87 0.87 0.0 0 1 690.13 944.10
  L 690.13 930.91
  A 1.04 1.04 0.0 0 0 689.09 929.87
  L 676.04 929.87
  A 0.91 0.91 0.0 0 1 675.13 928.96
  L 675.13 915.64
  A 0.65 0.64 -90.0 0 0 674.49 914.99
  L 661.10 914.99
  A 0.87 0.87 0.0 0 1 660.23 914.12
  L 660.27 900.04
  L 674.20 900.08
  A 0.78 0.77 90.0 0 1 674.97 900.86
  L 674.97 914.42
  A 0.57 0.56 0.0 0 0 675.54 914.98
  L 689.25 914.98
  A 0.71 0.71 0.0 0 1 689.96 915.69
  L 689.96 929.65
  A 0.35 0.35 0.0 0 0 690.31 930.00
  L 704.23 930.00
  A 0.75 0.75 0.0 0 1 704.98 930.75
  L 704.98 944.46
  A 0.53 0.53 0.0 0 0 705.51 944.99
  L 749.23 944.99
  A 0.73 0.73 0.0 0 1 749.96 945.72
  L 749.97 959.92
  Z"
/>
<rect fill="#5f5b57" x="-7.49" y="-7.49" transform="translate(742.48,907.55) rotate(-0.1)" width="14.98" height="14.98" rx="1.02"/>
<path fill="#53494a" d="
  M 855.05 930.03
  L 855.04 945.04
  L 840.04 944.81
  L 840.06 915.04
  L 854.40 915.11
  A 0.50 0.50 0.0 0 1 854.90 915.61
  L 855.05 930.03
  Z"
/>
<path fill="#000000" fill-opacity="0.200" d="
  M 330.02 945.03
  L 330.09 959.45
  A 0.50 0.50 0.0 0 0 330.59 959.95
  L 344.97 959.97
  L 360.10 959.97
  L 374.89 959.96
  L 390.01 959.98
  L 405.24 959.95
  L 419.77 960.03
  L 419.76 974.15
  A 0.85 0.84 -0.0 0 1 418.91 974.99
  L 331.06 974.99
  A 0.97 0.97 0.0 0 1 330.09 974.02
  L 330.09 961.03
  A 1.12 1.12 0.0 0 0 328.97 959.91
  L 285.97 959.91
  A 0.84 0.84 0.0 0 1 285.13 959.07
  L 285.13 945.66
  A 0.68 0.68 0.0 0 0 284.45 944.98
  L 270.98 944.98
  A 0.86 0.86 0.0 0 1 270.12 944.12
  L 270.09 930.00
  L 284.10 930.02
  A 0.88 0.88 0.0 0 1 284.98 930.90
  L 284.98 944.27
  A 0.74 0.74 0.0 0 0 285.72 945.01
  L 330.02 945.03
  Z"
/>
<path fill="#8a8057" d="
  M 405.28 929.96
  L 419.99 930.02
  L 419.92 944.88
  L 405.73 944.97
  A 0.66 0.66 0.0 0 0 405.08 945.64
  L 405.24 959.95
  L 390.01 959.98
  L 389.95 945.92
  A 0.91 0.90 90.0 0 1 390.85 945.01
  L 404.17 945.01
  A 0.82 0.82 0.0 0 0 404.99 944.19
  L 404.99 930.49
  A 0.52 0.49 66.3 0 1 405.11 930.16
  Q 405.23 930.03 405.28 929.96
  Z"
/>
<path fill="#000000" fill-opacity="0.200" d="
  M 465.03 930.52
  L 465.17 944.41
  A 0.52 0.52 0.0 0 0 465.69 944.93
  L 479.92 944.93
  L 495.05 944.95
  L 509.93 944.96
  L 525.03 944.95
  L 539.73 944.99
  L 539.79 959.31
  A 0.61 0.60 90.0 0 1 539.19 959.92
  L 466.21 959.92
  A 1.10 1.10 0.0 0 1 465.11 958.82
  L 465.11 945.72
  A 0.81 0.80 0.0 0 0 464.30 944.92
  L 419.92 944.88
  L 419.99 930.02
  Q 441.77 929.90 463.50 930.02
  Q 464.39 930.02 465.03 930.52
  Z"
/>
<path fill="#8a8057" d="
  M 479.92 944.93
  L 465.69 944.93
  A 0.52 0.52 0.0 0 1 465.17 944.41
  L 465.03 930.52
  Q 465.10 930.36 465.17 930.20
  A 0.32 0.31 -78.8 0 1 465.46 930.00
  L 479.21 930.00
  A 0.66 0.65 89.6 0 1 479.86 930.65
  L 479.92 944.93
  Z"
/>
<path fill="#8a8057" d="
  M 509.93 944.96
  L 495.05 944.95
  L 495.07 930.57
  A 0.58 0.58 0.0 0 1 495.65 929.99
  L 509.36 929.99
  A 0.57 0.56 90.0 0 1 509.92 930.56
  L 509.93 944.96
  Z"
/>
<path fill="#8a8057" d="
  M 539.92 930.08
  L 539.73 944.99
  L 525.03 944.95
  L 525.07 930.60
  A 0.52 0.51 0.0 0 1 525.59 930.09
  L 539.92 930.08
  Z"
/>
<path fill="#8a8057" d="
  M 870.10 945.01
  L 870.13 959.93
  L 869.67 960.05
  L 855.58 960.07
  A 0.43 0.43 0.0 0 0 855.15 960.49
  L 855.10 974.76
  Q 854.78 975.03 854.58 975.01
  L 840.65 974.95
  A 0.70 0.69 90.0 0 1 839.96 974.25
  L 839.96 960.86
  A 0.78 0.78 0.0 0 0 839.18 960.08
  L 825.57 960.08
  A 0.51 0.50 -90.0 0 0 825.07 960.59
  L 825.08 974.92
  Q 824.87 974.95 824.66 974.99
  L 810.27 975.01
  Q 810.07 974.69 809.92 974.63
  L 809.92 960.43
  Q 810.66 960.01 811.75 960.02
  Q 818.00 960.09 824.48 959.97
  A 0.60 0.60 0.0 0 0 825.07 959.36
  L 824.96 945.21
  L 839.89 945.15
  L 839.92 958.93
  A 1.12 1.11 90.0 0 0 841.03 960.05
  L 854.38 960.05
  A 0.49 0.49 0.0 0 0 854.87 959.57
  L 855.04 945.04
  L 855.05 930.03
  L 869.35 930.04
  A 0.65 0.64 89.5 0 1 869.99 930.68
  L 870.10 945.01
  Z"
/>
<path fill="#8a8057" d="
  M 899.93 930.09
  L 899.79 944.98
  L 885.02 944.96
  L 885.08 930.61
  A 0.52 0.52 0.0 0 1 885.60 930.09
  L 899.93 930.09
  Z"
/>
<path fill="#5f5b57" d="
  M 840.04 944.81
  L 855.04 945.04
  L 854.87 959.57
  A 0.49 0.49 0.0 0 1 854.38 960.05
  L 841.03 960.05
  A 1.12 1.11 90.0 0 1 839.92 958.93
  L 839.89 945.15
  Q 839.44 944.95 840.04 944.81
  Z"
/>
<path fill="#5f5b57" d="
  M 419.92 944.88
  L 419.77 960.03
  L 405.24 959.95
  L 405.08 945.64
  A 0.66 0.66 0.0 0 1 405.73 944.97
  L 419.92 944.88
  Z"
/>
<path fill="#8a8057" d="
  M 344.97 959.97
  L 330.59 959.95
  A 0.50 0.50 0.0 0 1 330.09 959.45
  L 330.02 945.03
  L 344.39 945.04
  A 0.51 0.51 0.0 0 1 344.90 945.55
  L 344.97 959.97
  Z"
/>
<path fill="#8a8057" d="
  M 374.89 959.96
  L 360.10 959.97
  L 360.11 945.63
  A 0.64 0.64 0.0 0 1 360.75 944.99
  L 374.22 944.99
  A 0.63 0.62 0.0 0 1 374.85 945.61
  L 374.89 959.96
  Z"
/>
<path fill="#000000" fill-opacity="0.200" d="
  M 885.02 944.96
  L 899.79 944.98
  L 899.69 959.38
  A 0.53 0.53 0.0 0 1 899.17 959.90
  L 870.13 959.93
  L 870.10 945.01
  L 885.02 944.96
  Z"
/>
<path fill="#000000" fill-opacity="0.200" d="
  M 809.92 960.43
  L 809.92 974.63
  L 751.04 974.97
  A 0.89 0.89 0.0 0 1 750.15 974.08
  L 750.17 960.32
  Q 751.00 960.12 751.76 960.11
  Q 791.03 959.90 808.52 960.04
  Q 809.14 960.04 809.92 960.43
  Z"
/>
<path fill="#000000" fill-opacity="0.200" d="
  M 854.58 975.01
  L 854.70 989.33
  A 0.59 0.58 -0.5 0 1 854.11 989.92
  L 840.65 989.92
  A 0.58 0.57 0.0 0 1 840.07 989.35
  L 840.07 975.81
  A 0.89 0.89 0.0 0 0 839.18 974.92
  L 825.08 974.92
  L 825.07 960.59
  A 0.51 0.50 -90.0 0 1 825.57 960.08
  L 839.18 960.08
  A 0.78 0.78 0.0 0 1 839.96 960.86
  L 839.96 974.25
  A 0.70 0.69 -90.0 0 0 840.65 974.95
  L 854.58 975.01
  Z"
/>
<path fill="#000000" fill-opacity="0.200" d="
  M 869.67 960.05
  L 869.82 974.23
  A 0.54 0.53 -90.0 0 1 869.29 974.77
  L 855.10 974.76
  L 855.15 960.49
  A 0.43 0.43 0.0 0 1 855.58 960.07
  L 869.67 960.05
  Z"
/>
<path fill="#000000" fill-opacity="0.200" d="
  M 824.66 974.99
  L 824.87 989.18
  A 0.73 0.73 0.0 0 1 824.14 989.92
  L 810.82 989.92
  A 0.68 0.68 0.0 0 1 810.14 989.24
  L 810.27 975.01
  L 824.66 974.99
  Z"
/>
</svg>
